<svg width="146" height="47" viewBox="0 0 146 47" fill="none" xmlns="http://www.w3.org/2000/svg">
<path d="M0 0H143C144.657 0 146 1.34315 146 3V44C146 45.6569 144.657 47 143 47H0V0Z" fill="#D9D9D9" fill-opacity="0.9"/>
<path d="M18.649 37.055L18.594 36.362L19.958 36.109L19.32 36.615C19.3347 36.5197 19.353 36.3877 19.375 36.219C19.397 36.0503 19.4153 35.878 19.43 35.702C19.452 35.526 19.463 35.394 19.463 35.306V30.939C19.463 30.851 19.4557 30.741 19.441 30.609C19.4337 30.4697 19.419 30.3303 19.397 30.191C19.375 30.0443 19.3567 29.9197 19.342 29.817C19.3273 29.7143 19.32 29.6593 19.32 29.652L19.914 30.158L18.605 29.938L18.66 29.19C18.792 29.1973 18.9423 29.2047 19.111 29.212C19.2797 29.2193 19.441 29.2267 19.595 29.234C19.749 29.2413 19.8737 29.245 19.969 29.245C20.1523 29.245 20.3577 29.2413 20.585 29.234C20.8197 29.2193 21.0543 29.2083 21.289 29.201C21.5237 29.1937 21.7327 29.19 21.916 29.19C22.334 29.19 22.719 29.2633 23.071 29.41C23.423 29.5567 23.7053 29.7657 23.918 30.037C24.138 30.3083 24.248 30.6383 24.248 31.027C24.248 31.3937 24.1637 31.72 23.995 32.006C23.8263 32.292 23.5953 32.523 23.302 32.699C23.0087 32.8677 22.675 32.963 22.301 32.985L22.719 32.336V33.59L22.268 32.952C22.7227 32.9667 23.1223 33.0547 23.467 33.216C23.819 33.37 24.094 33.59 24.292 33.876C24.49 34.162 24.589 34.5177 24.589 34.943C24.589 35.405 24.4753 35.7937 24.248 36.109C24.0207 36.4243 23.72 36.6627 23.346 36.824C22.972 36.978 22.5577 37.055 22.103 37.055C21.8317 37.055 21.5237 37.044 21.179 37.022C20.8343 37.0073 20.5227 37 20.244 37C20.1413 37 19.991 37.0037 19.793 37.011C19.6023 37.0183 19.4007 37.0257 19.188 37.033C18.9827 37.0403 18.803 37.0477 18.649 37.055ZM21.047 36.527L20.64 36.153C20.8013 36.175 20.97 36.197 21.146 36.219C21.3293 36.2337 21.5237 36.241 21.729 36.241C22.1397 36.241 22.4697 36.1163 22.719 35.867C22.9757 35.6177 23.104 35.2657 23.104 34.811C23.104 34.4737 23.0307 34.2023 22.884 33.997C22.7447 33.7917 22.554 33.645 22.312 33.557C22.0773 33.4617 21.8133 33.414 21.52 33.414H21.41L21.487 32.567H21.553C21.9563 32.567 22.2717 32.4497 22.499 32.215C22.7337 31.973 22.851 31.643 22.851 31.225C22.851 30.851 22.7483 30.5503 22.543 30.323C22.3377 30.0957 22.0407 29.982 21.652 29.982C21.4833 29.982 21.3073 29.982 21.124 29.982C20.948 29.982 20.7793 29.9857 20.618 29.993L21.025 29.729C21.025 29.7803 21.0177 29.894 21.003 30.07C20.9883 30.246 20.97 30.444 20.948 30.664C20.9333 30.8767 20.926 31.0783 20.926 31.269V34.976C20.926 35.1447 20.9333 35.339 20.948 35.559C20.9627 35.7717 20.981 35.9697 21.003 36.153C21.025 36.3363 21.0397 36.461 21.047 36.527ZM25.7897 37.055L25.7347 36.318L27.1207 36.065L26.3947 36.681C26.4167 36.5783 26.4387 36.4353 26.4607 36.252C26.4901 36.0613 26.5157 35.8743 26.5377 35.691C26.5597 35.5003 26.5707 35.35 26.5707 35.24V33.381C26.5707 33.2783 26.5597 33.128 26.5377 32.93C26.5157 32.732 26.4864 32.5303 26.4497 32.325C26.4204 32.1197 26.3947 31.9437 26.3727 31.797L27.0987 32.589L25.6357 32.358L25.7347 31.566H27.9127L28.1437 31.775C28.1291 31.9217 28.1107 32.116 28.0887 32.358C28.0741 32.5927 28.0594 32.8347 28.0447 33.084C28.0374 33.326 28.0337 33.535 28.0337 33.711V34.91C28.0337 35.2767 28.0521 35.614 28.0887 35.922C28.1327 36.2227 28.1657 36.4573 28.1877 36.626L27.4727 36.109L28.8587 36.241L28.8037 37H27.0987C27.0547 37 26.9557 37.0037 26.8017 37.011C26.6477 37.0183 26.4754 37.0257 26.2847 37.033C26.1014 37.0403 25.9364 37.0477 25.7897 37.055ZM27.0217 30.653C26.7944 30.653 26.6184 30.576 26.4937 30.422C26.3691 30.2607 26.3067 30.07 26.3067 29.85C26.3067 29.6153 26.3691 29.421 26.4937 29.267C26.6184 29.113 26.7944 29.036 27.0217 29.036C27.2564 29.036 27.4361 29.1093 27.5607 29.256C27.6927 29.3953 27.7587 29.5933 27.7587 29.85C27.7587 30.0773 27.6927 30.268 27.5607 30.422C27.4361 30.576 27.2564 30.653 27.0217 30.653ZM31.6597 37.165C31.1097 37.165 30.721 37.011 30.4937 36.703C30.2663 36.395 30.1527 35.9697 30.1527 35.427V31.709L30.7797 32.358H29.3607L29.3277 31.698C29.4597 31.6467 29.61 31.588 29.7787 31.522C29.9547 31.456 30.1307 31.3863 30.3067 31.313C30.4827 31.2323 30.6293 31.159 30.7467 31.093L30.2187 31.577C30.2773 31.5037 30.3433 31.4083 30.4167 31.291C30.49 31.1737 30.5633 31.0527 30.6367 30.928C30.71 30.796 30.7797 30.675 30.8457 30.565C30.9117 30.4477 30.963 30.356 30.9997 30.29L31.6047 30.334V35.46C31.6047 35.658 31.6487 35.823 31.7367 35.955C31.832 36.087 31.9787 36.153 32.1767 36.153C32.3087 36.153 32.4333 36.131 32.5507 36.087C32.6753 36.0357 32.8 35.9733 32.9247 35.9L33.2877 36.527C33.0383 36.703 32.7707 36.8533 32.4847 36.978C32.206 37.1027 31.931 37.165 31.6597 37.165ZM31.3957 32.358V31.566H33.0127L32.9137 32.358H31.3957ZM38.1082 37.165C37.3162 37.165 36.6342 36.9963 36.0622 36.659C35.4975 36.3217 35.0612 35.8523 34.7532 35.251C34.4452 34.6423 34.2912 33.9347 34.2912 33.128C34.2912 32.314 34.4452 31.6063 34.7532 31.005C35.0612 30.3963 35.4975 29.9233 36.0622 29.586C36.6342 29.2487 37.3162 29.08 38.1082 29.08C38.9002 29.08 39.5822 29.2487 40.1542 29.586C40.7262 29.9233 41.1625 30.3963 41.4632 31.005C41.7712 31.6063 41.9252 32.314 41.9252 33.128C41.9252 33.9347 41.7712 34.6423 41.4632 35.251C41.1625 35.8523 40.7262 36.3217 40.1542 36.659C39.5822 36.9963 38.9002 37.165 38.1082 37.165ZM38.1082 36.263C38.5922 36.263 38.9882 36.1383 39.2962 35.889C39.6042 35.6397 39.8352 35.284 39.9892 34.822C40.1432 34.3527 40.2202 33.788 40.2202 33.128C40.2202 32.4607 40.1432 31.896 39.9892 31.434C39.8352 30.9647 39.6042 30.6053 39.2962 30.356C38.9882 30.1067 38.5922 29.982 38.1082 29.982C37.6388 29.982 37.2465 30.1067 36.9312 30.356C36.6158 30.6053 36.3812 30.9647 36.2272 31.434C36.0732 31.896 35.9962 32.4607 35.9962 33.128C35.9962 33.788 36.0732 34.3527 36.2272 34.822C36.3812 35.284 36.6158 35.6397 36.9312 35.889C37.2465 36.1383 37.6388 36.263 38.1082 36.263ZM43.1813 37.055L43.1263 36.318L44.5123 36.065L43.7863 36.681C43.8083 36.5783 43.8303 36.4353 43.8523 36.252C43.8817 36.0613 43.9073 35.8743 43.9293 35.691C43.9513 35.5003 43.9623 35.35 43.9623 35.24V33.381C43.9623 33.2783 43.9513 33.128 43.9293 32.93C43.9073 32.7247 43.878 32.523 43.8413 32.325C43.812 32.127 43.79 31.984 43.7753 31.896L44.4903 32.589L43.0273 32.358L43.1263 31.566H44.8863L45.1173 31.775L45.3923 33.722L44.9523 32.985C45.1063 32.6917 45.2787 32.4277 45.4693 32.193C45.6673 31.951 45.8947 31.7603 46.1513 31.621C46.408 31.4817 46.7013 31.412 47.0313 31.412C47.4493 31.412 47.7903 31.4927 48.0543 31.654C48.3257 31.808 48.5273 32.0353 48.6593 32.336C48.7987 32.6293 48.8683 32.996 48.8683 33.436V34.91C48.8683 35.2767 48.8867 35.614 48.9233 35.922C48.9673 36.23 49.0003 36.4573 49.0223 36.604L48.3073 36.109L49.6933 36.241L49.6383 37H48.0653C47.9993 37 47.8893 37.0037 47.7353 37.011C47.5813 37.0183 47.4163 37.0257 47.2403 37.033C47.0717 37.0403 46.914 37.0477 46.7673 37.055L46.7123 36.318L47.9883 36.043L47.3063 36.648C47.321 36.516 47.3357 36.3547 47.3503 36.164C47.365 35.966 47.376 35.779 47.3833 35.603C47.398 35.4197 47.4053 35.2987 47.4053 35.24V33.568C47.4053 33.3627 47.376 33.1757 47.3173 33.007C47.266 32.8383 47.178 32.7063 47.0533 32.611C46.9287 32.5083 46.7637 32.457 46.5583 32.457C46.265 32.457 46.001 32.6 45.7663 32.886C45.539 33.172 45.4253 33.568 45.4253 34.074V34.91C45.4253 35.2767 45.4437 35.614 45.4803 35.922C45.5243 36.2227 45.5573 36.4573 45.5793 36.626L44.8643 36.109L46.2503 36.241L46.1953 37H44.4903C44.4463 37 44.3473 37.0037 44.1933 37.011C44.0393 37.0183 43.867 37.0257 43.6763 37.033C43.493 37.0403 43.328 37.0477 43.1813 37.055ZM52.6587 39.695L51.5807 39.486L51.5147 39.266C51.632 39.024 51.731 38.8113 51.8117 38.628C51.8997 38.452 51.984 38.265 52.0647 38.067C52.1527 37.8763 52.2443 37.649 52.3397 37.385C52.4423 37.121 52.567 36.7873 52.7137 36.384V37.616L51.0967 33.414C50.9867 33.1353 50.8657 32.8567 50.7337 32.578C50.609 32.292 50.4843 32.0097 50.3597 31.731L51.2617 32.457L49.9417 32.314L50.0077 31.566H52.7357L52.7797 32.27L51.6137 32.402L52.1307 31.687C52.182 31.9217 52.226 32.1563 52.2627 32.391C52.3067 32.6257 52.369 32.8603 52.4497 33.095L53.3847 35.966H52.9997L53.8907 33.095C53.964 32.8677 54.019 32.633 54.0557 32.391C54.0997 32.149 54.1363 31.9143 54.1657 31.687L54.7047 32.413L53.5277 32.27L53.5827 31.566H56.0577L56.1017 32.27L54.9027 32.402L55.8157 31.731C55.691 32.0097 55.5627 32.2883 55.4307 32.567C55.306 32.8457 55.1887 33.1243 55.0787 33.403L52.6587 39.695ZM59.452 37.055L59.397 36.296L60.519 36.142L60.189 36.78C60.101 36.6187 60.0203 36.4683 59.947 36.329C59.8736 36.1897 59.7893 36.054 59.694 35.922L58.968 34.833L58.363 34.338L57.67 33.381C57.648 33.3443 57.6003 33.282 57.527 33.194C57.4536 33.106 57.3363 32.9703 57.175 32.787C57.021 32.6037 56.7936 32.358 56.493 32.05L57.318 32.435L56.306 32.292L56.361 31.566H59.067L59.122 32.259L57.956 32.358L58.264 31.764C58.3373 31.8887 58.396 31.995 58.44 32.083C58.4913 32.171 58.5463 32.2663 58.605 32.369C58.6636 32.4643 58.7443 32.6 58.847 32.776L59.386 33.601L59.991 34.052L60.805 35.174C60.849 35.2253 60.9113 35.295 60.992 35.383C61.0726 35.471 61.19 35.5993 61.344 35.768C61.5053 35.9293 61.7216 36.1567 61.993 36.45L61.146 36.054L62.257 36.307L62.213 37.011L60.717 37C60.563 37 60.365 37.0037 60.123 37.011C59.8883 37.0257 59.6646 37.0403 59.452 37.055ZM56.317 37.055L56.262 36.296L57.351 36.076L56.394 36.56C56.548 36.384 56.7093 36.2043 56.878 36.021C57.0466 35.8303 57.2043 35.6507 57.351 35.482C57.4976 35.306 57.6113 35.163 57.692 35.053L58.374 34.085L59.232 33.634L59.749 32.798C59.8076 32.7173 59.859 32.6403 59.903 32.567C59.947 32.4863 60.0056 32.3873 60.079 32.27C60.1523 32.1453 60.255 31.9767 60.387 31.764L60.684 32.391L59.617 32.248L59.672 31.566H61.982L62.037 32.259L60.97 32.424L61.806 32.094C61.5346 32.3947 61.2963 32.6587 61.091 32.886C60.893 33.1133 60.7316 33.315 60.607 33.491L60.013 34.327L59.155 34.8L58.407 35.955C58.319 36.0943 58.2456 36.2337 58.187 36.373C58.1356 36.505 58.077 36.648 58.011 36.802L57.648 36.164L58.693 36.263L58.638 37H57.582C57.428 37 57.23 37.0037 56.988 37.011C56.7533 37.0257 56.5296 37.0403 56.317 37.055Z" fill="black"/>
<path d="M18 20H121" stroke="#068486"/>
<path d="M21.16 17.12C20.5893 17.12 20.1093 16.9973 19.72 16.752C19.336 16.5013 19.0453 16.1573 18.848 15.72C18.656 15.2773 18.56 14.7653 18.56 14.184C18.56 13.6027 18.656 13.0907 18.848 12.648C19.0453 12.2053 19.336 11.8613 19.72 11.616C20.1093 11.3653 20.5893 11.24 21.16 11.24C21.496 11.24 21.7947 11.2693 22.056 11.328C22.3227 11.3813 22.584 11.4427 22.84 11.512L22.752 12.76L22.248 12.728L22.24 12.328C22.24 12.2747 22.2187 12.184 22.176 12.056C22.1333 11.9227 22.096 11.8053 22.064 11.704L22.368 12.016C22.1813 11.9467 21.9813 11.8907 21.768 11.848C21.5547 11.8 21.352 11.776 21.16 11.776C20.792 11.776 20.488 11.8827 20.248 12.096C20.008 12.3093 19.8293 12.5973 19.712 12.96C19.6 13.3227 19.544 13.728 19.544 14.176C19.544 14.624 19.6 15.0293 19.712 15.392C19.8293 15.7547 20.0053 16.0453 20.24 16.264C20.48 16.4773 20.784 16.584 21.152 16.584C21.3493 16.584 21.56 16.5627 21.784 16.52C22.0133 16.4773 22.2347 16.4213 22.448 16.352L22.12 16.672C22.152 16.5973 22.184 16.5147 22.216 16.424C22.248 16.328 22.2747 16.2427 22.296 16.168C22.3227 16.088 22.336 16.0293 22.336 15.992L22.352 15.616L22.856 15.6L22.912 16.848C22.656 16.912 22.3813 16.9733 22.088 17.032C21.8 17.0907 21.4907 17.12 21.16 17.12ZM23.8286 17.04L23.7886 16.584L24.7326 16.4L24.3166 16.768C24.3326 16.7093 24.3486 16.6213 24.3646 16.504C24.3859 16.3813 24.4046 16.256 24.4206 16.128C24.4366 16 24.4446 15.9013 24.4446 15.832V14.256C24.4446 14.1813 24.4366 14.0773 24.4206 13.944C24.4046 13.8107 24.3859 13.68 24.3646 13.552C24.3432 13.4187 24.3272 13.3227 24.3166 13.264L24.7246 13.696L23.7646 13.536L23.8126 13.048H24.9406L25.1006 13.192L25.2526 14.496L24.9486 14.152C25.0072 14.0187 25.0739 13.8853 25.1486 13.752C25.2286 13.6133 25.3219 13.4853 25.4286 13.368C25.5406 13.2507 25.6739 13.1573 25.8286 13.088C25.9886 13.0133 26.1752 12.976 26.3886 12.976C26.4846 12.976 26.5806 12.984 26.6766 13C26.7779 13.0107 26.8766 13.0293 26.9726 13.056L26.8766 14.472L26.3646 14.448V14.024C26.3646 14.0027 26.3566 13.9547 26.3406 13.88C26.3246 13.8 26.3032 13.7173 26.2766 13.632C26.2552 13.5467 26.2366 13.48 26.2206 13.432L26.5406 13.624C26.4926 13.624 26.4419 13.624 26.3886 13.624C26.3352 13.6187 26.2846 13.616 26.2366 13.616C25.9272 13.616 25.6872 13.7227 25.5166 13.936C25.3512 14.144 25.2686 14.4347 25.2686 14.808V15.592C25.2686 15.8267 25.2792 16.0533 25.3006 16.272C25.3219 16.4907 25.3406 16.656 25.3566 16.768L24.9566 16.432L26.0686 16.52L26.0206 17H24.7406C24.6979 17 24.6232 17.0027 24.5166 17.008C24.4099 17.0133 24.2926 17.0187 24.1646 17.024C24.0419 17.0293 23.9299 17.0347 23.8286 17.04ZM29.2422 18.952L28.6102 18.776L28.5782 18.672C28.6689 18.5173 28.7462 18.3733 28.8102 18.24C28.8795 18.1067 28.9435 17.968 29.0022 17.824C29.0662 17.68 29.1302 17.5147 29.1942 17.328C29.2635 17.1413 29.3462 16.9173 29.4422 16.656L29.4502 17.336L28.2262 14.36C28.1515 14.168 28.0662 13.9787 27.9702 13.792C27.8742 13.6053 27.7809 13.4213 27.6902 13.24L28.2022 13.64L27.4102 13.52L27.4582 13.048H29.2982L29.3302 13.512L28.4662 13.6L28.7462 13.208C28.7835 13.368 28.8209 13.5307 28.8582 13.696C28.8955 13.8613 28.9435 14.0267 29.0022 14.192L29.8182 16.36H29.5782L30.3142 14.248C30.3782 14.0827 30.4289 13.912 30.4662 13.736C30.5035 13.5547 30.5382 13.3787 30.5702 13.208L30.8582 13.616L29.9942 13.488L30.0342 13.048H31.7222L31.7462 13.512L30.9702 13.608L31.4822 13.224C31.3915 13.4267 31.2982 13.6267 31.2022 13.824C31.1062 14.0213 31.0209 14.2213 30.9462 14.424L29.2422 18.952ZM32.2579 18.864L32.2179 18.432L33.0659 18.248L32.6499 18.592C32.6605 18.5333 32.6739 18.4427 32.6899 18.32C32.7112 18.2027 32.7299 18.08 32.7459 17.952C32.7672 17.824 32.7779 17.7253 32.7779 17.656V14.256C32.7779 14.1813 32.7672 14.0773 32.7459 13.944C32.7299 13.8107 32.7085 13.68 32.6819 13.552C32.6605 13.4187 32.6445 13.3227 32.6339 13.264L33.0579 13.696L32.0899 13.536L32.1459 13.048H33.2739L33.4259 13.192L33.5299 14.088L33.3859 13.968C33.4499 13.7653 33.5459 13.5893 33.6739 13.44C33.8072 13.2907 33.9592 13.1733 34.1299 13.088C34.3059 13.0027 34.4872 12.96 34.6739 12.96C35.1805 12.96 35.5725 13.1333 35.8499 13.48C36.1325 13.8267 36.2739 14.312 36.2739 14.936C36.2739 15.3627 36.1939 15.7387 36.0339 16.064C35.8739 16.384 35.6525 16.6347 35.3699 16.816C35.0872 16.992 34.7565 17.08 34.3779 17.08C34.2339 17.08 34.0845 17.0613 33.9299 17.024C33.7752 16.992 33.6205 16.9467 33.4659 16.888L33.4579 16.2C33.6125 16.3013 33.7619 16.376 33.9059 16.424C34.0499 16.472 34.1859 16.496 34.3139 16.496C34.6605 16.496 34.9219 16.3707 35.0979 16.12C35.2739 15.864 35.3619 15.4853 35.3619 14.984C35.3619 14.52 35.2872 14.1733 35.1379 13.944C34.9939 13.7093 34.7752 13.592 34.4819 13.592C34.2099 13.592 33.9912 13.7013 33.8259 13.92C33.6659 14.1387 33.5859 14.424 33.5859 14.776V17.416C33.5859 17.6507 33.5965 17.8773 33.6179 18.096C33.6445 18.3147 33.6659 18.48 33.6819 18.592L33.2819 18.288L34.3859 18.376L34.3379 18.824H33.0659C33.0232 18.824 32.9565 18.8267 32.8659 18.832C32.7752 18.8373 32.6765 18.8427 32.5699 18.848C32.4632 18.8533 32.3592 18.8587 32.2579 18.864ZM38.4408 17.12C38.0675 17.12 37.8088 17.016 37.6648 16.808C37.5261 16.6 37.4568 16.3093 37.4568 15.936V13.176L37.8088 13.536H36.8328L36.8088 13.144C36.8888 13.112 36.9848 13.0773 37.0968 13.04C37.2088 12.9973 37.3208 12.952 37.4328 12.904C37.5501 12.856 37.6461 12.816 37.7208 12.784L37.4008 13.088C37.4328 13.0453 37.4728 12.984 37.5208 12.904C37.5688 12.8187 37.6168 12.728 37.6648 12.632C37.7181 12.5307 37.7661 12.4373 37.8088 12.352C37.8568 12.2667 37.8915 12.2027 37.9128 12.16L38.2728 12.192V15.968C38.2728 16.128 38.3048 16.2587 38.3688 16.36C38.4328 16.456 38.5475 16.504 38.7128 16.504C38.8195 16.504 38.9261 16.4827 39.0328 16.44C39.1448 16.392 39.2488 16.3307 39.3448 16.256L39.5848 16.656C39.3928 16.8 39.2008 16.9147 39.0088 17C38.8168 17.08 38.6275 17.12 38.4408 17.12ZM38.1288 13.536V13.048H39.3848L39.3288 13.536H38.1288ZM42.0527 17.096C41.642 17.096 41.2954 17.0107 41.0127 16.84C40.7354 16.6693 40.5247 16.4293 40.3807 16.12C40.2367 15.8107 40.1647 15.448 40.1647 15.032C40.1647 14.6107 40.2367 14.2453 40.3807 13.936C40.5247 13.6267 40.7354 13.3867 41.0127 13.216C41.2954 13.0453 41.642 12.96 42.0527 12.96C42.6714 12.96 43.138 13.1467 43.4527 13.52C43.7727 13.888 43.9327 14.392 43.9327 15.032C43.9327 15.448 43.8607 15.8107 43.7167 16.12C43.578 16.4293 43.3674 16.6693 43.0847 16.84C42.8074 17.0107 42.4634 17.096 42.0527 17.096ZM42.0527 16.568C42.2927 16.568 42.482 16.5013 42.6207 16.368C42.7647 16.2293 42.866 16.0453 42.9247 15.816C42.9887 15.5813 43.0207 15.32 43.0207 15.032C43.0207 14.7387 42.9887 14.4773 42.9247 14.248C42.866 14.0133 42.7647 13.8293 42.6207 13.696C42.482 13.5573 42.2927 13.488 42.0527 13.488C41.8127 13.488 41.6207 13.5573 41.4767 13.696C41.338 13.8293 41.2367 14.0107 41.1727 14.24C41.114 14.4693 41.0847 14.7333 41.0847 15.032C41.0847 15.32 41.114 15.5813 41.1727 15.816C41.2367 16.0453 41.338 16.2293 41.4767 16.368C41.6207 16.5013 41.8127 16.568 42.0527 16.568ZM46.3529 17.04L46.3129 16.608L47.1369 16.408L46.6489 16.72C46.7129 16.6027 46.7743 16.4907 46.8329 16.384C46.8916 16.2773 46.9449 16.168 46.9929 16.056C47.0409 15.944 47.0863 15.832 47.1289 15.72L48.5689 11.36L49.1609 11.28L50.7929 15.848C50.8409 15.992 50.8969 16.1333 50.9609 16.272C51.0303 16.4053 51.0943 16.5307 51.1529 16.648L50.6889 16.384L51.5529 16.528L51.5129 17H50.7449C50.6809 17 50.5743 17.0027 50.4249 17.008C50.2756 17.0133 50.1129 17.0187 49.9369 17.024C49.7663 17.0293 49.6089 17.0347 49.4649 17.04L49.4409 16.608L50.3609 16.368L50.0489 16.784C50.0169 16.5493 49.9849 16.352 49.9529 16.192C49.9209 16.032 49.8756 15.872 49.8169 15.712L48.6969 12.32H48.9129L47.7449 16.008C47.7129 16.12 47.6889 16.2347 47.6729 16.352C47.6623 16.4693 47.6543 16.5947 47.6489 16.728L47.3049 16.416L48.2169 16.528L48.1769 17H47.4409C47.3769 17 47.2809 17.0027 47.1529 17.008C47.0249 17.0133 46.8889 17.0187 46.7449 17.024C46.6009 17.0293 46.4703 17.0347 46.3529 17.04ZM47.7609 15.312V14.816H49.9449V15.312H47.7609ZM52.1221 17.04L52.0821 16.584L53.0261 16.4L52.6101 16.768C52.6261 16.7093 52.6421 16.6213 52.6581 16.504C52.6794 16.3813 52.6981 16.256 52.7141 16.128C52.7301 16 52.7381 15.9013 52.7381 15.832V12.16C52.7381 12.0853 52.7301 11.9867 52.7141 11.864C52.6981 11.736 52.6794 11.6053 52.6581 11.472C52.6421 11.3387 52.6261 11.2267 52.6101 11.136L53.0181 11.6L52.0581 11.384L52.1061 10.92L52.9141 10.952H53.4581L53.6181 11.096C53.6127 11.192 53.6047 11.3173 53.5941 11.472C53.5834 11.6267 53.5727 11.7867 53.5621 11.952C53.5567 12.1173 53.5541 12.2667 53.5541 12.4V15.592C53.5541 15.832 53.5647 16.0613 53.5861 16.28C53.6127 16.4933 53.6341 16.656 53.6501 16.768L53.2501 16.432L54.2021 16.52L54.1541 17H53.0341C52.9914 17 52.9167 17.0027 52.8101 17.008C52.7034 17.0133 52.5861 17.0187 52.4581 17.024C52.3354 17.0293 52.2234 17.0347 52.1221 17.04ZM57.6471 17.04L57.6071 16.592L58.6631 16.408L58.2711 16.784C58.2871 16.72 58.3031 16.6267 58.3191 16.504C58.3351 16.3813 58.3511 16.2587 58.3671 16.136C58.3831 16.008 58.3911 15.912 58.3911 15.848V12.512C58.3911 12.4427 58.3831 12.352 58.3671 12.24C58.3511 12.1227 58.3351 12.0053 58.3191 11.888C58.3031 11.7707 58.2871 11.68 58.2711 11.616L59.3511 11.608C59.3404 11.6773 59.3271 11.7733 59.3111 11.896C59.2951 12.0187 59.2817 12.1573 59.2711 12.312C59.2604 12.4613 59.2551 12.608 59.2551 12.752V15.608C59.2551 15.7467 59.2604 15.8933 59.2711 16.048C59.2817 16.2027 59.2951 16.3467 59.3111 16.48C59.3271 16.608 59.3404 16.7093 59.3511 16.784L58.9671 16.448L60.0791 16.528L60.0311 17H58.8631C58.7991 17 58.6977 17.0027 58.5591 17.008C58.4204 17.0133 58.2684 17.0187 58.1031 17.024C57.9377 17.0293 57.7857 17.0347 57.6471 17.04ZM56.9751 12.848L56.4791 12.808L56.5351 11.464L56.6951 11.32C56.7964 11.3253 56.9084 11.3307 57.0311 11.336C57.1537 11.3413 57.2684 11.3467 57.3751 11.352C57.4817 11.3573 57.5591 11.36 57.6071 11.36H60.0311C60.0791 11.36 60.1564 11.3573 60.2631 11.352C60.3751 11.3467 60.4924 11.3413 60.6151 11.336C60.7431 11.3307 60.8524 11.3253 60.9431 11.32L61.0951 11.464L61.1591 12.808L60.6711 12.848C60.6657 12.784 60.6551 12.7093 60.6391 12.624C60.6284 12.5333 60.6177 12.448 60.6071 12.368C60.5964 12.288 60.5831 12.2293 60.5671 12.192L60.2951 11.584L60.6951 11.912C60.6151 11.9013 60.4871 11.8907 60.3111 11.88C60.1351 11.8693 59.9671 11.864 59.8071 11.864H57.8471C57.7404 11.864 57.6257 11.8693 57.5031 11.88C57.3804 11.8853 57.2684 11.8907 57.1671 11.896C57.0711 11.9013 56.9991 11.9067 56.9511 11.912L57.3271 11.576L57.0791 12.192C57.0631 12.256 57.0444 12.36 57.0231 12.504C57.0017 12.6427 56.9857 12.7573 56.9751 12.848ZM61.7973 17.04L61.7573 16.584L62.7013 16.4L62.2853 16.768C62.3013 16.7093 62.3173 16.6213 62.3333 16.504C62.3546 16.3813 62.3733 16.256 62.3893 16.128C62.4053 16 62.4133 15.9013 62.4133 15.832V14.256C62.4133 14.1813 62.4053 14.0773 62.3893 13.944C62.3733 13.8107 62.3546 13.68 62.3333 13.552C62.312 13.4187 62.296 13.3227 62.2853 13.264L62.6933 13.696L61.7333 13.536L61.7813 13.048H62.9093L63.0693 13.192L63.2213 14.496L62.9173 14.152C62.976 14.0187 63.0426 13.8853 63.1173 13.752C63.1973 13.6133 63.2906 13.4853 63.3973 13.368C63.5093 13.2507 63.6426 13.1573 63.7973 13.088C63.9573 13.0133 64.144 12.976 64.3573 12.976C64.4533 12.976 64.5493 12.984 64.6453 13C64.7466 13.0107 64.8453 13.0293 64.9413 13.056L64.8453 14.472L64.3333 14.448V14.024C64.3333 14.0027 64.3253 13.9547 64.3093 13.88C64.2933 13.8 64.272 13.7173 64.2453 13.632C64.224 13.5467 64.2053 13.48 64.1893 13.432L64.5093 13.624C64.4613 13.624 64.4106 13.624 64.3573 13.624C64.304 13.6187 64.2533 13.616 64.2053 13.616C63.896 13.616 63.656 13.7227 63.4853 13.936C63.32 14.144 63.2373 14.4347 63.2373 14.808V15.592C63.2373 15.8267 63.248 16.0533 63.2693 16.272C63.2906 16.4907 63.3093 16.656 63.3253 16.768L62.9253 16.432L64.0373 16.52L63.9893 17H62.7093C62.6666 17 62.592 17.0027 62.4853 17.008C62.3786 17.0133 62.2613 17.0187 62.1333 17.024C62.0106 17.0293 61.8986 17.0347 61.7973 17.04ZM66.7389 17.08C66.3763 17.08 66.0909 16.984 65.8829 16.792C65.6749 16.6 65.5709 16.3413 65.5709 16.016C65.5709 15.7333 65.6563 15.4987 65.8269 15.312C66.0029 15.12 66.2723 14.9947 66.6349 14.936L67.9789 14.72V15.16L66.9149 15.36C66.7549 15.3813 66.6349 15.44 66.5549 15.536C66.4803 15.6267 66.4429 15.7413 66.4429 15.88C66.4429 16.0667 66.4883 16.2107 66.5789 16.312C66.6696 16.408 66.8003 16.456 66.9709 16.456C67.1949 16.456 67.3896 16.384 67.5549 16.24C67.7256 16.096 67.8296 15.9147 67.8669 15.696V14.464C67.8669 14.1333 67.8109 13.8907 67.6989 13.736C67.5869 13.576 67.4083 13.496 67.1629 13.496C67.0616 13.496 66.9469 13.5093 66.8189 13.536C66.6963 13.5573 66.5789 13.5867 66.4669 13.624C66.3603 13.656 66.2776 13.6907 66.2189 13.728L66.5069 13.296L66.3949 13.984L66.4029 14.32L65.8829 14.344L65.7869 13.16C65.9469 13.1173 66.1096 13.0827 66.2749 13.056C66.4456 13.024 66.6109 13 66.7709 12.984C66.9363 12.968 67.0909 12.96 67.2349 12.96C67.7309 12.96 68.0936 13.088 68.3229 13.344C68.5576 13.6 68.6749 14.008 68.6749 14.568V15.592C68.6749 15.848 68.6883 16.072 68.7149 16.264C68.7469 16.456 68.7736 16.608 68.7949 16.72L68.4189 16.432L69.2829 16.52L69.2349 17H68.0429L67.8989 16.024L68.0749 16.064C68.0376 16.2453 67.9549 16.416 67.8269 16.576C67.7043 16.7307 67.5496 16.8533 67.3629 16.944C67.1763 17.0347 66.9683 17.08 66.7389 17.08ZM71.4129 17.08C70.9223 17.08 70.5356 16.9013 70.2529 16.544C69.9756 16.1813 69.8369 15.6773 69.8369 15.032C69.8369 14.3867 69.9943 13.88 70.3089 13.512C70.6289 13.144 71.0689 12.96 71.6289 12.96C71.7409 12.96 71.8449 12.9653 71.9409 12.976C72.0423 12.9867 72.1516 13.0053 72.2689 13.032C72.3863 13.0587 72.5169 13.0987 72.6609 13.152L72.6449 13.84C72.4689 13.728 72.3063 13.6507 72.1569 13.608C72.0076 13.56 71.8583 13.536 71.7089 13.536C71.3996 13.536 71.1623 13.6613 70.9969 13.912C70.8316 14.1627 70.7489 14.528 70.7489 15.008C70.7489 15.4667 70.8236 15.8187 70.9729 16.064C71.1223 16.3093 71.3303 16.432 71.5969 16.432C71.8796 16.432 72.0983 16.3333 72.2529 16.136C72.4129 15.9333 72.4983 15.648 72.5089 15.28V12.152C72.5089 12.0773 72.5009 11.9813 72.4849 11.864C72.4689 11.7413 72.4503 11.624 72.4289 11.512C72.4129 11.4 72.3996 11.3227 72.3889 11.28L72.7809 11.584L71.7569 11.384L71.8129 10.92L72.6769 10.952H73.2289L73.3809 11.096C73.3756 11.224 73.3676 11.3707 73.3569 11.536C73.3463 11.7013 73.3383 11.8613 73.3329 12.016C73.3276 12.1707 73.3249 12.296 73.3249 12.392V15.6C73.3249 15.8347 73.3383 16.056 73.3649 16.264C73.3969 16.472 73.4236 16.632 73.4449 16.744L73.0369 16.432L73.9249 16.52L73.8769 17H72.6849L72.5409 16.016L72.6929 16.144C72.6503 16.2773 72.5863 16.4 72.5009 16.512C72.4156 16.624 72.3116 16.7227 72.1889 16.808C72.0716 16.8933 71.9463 16.96 71.8129 17.008C71.6796 17.056 71.5463 17.08 71.4129 17.08ZM74.4614 17.04L74.4214 16.584L75.3654 16.4L74.9494 16.768C74.9654 16.7093 74.9814 16.6213 74.9974 16.504C75.0187 16.3813 75.0374 16.256 75.0534 16.128C75.0694 16 75.0774 15.9013 75.0774 15.832V14.256C75.0774 14.1813 75.0694 14.0827 75.0534 13.96C75.0427 13.832 75.0267 13.7013 75.0054 13.568C74.984 13.4347 74.9654 13.3227 74.9494 13.232L75.3574 13.696L74.3974 13.536L74.4454 13.048H75.7974L75.9574 13.192C75.952 13.288 75.944 13.4133 75.9334 13.568C75.9227 13.7227 75.9147 13.8827 75.9094 14.048C75.904 14.2133 75.9014 14.3627 75.9014 14.496V15.592C75.9014 15.8267 75.912 16.0533 75.9334 16.272C75.9547 16.4907 75.9734 16.656 75.9894 16.768L75.5894 16.432L76.5414 16.52L76.4934 17H75.3734C75.3307 17 75.256 17.0027 75.1494 17.008C75.0427 17.0133 74.9254 17.0187 74.7974 17.024C74.6747 17.0293 74.5627 17.0347 74.4614 17.04ZM75.3334 12.32C75.1787 12.32 75.0587 12.2693 74.9734 12.168C74.888 12.0667 74.8454 11.9387 74.8454 11.784C74.8454 11.624 74.888 11.4933 74.9734 11.392C75.0587 11.2907 75.1787 11.24 75.3334 11.24C75.4934 11.24 75.616 11.288 75.7014 11.384C75.7867 11.4747 75.8294 11.608 75.8294 11.784C75.8294 11.944 75.7867 12.0747 75.7014 12.176C75.616 12.272 75.4934 12.32 75.3334 12.32ZM77.0708 17.04L77.0308 16.584L77.9748 16.4L77.5588 16.768C77.5748 16.7093 77.5908 16.6213 77.6068 16.504C77.6281 16.3813 77.6468 16.256 77.6628 16.128C77.6788 16 77.6868 15.9013 77.6868 15.832V14.256C77.6868 14.1813 77.6788 14.0773 77.6628 13.944C77.6468 13.8107 77.6281 13.68 77.6068 13.552C77.5854 13.4187 77.5694 13.3227 77.5588 13.264L77.9668 13.696L77.0068 13.536L77.0548 13.048H78.1828L78.3428 13.192L78.4948 14.496L78.2548 14C78.3508 13.792 78.4628 13.6107 78.5908 13.456C78.7241 13.3013 78.8788 13.1813 79.0548 13.096C79.2361 13.0053 79.4361 12.96 79.6548 12.96C80.0014 12.96 80.2708 13.0293 80.4628 13.168C80.6548 13.3013 80.7908 13.4933 80.8708 13.744C80.9561 13.9893 80.9988 14.2853 80.9988 14.632V15.592C80.9988 15.8213 81.0094 16.04 81.0308 16.248C81.0574 16.456 81.0788 16.6133 81.0948 16.72L80.7028 16.432L81.6548 16.52L81.6068 17H80.5268C80.4894 17 80.4201 17.0027 80.3188 17.008C80.2174 17.0133 80.1054 17.0187 79.9828 17.024C79.8654 17.0293 79.7588 17.0347 79.6628 17.04L79.6228 16.584L80.4788 16.392L80.0868 16.688C80.1028 16.6187 80.1188 16.5307 80.1348 16.424C80.1508 16.3173 80.1641 16.2107 80.1748 16.104C80.1854 15.992 80.1908 15.9013 80.1908 15.832V14.68C80.1908 14.4827 80.1694 14.2987 80.1268 14.128C80.0841 13.9573 80.0094 13.8213 79.9028 13.72C79.7961 13.6133 79.6441 13.56 79.4468 13.56C79.1748 13.56 78.9508 13.6773 78.7747 13.912C78.5988 14.1467 78.5108 14.4533 78.5108 14.832V15.592C78.5108 15.8267 78.5214 16.0533 78.5428 16.272C78.5641 16.4907 78.5828 16.656 78.5988 16.768L78.1988 16.432L79.1508 16.52L79.1028 17H77.9828C77.9401 17 77.8654 17.0027 77.7588 17.008C77.6521 17.0133 77.5348 17.0187 77.4068 17.024C77.2841 17.0293 77.1721 17.0347 77.0708 17.04ZM83.6761 18.88C82.5828 18.88 82.0361 18.496 82.0361 17.728C82.0361 17.6427 82.1161 17.52 82.2761 17.36C82.4361 17.2 82.6388 17.04 82.8841 16.88L83.2281 16.968C83.1321 17.08 83.0548 17.1733 82.9961 17.248C82.9428 17.328 82.9055 17.3973 82.8841 17.456C82.8628 17.5147 82.8521 17.5707 82.8521 17.624C82.8521 17.8693 82.9401 18.0533 83.1161 18.176C83.2975 18.2987 83.5748 18.36 83.9481 18.36C84.2468 18.36 84.4895 18.2933 84.6761 18.16C84.8681 18.032 84.9641 17.8613 84.9641 17.648C84.9641 17.5413 84.9401 17.4613 84.8921 17.408C84.8495 17.36 84.7748 17.3307 84.6681 17.32L83.6281 17.176C83.4948 17.1547 83.3748 17.1333 83.2681 17.112C83.1668 17.0907 83.0361 17.0533 82.8761 17C82.7001 16.936 82.5721 16.848 82.4921 16.736C82.4175 16.624 82.3801 16.4827 82.3801 16.312C82.3801 16.2053 82.5988 15.9573 83.0361 15.568L83.3641 15.68C83.2575 15.7867 83.1801 15.8747 83.1321 15.944C83.0895 16.0133 83.0681 16.064 83.0681 16.096C83.0681 16.176 83.1188 16.2373 83.2201 16.28C83.3215 16.3173 83.5108 16.352 83.7881 16.384C84.0388 16.4107 84.2655 16.4373 84.4681 16.464C84.6708 16.4907 84.8495 16.5173 85.0041 16.544C85.1588 16.5653 85.2815 16.592 85.3721 16.624C85.6228 16.7147 85.7481 16.9547 85.7481 17.344C85.7481 17.6267 85.6548 17.8827 85.4681 18.112C85.2815 18.3467 85.0308 18.5333 84.7161 18.672C84.4068 18.8107 84.0601 18.88 83.6761 18.88ZM83.7961 15.856C83.4815 15.856 83.2041 15.7973 82.9641 15.68C82.7241 15.5627 82.5348 15.3973 82.3961 15.184C82.2628 14.9653 82.1961 14.7067 82.1961 14.408C82.1961 14.1147 82.2628 13.8613 82.3961 13.648C82.5348 13.4347 82.7241 13.2667 82.9641 13.144C83.2041 13.0213 83.4841 12.96 83.8041 12.96C84.1188 12.96 84.3961 13.0213 84.6361 13.144C84.8761 13.2613 85.0628 13.4267 85.1961 13.64C85.3295 13.8533 85.3961 14.1067 85.3961 14.4C85.3961 14.6933 85.3295 14.9493 85.1961 15.168C85.0628 15.3867 84.8761 15.5573 84.6361 15.68C84.3961 15.7973 84.1161 15.856 83.7961 15.856ZM83.7961 15.408C84.2761 15.408 84.5161 15.0693 84.5161 14.392C84.5161 13.736 84.2788 13.408 83.8041 13.408C83.3188 13.408 83.0761 13.744 83.0761 14.416C83.0761 15.0773 83.3161 15.408 83.7961 15.408ZM85.7881 13.544L85.0121 13.536L84.4681 13.192L85.7321 12.96L85.7881 13.544ZM88.0548 18.864L88.0148 18.432L88.8628 18.248L88.4468 18.592C88.4574 18.5333 88.4708 18.4427 88.4868 18.32C88.5081 18.2027 88.5268 18.08 88.5428 17.952C88.5641 17.824 88.5748 17.7253 88.5748 17.656V14.256C88.5748 14.1813 88.5641 14.0773 88.5428 13.944C88.5268 13.8107 88.5054 13.68 88.4788 13.552C88.4574 13.4187 88.4414 13.3227 88.4308 13.264L88.8548 13.696L87.8868 13.536L87.9428 13.048H89.0708L89.2228 13.192L89.3268 14.088L89.1828 13.968C89.2468 13.7653 89.3428 13.5893 89.4708 13.44C89.6041 13.2907 89.7561 13.1733 89.9268 13.088C90.1028 13.0027 90.2841 12.96 90.4708 12.96C90.9774 12.96 91.3694 13.1333 91.6468 13.48C91.9294 13.8267 92.0708 14.312 92.0708 14.936C92.0708 15.3627 91.9908 15.7387 91.8307 16.064C91.6708 16.384 91.4494 16.6347 91.1668 16.816C90.8841 16.992 90.5534 17.08 90.1748 17.08C90.0308 17.08 89.8814 17.0613 89.7268 17.024C89.5721 16.992 89.4174 16.9467 89.2628 16.888L89.2548 16.2C89.4094 16.3013 89.5588 16.376 89.7028 16.424C89.8468 16.472 89.9828 16.496 90.1108 16.496C90.4574 16.496 90.7188 16.3707 90.8948 16.12C91.0708 15.864 91.1588 15.4853 91.1588 14.984C91.1588 14.52 91.0841 14.1733 90.9348 13.944C90.7908 13.7093 90.5721 13.592 90.2788 13.592C90.0068 13.592 89.7881 13.7013 89.6228 13.92C89.4628 14.1387 89.3828 14.424 89.3828 14.776V17.416C89.3828 17.6507 89.3934 17.8773 89.4148 18.096C89.4414 18.3147 89.4628 18.48 89.4788 18.592L89.0788 18.288L90.1828 18.376L90.1348 18.824H88.8628C88.8201 18.824 88.7534 18.8267 88.6628 18.832C88.5721 18.8373 88.4734 18.8427 88.3668 18.848C88.2601 18.8533 88.1561 18.8587 88.0548 18.864ZM92.6377 17.04L92.5977 16.584L93.5417 16.4L93.1257 16.768C93.1417 16.7093 93.1577 16.6213 93.1737 16.504C93.195 16.3813 93.2137 16.256 93.2297 16.128C93.2457 16 93.2537 15.9013 93.2537 15.832V12.16C93.2537 12.0853 93.2457 11.9867 93.2297 11.864C93.2137 11.736 93.195 11.6053 93.1737 11.472C93.1577 11.3387 93.1417 11.2267 93.1257 11.136L93.5337 11.6L92.5737 11.384L92.6217 10.92L93.4297 10.952H93.9737L94.1337 11.096C94.1284 11.192 94.1204 11.3173 94.1097 11.472C94.099 11.6267 94.0884 11.7867 94.0777 11.952C94.0724 12.1173 94.0697 12.2667 94.0697 12.4V15.592C94.0697 15.832 94.0804 16.0613 94.1017 16.28C94.1284 16.4933 94.1497 16.656 94.1657 16.768L93.7657 16.432L94.7177 16.52L94.6697 17H93.5497C93.507 17 93.4324 17.0027 93.3257 17.008C93.219 17.0133 93.1017 17.0187 92.9737 17.024C92.851 17.0293 92.739 17.0347 92.6377 17.04ZM96.4186 17.08C96.056 17.08 95.7706 16.984 95.5626 16.792C95.3546 16.6 95.2506 16.3413 95.2506 16.016C95.2506 15.7333 95.336 15.4987 95.5066 15.312C95.6826 15.12 95.952 14.9947 96.3146 14.936L97.6586 14.72V15.16L96.5946 15.36C96.4346 15.3813 96.3146 15.44 96.2346 15.536C96.16 15.6267 96.1226 15.7413 96.1226 15.88C96.1226 16.0667 96.168 16.2107 96.2586 16.312C96.3493 16.408 96.48 16.456 96.6506 16.456C96.8746 16.456 97.0693 16.384 97.2346 16.24C97.4053 16.096 97.5093 15.9147 97.5466 15.696V14.464C97.5466 14.1333 97.4906 13.8907 97.3786 13.736C97.2666 13.576 97.088 13.496 96.8426 13.496C96.7413 13.496 96.6266 13.5093 96.4986 13.536C96.376 13.5573 96.2586 13.5867 96.1466 13.624C96.04 13.656 95.9573 13.6907 95.8986 13.728L96.1866 13.296L96.0746 13.984L96.0826 14.32L95.5626 14.344L95.4666 13.16C95.6266 13.1173 95.7893 13.0827 95.9546 13.056C96.1253 13.024 96.2906 13 96.4506 12.984C96.616 12.968 96.7706 12.96 96.9146 12.96C97.4106 12.96 97.7733 13.088 98.0026 13.344C98.2373 13.6 98.3546 14.008 98.3546 14.568V15.592C98.3546 15.848 98.368 16.072 98.3946 16.264C98.4266 16.456 98.4533 16.608 98.4746 16.72L98.0986 16.432L98.9626 16.52L98.9146 17H97.7226L97.5786 16.024L97.7546 16.064C97.7173 16.2453 97.6346 16.416 97.5066 16.576C97.384 16.7307 97.2293 16.8533 97.0426 16.944C96.856 17.0347 96.648 17.08 96.4186 17.08ZM100.949 17.12C100.575 17.12 100.317 17.016 100.173 16.808C100.034 16.6 99.9646 16.3093 99.9646 15.936V13.176L100.317 13.536H99.3406L99.3166 13.144C99.3966 13.112 99.4926 13.0773 99.6046 13.04C99.7166 12.9973 99.8286 12.952 99.9406 12.904C100.058 12.856 100.154 12.816 100.229 12.784L99.9086 13.088C99.9406 13.0453 99.9806 12.984 100.029 12.904C100.077 12.8187 100.125 12.728 100.173 12.632C100.226 12.5307 100.274 12.4373 100.317 12.352C100.365 12.2667 100.399 12.2027 100.421 12.16L100.781 12.192V15.968C100.781 16.128 100.813 16.2587 100.877 16.36C100.941 16.456 101.055 16.504 101.221 16.504C101.327 16.504 101.434 16.4827 101.541 16.44C101.653 16.392 101.757 16.3307 101.853 16.256L102.093 16.656C101.901 16.8 101.709 16.9147 101.517 17C101.325 17.08 101.135 17.12 100.949 17.12ZM100.637 13.536V13.048H101.893L101.837 13.536H100.637ZM102.633 17.04L102.593 16.584L103.505 16.4L103.097 16.768C103.107 16.7093 103.121 16.6213 103.137 16.504C103.158 16.3813 103.177 16.256 103.193 16.128C103.214 16 103.225 15.9013 103.225 15.832V13.384L103.337 13.536H102.665L102.641 13.136L103.337 13.032L103.225 13.216V12.272C103.225 11.9893 103.281 11.7413 103.393 11.528C103.505 11.3093 103.665 11.1413 103.873 11.024C104.086 10.9013 104.342 10.84 104.641 10.84C104.753 10.84 104.857 10.848 104.953 10.864C105.054 10.8747 105.155 10.8907 105.257 10.912L105.137 12.096L104.713 12.072L104.721 11.76C104.721 11.7173 104.71 11.6347 104.689 11.512C104.667 11.3893 104.643 11.2747 104.617 11.168L104.969 11.384C104.942 11.384 104.902 11.3813 104.849 11.376C104.795 11.3707 104.739 11.3653 104.681 11.36C104.627 11.3493 104.585 11.344 104.553 11.344C104.387 11.344 104.262 11.3893 104.177 11.48C104.097 11.5707 104.043 11.6987 104.017 11.864C103.995 12.024 103.99 12.216 104.001 12.44C104.011 12.6587 104.025 12.8987 104.041 13.16L103.921 13.048H105.081L105.025 13.536H103.921L104.041 13.32V15.592C104.041 15.8267 104.051 16.0533 104.073 16.272C104.094 16.4907 104.113 16.656 104.129 16.768L103.729 16.432L104.849 16.52L104.801 17H103.513C103.475 17 103.403 17.0027 103.297 17.008C103.195 17.0133 103.083 17.0187 102.961 17.024C102.843 17.0293 102.734 17.0347 102.633 17.04ZM107.553 17.096C107.142 17.096 106.795 17.0107 106.513 16.84C106.235 16.6693 106.025 16.4293 105.881 16.12C105.737 15.8107 105.665 15.448 105.665 15.032C105.665 14.6107 105.737 14.2453 105.881 13.936C106.025 13.6267 106.235 13.3867 106.513 13.216C106.795 13.0453 107.142 12.96 107.553 12.96C108.171 12.96 108.638 13.1467 108.953 13.52C109.273 13.888 109.433 14.392 109.433 15.032C109.433 15.448 109.361 15.8107 109.217 16.12C109.078 16.4293 108.867 16.6693 108.585 16.84C108.307 17.0107 107.963 17.096 107.553 17.096ZM107.553 16.568C107.793 16.568 107.982 16.5013 108.121 16.368C108.265 16.2293 108.366 16.0453 108.425 15.816C108.489 15.5813 108.521 15.32 108.521 15.032C108.521 14.7387 108.489 14.4773 108.425 14.248C108.366 14.0133 108.265 13.8293 108.121 13.696C107.982 13.5573 107.793 13.488 107.553 13.488C107.313 13.488 107.121 13.5573 106.977 13.696C106.838 13.8293 106.737 14.0107 106.673 14.24C106.614 14.4693 106.585 14.7333 106.585 15.032C106.585 15.32 106.614 15.5813 106.673 15.816C106.737 16.0453 106.838 16.2293 106.977 16.368C107.121 16.5013 107.313 16.568 107.553 16.568ZM110.149 17.04L110.109 16.584L111.053 16.4L110.637 16.768C110.653 16.7093 110.669 16.6213 110.685 16.504C110.706 16.3813 110.725 16.256 110.741 16.128C110.757 16 110.765 15.9013 110.765 15.832V14.256C110.765 14.1813 110.757 14.0773 110.741 13.944C110.725 13.8107 110.706 13.68 110.685 13.552C110.664 13.4187 110.648 13.3227 110.637 13.264L111.045 13.696L110.085 13.536L110.133 13.048H111.261L111.421 13.192L111.573 14.496L111.269 14.152C111.328 14.0187 111.394 13.8853 111.469 13.752C111.549 13.6133 111.642 13.4853 111.749 13.368C111.861 13.2507 111.994 13.1573 112.149 13.088C112.309 13.0133 112.496 12.976 112.709 12.976C112.805 12.976 112.901 12.984 112.997 13C113.098 13.0107 113.197 13.0293 113.293 13.056L113.197 14.472L112.685 14.448V14.024C112.685 14.0027 112.677 13.9547 112.661 13.88C112.645 13.8 112.624 13.7173 112.597 13.632C112.576 13.5467 112.557 13.48 112.541 13.432L112.861 13.624C112.813 13.624 112.762 13.624 112.709 13.624C112.656 13.6187 112.605 13.616 112.557 13.616C112.248 13.616 112.008 13.7227 111.837 13.936C111.672 14.144 111.589 14.4347 111.589 14.808V15.592C111.589 15.8267 111.6 16.0533 111.621 16.272C111.642 16.4907 111.661 16.656 111.677 16.768L111.277 16.432L112.389 16.52L112.341 17H111.061C111.018 17 110.944 17.0027 110.837 17.008C110.73 17.0133 110.613 17.0187 110.485 17.024C110.362 17.0293 110.25 17.0347 110.149 17.04ZM118.747 17.04L118.707 16.584L119.571 16.392L119.187 16.68C119.203 16.6053 119.216 16.512 119.227 16.4C119.237 16.288 119.248 16.1787 119.259 16.072C119.269 15.9653 119.275 15.8853 119.275 15.832V14.68C119.275 14.4827 119.256 14.2987 119.219 14.128C119.187 13.9573 119.123 13.8213 119.027 13.72C118.931 13.6133 118.795 13.56 118.619 13.56C118.363 13.56 118.149 13.6747 117.979 13.904C117.813 14.1333 117.725 14.4373 117.715 14.816L117.451 14.048C117.579 13.7067 117.763 13.44 118.003 13.248C118.243 13.056 118.523 12.96 118.843 12.96C119.157 12.96 119.405 13.0293 119.587 13.168C119.768 13.3013 119.896 13.4933 119.971 13.744C120.051 13.9893 120.091 14.2853 120.091 14.632V15.592C120.091 15.7253 120.096 15.8667 120.107 16.016C120.117 16.1653 120.131 16.2987 120.147 16.416C120.163 16.5333 120.173 16.6133 120.179 16.656L119.787 16.432L120.739 16.52L120.691 17H119.611C119.584 17 119.52 17.0027 119.419 17.008C119.317 17.0133 119.203 17.0187 119.075 17.024C118.952 17.0293 118.843 17.0347 118.747 17.04ZM113.915 17.04L113.875 16.584L114.819 16.4L114.403 16.768C114.419 16.7093 114.435 16.6213 114.451 16.504C114.472 16.3813 114.491 16.256 114.507 16.128C114.523 16 114.531 15.9013 114.531 15.832V14.256C114.531 14.1813 114.523 14.0773 114.507 13.944C114.491 13.8107 114.472 13.68 114.451 13.552C114.429 13.4187 114.413 13.3227 114.403 13.264L114.811 13.696L113.851 13.536L113.899 13.048H115.027L115.187 13.192L115.355 14.576V15.592C115.355 15.8267 115.365 16.0533 115.387 16.272C115.408 16.4907 115.427 16.656 115.443 16.768L115.043 16.432L115.995 16.52L115.947 17H114.827C114.784 17 114.709 17.0027 114.603 17.008C114.496 17.0133 114.379 17.0187 114.251 17.024C114.128 17.0293 114.016 17.0347 113.915 17.04ZM116.379 17.04L116.339 16.584L117.195 16.392L116.819 16.68C116.829 16.6053 116.84 16.512 116.851 16.4C116.867 16.288 116.88 16.1787 116.891 16.072C116.901 15.9653 116.907 15.8853 116.907 15.832V14.68C116.907 14.4827 116.888 14.2987 116.851 14.128C116.813 13.9573 116.747 13.8213 116.651 13.72C116.56 13.6133 116.427 13.56 116.251 13.56C115.995 13.56 115.781 13.6773 115.611 13.912C115.44 14.1467 115.355 14.4533 115.355 14.832L115.075 14.064C115.16 13.84 115.269 13.6453 115.403 13.48C115.541 13.3147 115.699 13.1867 115.875 13.096C116.056 13.0053 116.253 12.96 116.467 12.96C116.787 12.96 117.037 13.0293 117.219 13.168C117.4 13.3013 117.528 13.4933 117.602 13.744C117.677 13.9893 117.715 14.2853 117.715 14.632V15.592C117.715 15.7253 117.72 15.8667 117.731 16.016C117.747 16.1653 117.76 16.2987 117.771 16.416C117.787 16.5333 117.797 16.6133 117.803 16.656L117.419 16.432L118.371 16.52L118.323 17H117.243C117.216 17 117.152 17.0027 117.051 17.008C116.949 17.0133 116.835 17.0187 116.707 17.024C116.584 17.0293 116.475 17.0347 116.379 17.04Z" fill="#2D2727"/>
</svg>
