<svg width="146" height="47" viewBox="0 0 146 47" fill="none" xmlns="http://www.w3.org/2000/svg">
<path d="M0 0H143C144.657 0 146 1.34315 146 3V44C146 45.6569 144.657 47 143 47H0V0Z" fill="#D9D9D9" fill-opacity="0.9"/>
<path d="M18.649 37.055L18.594 36.362L19.958 36.109L19.32 36.615C19.3347 36.5197 19.353 36.3877 19.375 36.219C19.397 36.0503 19.4153 35.878 19.43 35.702C19.452 35.526 19.463 35.394 19.463 35.306V30.939C19.463 30.851 19.4557 30.741 19.441 30.609C19.4337 30.4697 19.419 30.3303 19.397 30.191C19.375 30.0443 19.3567 29.9197 19.342 29.817C19.3273 29.7143 19.32 29.6593 19.32 29.652L19.914 30.158L18.605 29.938L18.66 29.19C18.792 29.1973 18.9423 29.2047 19.111 29.212C19.2797 29.2193 19.441 29.2267 19.595 29.234C19.749 29.2413 19.8737 29.245 19.969 29.245C20.1523 29.245 20.3577 29.2413 20.585 29.234C20.8197 29.2193 21.0543 29.2083 21.289 29.201C21.5237 29.1937 21.7327 29.19 21.916 29.19C22.334 29.19 22.719 29.2633 23.071 29.41C23.423 29.5567 23.7053 29.7657 23.918 30.037C24.138 30.3083 24.248 30.6383 24.248 31.027C24.248 31.3937 24.1637 31.72 23.995 32.006C23.8263 32.292 23.5953 32.523 23.302 32.699C23.0087 32.8677 22.675 32.963 22.301 32.985L22.719 32.336V33.59L22.268 32.952C22.7227 32.9667 23.1223 33.0547 23.467 33.216C23.819 33.37 24.094 33.59 24.292 33.876C24.49 34.162 24.589 34.5177 24.589 34.943C24.589 35.405 24.4753 35.7937 24.248 36.109C24.0207 36.4243 23.72 36.6627 23.346 36.824C22.972 36.978 22.5577 37.055 22.103 37.055C21.8317 37.055 21.5237 37.044 21.179 37.022C20.8343 37.0073 20.5227 37 20.244 37C20.1413 37 19.991 37.0037 19.793 37.011C19.6023 37.0183 19.4007 37.0257 19.188 37.033C18.9827 37.0403 18.803 37.0477 18.649 37.055ZM21.047 36.527L20.64 36.153C20.8013 36.175 20.97 36.197 21.146 36.219C21.3293 36.2337 21.5237 36.241 21.729 36.241C22.1397 36.241 22.4697 36.1163 22.719 35.867C22.9757 35.6177 23.104 35.2657 23.104 34.811C23.104 34.4737 23.0307 34.2023 22.884 33.997C22.7447 33.7917 22.554 33.645 22.312 33.557C22.0773 33.4617 21.8133 33.414 21.52 33.414H21.41L21.487 32.567H21.553C21.9563 32.567 22.2717 32.4497 22.499 32.215C22.7337 31.973 22.851 31.643 22.851 31.225C22.851 30.851 22.7483 30.5503 22.543 30.323C22.3377 30.0957 22.0407 29.982 21.652 29.982C21.4833 29.982 21.3073 29.982 21.124 29.982C20.948 29.982 20.7793 29.9857 20.618 29.993L21.025 29.729C21.025 29.7803 21.0177 29.894 21.003 30.07C20.9883 30.246 20.97 30.444 20.948 30.664C20.9333 30.8767 20.926 31.0783 20.926 31.269V34.976C20.926 35.1447 20.9333 35.339 20.948 35.559C20.9627 35.7717 20.981 35.9697 21.003 36.153C21.025 36.3363 21.0397 36.461 21.047 36.527ZM28.1657 37.055C27.7331 37.055 27.3737 36.978 27.0877 36.824C26.8091 36.6627 26.6001 36.4317 26.4607 36.131C26.3214 35.8303 26.2517 35.4637 26.2517 35.031V33.381C26.2517 33.293 26.2407 33.1647 26.2187 32.996C26.1967 32.8273 26.1711 32.6477 26.1417 32.457C26.1197 32.2663 26.0977 32.0867 26.0757 31.918L26.7797 32.578L25.5257 32.358L25.6137 31.566H27.5937L27.8137 31.775C27.8064 31.973 27.7917 32.1967 27.7697 32.446C27.7551 32.6953 27.7404 32.9337 27.7257 33.161C27.7184 33.3883 27.7147 33.5717 27.7147 33.711V34.943C27.7147 35.2437 27.7771 35.4967 27.9017 35.702C28.0337 35.9 28.2501 35.999 28.5507 35.999C28.7487 35.999 28.9321 35.9403 29.1007 35.823C29.2694 35.6983 29.4051 35.5223 29.5077 35.295C29.6104 35.0603 29.6617 34.7817 29.6617 34.459V33.381C29.6617 33.3003 29.6544 33.1793 29.6397 33.018C29.6251 32.8493 29.6031 32.6733 29.5737 32.49C29.5517 32.2993 29.5297 32.127 29.5077 31.973L30.1897 32.589L28.7377 32.358L28.8257 31.566H31.0037L31.2347 31.775C31.2201 31.973 31.2017 32.1967 31.1797 32.446C31.1651 32.6953 31.1504 32.9337 31.1357 33.161C31.1284 33.3883 31.1247 33.5717 31.1247 33.711V34.91C31.1247 35.2327 31.1431 35.5553 31.1797 35.878C31.2164 36.1933 31.2494 36.5123 31.2787 36.835L30.5747 36.109L31.8947 36.241L31.8287 37H29.8817L29.7057 35.482L30.0247 35.746C29.8927 35.9953 29.7387 36.219 29.5627 36.417C29.3941 36.6077 29.1961 36.7617 28.9687 36.879C28.7487 36.9963 28.4811 37.055 28.1657 37.055ZM32.6969 37.055L32.6419 36.318L34.0279 36.065L33.3019 36.681C33.3239 36.5783 33.3459 36.4353 33.3679 36.252C33.3973 36.0613 33.4229 35.8743 33.4449 35.691C33.4669 35.5003 33.4779 35.35 33.4779 35.24V33.381C33.4779 33.2783 33.4669 33.128 33.4449 32.93C33.4229 32.7247 33.3936 32.523 33.3569 32.325C33.3276 32.127 33.3056 31.984 33.2909 31.896L34.0059 32.589L32.5429 32.358L32.6419 31.566H34.4019L34.6329 31.775L34.9079 33.722L34.3799 33.106C34.4679 32.9447 34.5669 32.7723 34.6769 32.589C34.7869 32.3983 34.9153 32.2187 35.0619 32.05C35.2159 31.874 35.3919 31.7347 35.5899 31.632C35.7953 31.522 36.0336 31.467 36.3049 31.467C36.4516 31.467 36.5983 31.478 36.7449 31.5C36.8989 31.522 37.0456 31.5477 37.1849 31.577L37.0309 33.733L36.2389 33.7V33.106C36.2389 33.084 36.2279 33.018 36.2059 32.908C36.1913 32.798 36.1729 32.6843 36.1509 32.567C36.1363 32.4497 36.1179 32.3653 36.0959 32.314L36.4589 32.567C36.4076 32.5523 36.3453 32.5413 36.2719 32.534C36.2059 32.5267 36.1399 32.523 36.0739 32.523C35.7806 32.523 35.5166 32.655 35.2819 32.919C35.0546 33.183 34.9409 33.5643 34.9409 34.063V34.91C34.9409 35.2767 34.9593 35.614 34.9959 35.922C35.0399 36.2227 35.0729 36.4573 35.0949 36.626L34.3799 36.109L35.9749 36.241L35.9199 37H34.0059C33.9619 37 33.8629 37.0037 33.7089 37.011C33.5549 37.0183 33.3826 37.0257 33.1919 37.033C33.0086 37.0403 32.8436 37.0477 32.6969 37.055ZM38.3975 39.585L37.8915 39.31C37.9795 39.0827 38.0712 38.837 38.1665 38.573C38.2619 38.3163 38.3499 38.0633 38.4305 37.814C38.5185 37.572 38.5882 37.3557 38.6395 37.165C38.6909 36.9817 38.7165 36.8497 38.7165 36.769C38.7165 36.659 38.7165 36.505 38.7165 36.307C38.7165 36.109 38.7165 35.911 38.7165 35.713V33.381C38.7165 33.2783 38.7055 33.128 38.6835 32.93C38.6615 32.732 38.6322 32.5303 38.5955 32.325C38.5662 32.1197 38.5405 31.9437 38.5185 31.797L39.2445 32.589L37.7815 32.358L37.8805 31.566H40.0585L40.2895 31.775C40.2749 31.9217 40.2565 32.116 40.2345 32.358C40.2199 32.5927 40.2052 32.8347 40.1905 33.084C40.1832 33.326 40.1795 33.535 40.1795 33.711V37.11C40.1795 37.1907 40.1209 37.3227 40.0035 37.506C39.8935 37.6893 39.7505 37.8983 39.5745 38.133C39.3985 38.375 39.2042 38.6207 38.9915 38.87C38.7862 39.1267 38.5882 39.365 38.3975 39.585ZM39.2335 30.653C39.0062 30.653 38.8302 30.576 38.7055 30.422C38.5809 30.2607 38.5185 30.07 38.5185 29.85C38.5185 29.6153 38.5809 29.421 38.7055 29.267C38.8302 29.113 39.0062 29.036 39.2335 29.036C39.4682 29.036 39.6479 29.1093 39.7725 29.256C39.9045 29.3953 39.9705 29.5933 39.9705 29.85C39.9705 30.0773 39.9045 30.268 39.7725 30.422C39.6479 30.576 39.4682 30.653 39.2335 30.653ZM43.165 37.11C42.6663 37.11 42.2703 36.9743 41.977 36.703C41.691 36.4243 41.548 36.0467 41.548 35.57C41.548 35.1667 41.6617 34.833 41.889 34.569C42.1237 34.305 42.494 34.1327 43 34.052L44.76 33.766V34.459L43.682 34.646C43.4693 34.6753 43.3153 34.7523 43.22 34.877C43.132 34.9943 43.088 35.1483 43.088 35.339C43.088 35.5663 43.1393 35.7387 43.242 35.856C43.3447 35.9733 43.5023 36.032 43.715 36.032C43.9277 36.032 44.111 35.9623 44.265 35.823C44.4263 35.6837 44.5327 35.4967 44.584 35.262V33.414C44.584 33.04 44.518 32.7723 44.386 32.611C44.2613 32.4423 44.045 32.358 43.737 32.358C43.605 32.358 43.4547 32.3763 43.286 32.413C43.1247 32.4497 42.9707 32.4937 42.824 32.545C42.6773 32.589 42.5637 32.6257 42.483 32.655L42.934 31.929L42.747 33.007L42.758 33.48L41.955 33.513L41.801 31.698C42.021 31.6393 42.252 31.5917 42.494 31.555C42.7433 31.511 42.9817 31.478 43.209 31.456C43.4363 31.4267 43.6343 31.412 43.803 31.412C44.5217 31.412 45.0753 31.5843 45.464 31.929C45.8527 32.2737 46.047 32.776 46.047 33.436V34.91C46.047 35.284 46.0653 35.6177 46.102 35.911C46.146 36.197 46.1827 36.4243 46.212 36.593L45.497 36.109L46.817 36.241L46.751 37H44.804L44.628 35.548L44.925 35.691C44.8297 36.0063 44.6977 36.2703 44.529 36.483C44.3677 36.6957 44.1733 36.8533 43.946 36.956C43.7187 37.0587 43.4583 37.11 43.165 37.11ZM49.9724 37.055C49.5397 37.055 49.1804 36.978 48.8944 36.824C48.6157 36.6627 48.4067 36.4317 48.2674 36.131C48.128 35.8303 48.0584 35.4637 48.0584 35.031V33.381C48.0584 33.293 48.0474 33.1647 48.0254 32.996C48.0034 32.8273 47.9777 32.6477 47.9484 32.457C47.9264 32.2663 47.9044 32.0867 47.8824 31.918L48.5864 32.578L47.3324 32.358L47.4204 31.566H49.4004L49.6204 31.775C49.613 31.973 49.5984 32.1967 49.5764 32.446C49.5617 32.6953 49.547 32.9337 49.5324 33.161C49.525 33.3883 49.5214 33.5717 49.5214 33.711V34.943C49.5214 35.2437 49.5837 35.4967 49.7084 35.702C49.8404 35.9 50.0567 35.999 50.3574 35.999C50.5554 35.999 50.7387 35.9403 50.9074 35.823C51.076 35.6983 51.2117 35.5223 51.3144 35.295C51.417 35.0603 51.4684 34.7817 51.4684 34.459V33.381C51.4684 33.3003 51.461 33.1793 51.4464 33.018C51.4317 32.8493 51.4097 32.6733 51.3804 32.49C51.3584 32.2993 51.3364 32.127 51.3144 31.973L51.9964 32.589L50.5444 32.358L50.6324 31.566H52.8104L53.0414 31.775C53.0267 31.973 53.0084 32.1967 52.9864 32.446C52.9717 32.6953 52.957 32.9337 52.9424 33.161C52.935 33.3883 52.9314 33.5717 52.9314 33.711V34.91C52.9314 35.2327 52.9497 35.5553 52.9864 35.878C53.023 36.1933 53.056 36.5123 53.0854 36.835L52.3814 36.109L53.7014 36.241L53.6354 37H51.6884L51.5124 35.482L51.8314 35.746C51.6994 35.9953 51.5454 36.219 51.3694 36.417C51.2007 36.6077 51.0027 36.7617 50.7754 36.879C50.5554 36.9963 50.2877 37.055 49.9724 37.055ZM56.5386 37.165C55.9886 37.165 55.5999 37.011 55.3726 36.703C55.1453 36.395 55.0316 35.9697 55.0316 35.427V31.709L55.6586 32.358H54.2396L54.2066 31.698C54.3386 31.6467 54.4889 31.588 54.6576 31.522C54.8336 31.456 55.0096 31.3863 55.1856 31.313C55.3616 31.2323 55.5083 31.159 55.6256 31.093L55.0976 31.577C55.1563 31.5037 55.2223 31.4083 55.2956 31.291C55.3689 31.1737 55.4423 31.0527 55.5156 30.928C55.5889 30.796 55.6586 30.675 55.7246 30.565C55.7906 30.4477 55.8419 30.356 55.8786 30.29L56.4836 30.334V35.46C56.4836 35.658 56.5276 35.823 56.6156 35.955C56.7109 36.087 56.8576 36.153 57.0556 36.153C57.1876 36.153 57.3123 36.131 57.4296 36.087C57.5543 36.0357 57.6789 35.9733 57.8036 35.9L58.1666 36.527C57.9173 36.703 57.6496 36.8533 57.3636 36.978C57.0849 37.1027 56.8099 37.165 56.5386 37.165ZM56.2746 32.358V31.566H57.8916L57.7926 32.358H56.2746ZM61.6231 37.154C61.0437 37.154 60.5524 37.0403 60.1491 36.813C59.7531 36.5857 59.4487 36.2593 59.2361 35.834C59.0307 35.4013 58.9281 34.8843 58.9281 34.283C58.9281 33.6817 59.0307 33.1683 59.2361 32.743C59.4487 32.3103 59.7531 31.984 60.1491 31.764C60.5524 31.5367 61.0437 31.423 61.6231 31.423C62.4884 31.423 63.1484 31.6723 63.6031 32.171C64.0651 32.6697 64.2961 33.3737 64.2961 34.283C64.2961 34.8843 64.1934 35.4013 63.9881 35.834C63.7827 36.2593 63.4821 36.5857 63.0861 36.813C62.6901 37.0403 62.2024 37.154 61.6231 37.154ZM61.6231 36.274C61.8724 36.274 62.0741 36.2007 62.2281 36.054C62.3894 35.9 62.5031 35.6763 62.5691 35.383C62.6424 35.0897 62.6791 34.723 62.6791 34.283C62.6791 33.843 62.6424 33.48 62.5691 33.194C62.5031 32.9007 62.3894 32.6807 62.2281 32.534C62.0741 32.38 61.8724 32.303 61.6231 32.303C61.3664 32.303 61.1611 32.38 61.0071 32.534C60.8531 32.6807 60.7394 32.9007 60.6661 33.194C60.5927 33.48 60.5561 33.843 60.5561 34.283C60.5561 34.723 60.5927 35.0897 60.6661 35.383C60.7394 35.6763 60.8531 35.9 61.0071 36.054C61.1611 36.2007 61.3664 36.274 61.6231 36.274Z" fill="black"/>
<path d="M18 20H66" stroke="#068486"/>
<path d="M18.48 17.04L18.44 16.592L19.392 16.408L19 16.768C19.0107 16.7093 19.024 16.6187 19.04 16.496C19.0613 16.3733 19.08 16.2507 19.096 16.128C19.112 16.0053 19.12 15.912 19.12 15.848V12.512C19.12 12.4587 19.112 12.3787 19.096 12.272C19.0853 12.1653 19.072 12.0507 19.056 11.928C19.04 11.8 19.0213 11.6853 19 11.584L19.392 11.952L18.456 11.792L18.496 11.32C18.592 11.3253 18.7013 11.3307 18.824 11.336C18.9467 11.3413 19.064 11.3467 19.176 11.352C19.288 11.3573 19.3707 11.36 19.424 11.36H21.272C21.32 11.36 21.3973 11.36 21.504 11.36C21.6107 11.3547 21.7253 11.3493 21.848 11.344C21.9707 11.3333 22.0827 11.3253 22.184 11.32L22.336 11.464L22.392 12.552L21.904 12.592L21.824 12.176C21.8187 12.128 21.784 12.048 21.72 11.936C21.656 11.824 21.5947 11.728 21.536 11.648L21.872 11.912C21.7813 11.9013 21.6587 11.8907 21.504 11.88C21.3493 11.8693 21.1947 11.864 21.04 11.864H19.696L20.056 11.656C20.0453 11.7787 20.032 11.912 20.016 12.056C20.0053 12.2 19.9947 12.336 19.984 12.464C19.9787 12.5867 19.976 12.6827 19.976 12.752V15.608C19.976 15.7307 19.9813 15.8693 19.992 16.024C20.0027 16.1787 20.016 16.3253 20.032 16.464C20.048 16.6027 20.0613 16.7093 20.072 16.784L19.744 16.48H21.144C21.3093 16.48 21.4693 16.4667 21.624 16.44C21.7787 16.4133 21.888 16.392 21.952 16.376L21.64 16.656C21.7147 16.5653 21.7867 16.4667 21.856 16.36C21.9253 16.248 21.968 16.1627 21.984 16.104L22.096 15.584L22.568 15.624L22.448 16.888L22.296 17.032C22.1947 17.0267 22.0827 17.0213 21.96 17.016C21.8427 17.0107 21.7307 17.0053 21.624 17C21.5227 17 21.4427 17 21.384 17H19.592C19.5227 17 19.424 17 19.296 17C19.168 17.0053 19.032 17.0107 18.888 17.016C18.744 17.0213 18.608 17.0293 18.48 17.04ZM21.36 14.912L21.248 14.096L21.576 14.416C21.5067 14.4053 21.416 14.3947 21.304 14.384C21.192 14.3733 21.0773 14.3627 20.96 14.352C20.848 14.3413 20.7547 14.336 20.68 14.336H19.696V13.84H20.84C20.9413 13.84 21.0613 13.8293 21.2 13.808C21.3387 13.7813 21.4373 13.7627 21.496 13.752L21.248 14.08L21.36 13.24L21.752 13.28V13.952C21.752 14.256 21.76 14.56 21.776 14.864L21.36 14.912ZM23.6861 15.264L23.6701 14.664H25.4461L25.4061 15.264H23.6861ZM28.2873 17.096C27.8713 17.096 27.5219 17.0133 27.2393 16.848C26.9566 16.6773 26.7433 16.4373 26.5993 16.128C26.4606 15.8133 26.3913 15.4453 26.3913 15.024C26.3913 14.608 26.4633 14.2453 26.6073 13.936C26.7566 13.6267 26.9699 13.3867 27.2473 13.216C27.5299 13.0453 27.8739 12.96 28.2793 12.96C28.5139 12.96 28.7299 12.984 28.9273 13.032C29.1299 13.08 29.3513 13.1387 29.5913 13.208L29.4953 14.352L28.9593 14.328V13.992C28.9593 13.9227 28.9459 13.8373 28.9193 13.736C28.8979 13.6293 28.8686 13.5307 28.8313 13.44L29.1753 13.808C29.0419 13.7227 28.9006 13.6453 28.7513 13.576C28.6019 13.5067 28.4526 13.472 28.3033 13.472C28.0739 13.472 27.8873 13.5413 27.7433 13.68C27.5993 13.8187 27.4926 14.0053 27.4233 14.24C27.3593 14.4693 27.3273 14.7307 27.3273 15.024C27.3273 15.3013 27.3619 15.5493 27.4313 15.768C27.5059 15.9867 27.6206 16.1627 27.7753 16.296C27.9299 16.424 28.1299 16.488 28.3753 16.488C28.5619 16.488 28.7406 16.464 28.9113 16.416C29.0819 16.3627 29.2553 16.2933 29.4313 16.208L29.6713 16.616C29.4579 16.776 29.2339 16.896 28.9993 16.976C28.7646 17.056 28.5273 17.096 28.2873 17.096ZM32.2402 17.096C31.8295 17.096 31.4829 17.0107 31.2002 16.84C30.9229 16.6693 30.7122 16.4293 30.5682 16.12C30.4242 15.8107 30.3522 15.448 30.3522 15.032C30.3522 14.6107 30.4242 14.2453 30.5682 13.936C30.7122 13.6267 30.9229 13.3867 31.2002 13.216C31.4829 13.0453 31.8295 12.96 32.2402 12.96C32.8589 12.96 33.3255 13.1467 33.6402 13.52C33.9602 13.888 34.1202 14.392 34.1202 15.032C34.1202 15.448 34.0482 15.8107 33.9042 16.12C33.7655 16.4293 33.5549 16.6693 33.2722 16.84C32.9949 17.0107 32.6509 17.096 32.2402 17.096ZM32.2402 16.568C32.4802 16.568 32.6695 16.5013 32.8082 16.368C32.9522 16.2293 33.0535 16.0453 33.1122 15.816C33.1762 15.5813 33.2082 15.32 33.2082 15.032C33.2082 14.7387 33.1762 14.4773 33.1122 14.248C33.0535 14.0133 32.9522 13.8293 32.8082 13.696C32.6695 13.5573 32.4802 13.488 32.2402 13.488C32.0002 13.488 31.8082 13.5573 31.6642 13.696C31.5255 13.8293 31.4242 14.0107 31.3602 14.24C31.3015 14.4693 31.2722 14.7333 31.2722 15.032C31.2722 15.32 31.3015 15.5813 31.3602 15.816C31.4242 16.0453 31.5255 16.2293 31.6642 16.368C31.8082 16.5013 32.0002 16.568 32.2402 16.568ZM39.6684 17.04L39.6284 16.584L40.4924 16.392L40.1084 16.68C40.1244 16.6053 40.1377 16.512 40.1484 16.4C40.159 16.288 40.1697 16.1787 40.1804 16.072C40.191 15.9653 40.1964 15.8853 40.1964 15.832V14.68C40.1964 14.4827 40.1777 14.2987 40.1404 14.128C40.1084 13.9573 40.0444 13.8213 39.9484 13.72C39.8524 13.6133 39.7164 13.56 39.5404 13.56C39.2844 13.56 39.071 13.6747 38.9004 13.904C38.735 14.1333 38.647 14.4373 38.6364 14.816L38.3724 14.048C38.5004 13.7067 38.6844 13.44 38.9244 13.248C39.1644 13.056 39.4444 12.96 39.7644 12.96C40.079 12.96 40.327 13.0293 40.5084 13.168C40.6897 13.3013 40.8177 13.4933 40.8924 13.744C40.9724 13.9893 41.0124 14.2853 41.0124 14.632V15.592C41.0124 15.7253 41.0177 15.8667 41.0284 16.016C41.039 16.1653 41.0524 16.2987 41.0684 16.416C41.0844 16.5333 41.095 16.6133 41.1004 16.656L40.7084 16.432L41.6604 16.52L41.6124 17H40.5324C40.5057 17 40.4417 17.0027 40.3404 17.008C40.239 17.0133 40.1244 17.0187 39.9964 17.024C39.8737 17.0293 39.7644 17.0347 39.6684 17.04ZM34.8364 17.04L34.7964 16.584L35.7404 16.4L35.3244 16.768C35.3404 16.7093 35.3564 16.6213 35.3724 16.504C35.3937 16.3813 35.4124 16.256 35.4284 16.128C35.4444 16 35.4524 15.9013 35.4524 15.832V14.256C35.4524 14.1813 35.4444 14.0773 35.4284 13.944C35.4124 13.8107 35.3937 13.68 35.3724 13.552C35.351 13.4187 35.335 13.3227 35.3244 13.264L35.7324 13.696L34.7724 13.536L34.8204 13.048H35.9484L36.1084 13.192L36.2764 14.576V15.592C36.2764 15.8267 36.287 16.0533 36.3084 16.272C36.3297 16.4907 36.3484 16.656 36.3644 16.768L35.9644 16.432L36.9164 16.52L36.8684 17H35.7484C35.7057 17 35.631 17.0027 35.5244 17.008C35.4177 17.0133 35.3004 17.0187 35.1724 17.024C35.0497 17.0293 34.9377 17.0347 34.8364 17.04ZM37.3004 17.04L37.2604 16.584L38.1164 16.392L37.7404 16.68C37.751 16.6053 37.7617 16.512 37.7724 16.4C37.7884 16.288 37.8017 16.1787 37.8124 16.072C37.823 15.9653 37.8284 15.8853 37.8284 15.832V14.68C37.8284 14.4827 37.8097 14.2987 37.7724 14.128C37.735 13.9573 37.6684 13.8213 37.5724 13.72C37.4817 13.6133 37.3484 13.56 37.1724 13.56C36.9164 13.56 36.703 13.6773 36.5324 13.912C36.3617 14.1467 36.2764 14.4533 36.2764 14.832L35.9964 14.064C36.0817 13.84 36.191 13.6453 36.3244 13.48C36.463 13.3147 36.6204 13.1867 36.7964 13.096C36.9777 13.0053 37.175 12.96 37.3884 12.96C37.7084 12.96 37.959 13.0293 38.1404 13.168C38.3217 13.3013 38.4497 13.4933 38.5244 13.744C38.599 13.9893 38.6364 14.2853 38.6364 14.632V15.592C38.6364 15.7253 38.6417 15.8667 38.6524 16.016C38.6684 16.1653 38.6817 16.2987 38.6924 16.416C38.7084 16.5333 38.719 16.6133 38.7244 16.656L38.3404 16.432L39.2924 16.52L39.2444 17H38.1644C38.1377 17 38.0737 17.0027 37.9724 17.008C37.871 17.0133 37.7564 17.0187 37.6284 17.024C37.5057 17.0293 37.3964 17.0347 37.3004 17.04ZM47.0199 17.04L46.9799 16.584L47.8439 16.392L47.4599 16.68C47.4759 16.6053 47.4893 16.512 47.4999 16.4C47.5106 16.288 47.5213 16.1787 47.5319 16.072C47.5426 15.9653 47.5479 15.8853 47.5479 15.832V14.68C47.5479 14.4827 47.5293 14.2987 47.4919 14.128C47.4599 13.9573 47.3959 13.8213 47.2999 13.72C47.2039 13.6133 47.0679 13.56 46.8919 13.56C46.6359 13.56 46.4226 13.6747 46.2519 13.904C46.0866 14.1333 45.9986 14.4373 45.9879 14.816L45.7239 14.048C45.8519 13.7067 46.0359 13.44 46.2759 13.248C46.5159 13.056 46.7959 12.96 47.1159 12.96C47.4306 12.96 47.6786 13.0293 47.8599 13.168C48.0413 13.3013 48.1693 13.4933 48.2439 13.744C48.3239 13.9893 48.3639 14.2853 48.3639 14.632V15.592C48.3639 15.7253 48.3693 15.8667 48.3799 16.016C48.3906 16.1653 48.4039 16.2987 48.4199 16.416C48.4359 16.5333 48.4466 16.6133 48.4519 16.656L48.0599 16.432L49.0119 16.52L48.9639 17H47.8839C47.8573 17 47.7933 17.0027 47.6919 17.008C47.5906 17.0133 47.4759 17.0187 47.3479 17.024C47.2253 17.0293 47.1159 17.0347 47.0199 17.04ZM42.1879 17.04L42.1479 16.584L43.0919 16.4L42.6759 16.768C42.6919 16.7093 42.7079 16.6213 42.7239 16.504C42.7453 16.3813 42.7639 16.256 42.7799 16.128C42.7959 16 42.8039 15.9013 42.8039 15.832V14.256C42.8039 14.1813 42.7959 14.0773 42.7799 13.944C42.7639 13.8107 42.7453 13.68 42.7239 13.552C42.7026 13.4187 42.6866 13.3227 42.6759 13.264L43.0839 13.696L42.1239 13.536L42.1719 13.048H43.2999L43.4599 13.192L43.6279 14.576V15.592C43.6279 15.8267 43.6386 16.0533 43.6599 16.272C43.6813 16.4907 43.6999 16.656 43.7159 16.768L43.3159 16.432L44.2679 16.52L44.2199 17H43.0999C43.0573 17 42.9826 17.0027 42.8759 17.008C42.7693 17.0133 42.6519 17.0187 42.5239 17.024C42.4013 17.0293 42.2893 17.0347 42.1879 17.04ZM44.6519 17.04L44.6119 16.584L45.4679 16.392L45.0919 16.68C45.1026 16.6053 45.1133 16.512 45.1239 16.4C45.1399 16.288 45.1533 16.1787 45.1639 16.072C45.1746 15.9653 45.1799 15.8853 45.1799 15.832V14.68C45.1799 14.4827 45.1613 14.2987 45.1239 14.128C45.0866 13.9573 45.0199 13.8213 44.9239 13.72C44.8333 13.6133 44.6999 13.56 44.5239 13.56C44.2679 13.56 44.0546 13.6773 43.8839 13.912C43.7133 14.1467 43.6279 14.4533 43.6279 14.832L43.3479 14.064C43.4333 13.84 43.5426 13.6453 43.6759 13.48C43.8146 13.3147 43.9719 13.1867 44.1479 13.096C44.3293 13.0053 44.5266 12.96 44.7399 12.96C45.0599 12.96 45.3106 13.0293 45.4919 13.168C45.6733 13.3013 45.8013 13.4933 45.8759 13.744C45.9506 13.9893 45.9879 14.2853 45.9879 14.632V15.592C45.9879 15.7253 45.9933 15.8667 46.0039 16.016C46.0199 16.1653 46.0333 16.2987 46.0439 16.416C46.0599 16.5333 46.0706 16.6133 46.0759 16.656L45.6919 16.432L46.6439 16.52L46.5959 17H45.5159C45.4893 17 45.4253 17.0027 45.3239 17.008C45.2226 17.0133 45.1079 17.0187 44.9799 17.024C44.8573 17.0293 44.7479 17.0347 44.6519 17.04ZM51.4275 17.096C51.0275 17.096 50.6862 17.0107 50.4035 16.84C50.1262 16.6693 49.9128 16.4293 49.7635 16.12C49.6195 15.8107 49.5475 15.4507 49.5475 15.04C49.5475 14.6187 49.6168 14.2533 49.7555 13.944C49.8995 13.6347 50.1048 13.3947 50.3715 13.224C50.6382 13.048 50.9662 12.96 51.3555 12.96C51.7288 12.96 52.0328 13.04 52.2675 13.2C52.5022 13.3547 52.6728 13.5733 52.7795 13.856C52.8915 14.1387 52.9422 14.4747 52.9315 14.864L52.7875 15.144H50.3395V14.688L52.3875 14.552L51.9955 14.936C52.0008 14.8507 52.0062 14.768 52.0115 14.688C52.0222 14.6027 52.0275 14.5173 52.0275 14.432C52.0275 14.1387 51.9688 13.9013 51.8515 13.72C51.7342 13.5387 51.5528 13.448 51.3075 13.448C51.1422 13.448 51.0035 13.4907 50.8915 13.576C50.7795 13.6613 50.6942 13.7787 50.6355 13.928C50.5768 14.0773 50.5342 14.2427 50.5075 14.424C50.4862 14.6053 50.4755 14.792 50.4755 14.984C50.4755 15.1973 50.4942 15.3947 50.5315 15.576C50.5742 15.7573 50.6382 15.9173 50.7235 16.056C50.8142 16.1947 50.9235 16.304 51.0515 16.384C51.1848 16.4587 51.3448 16.496 51.5315 16.496C51.7662 16.496 51.9848 16.4613 52.1875 16.392C52.3955 16.3173 52.5528 16.248 52.6595 16.184L52.8915 16.584C52.8595 16.616 52.8035 16.6587 52.7235 16.712C52.6435 16.7653 52.5395 16.824 52.4115 16.888C52.2888 16.9467 52.1448 16.9947 51.9795 17.032C51.8195 17.0747 51.6355 17.096 51.4275 17.096ZM53.6411 17.04L53.6011 16.584L54.5451 16.4L54.1291 16.768C54.1451 16.7093 54.1611 16.6213 54.1771 16.504C54.1984 16.3813 54.2171 16.256 54.2331 16.128C54.2491 16 54.2571 15.9013 54.2571 15.832V14.256C54.2571 14.1813 54.2491 14.0773 54.2331 13.944C54.2171 13.8107 54.1984 13.68 54.1771 13.552C54.1557 13.4187 54.1397 13.3227 54.1291 13.264L54.5371 13.696L53.5771 13.536L53.6251 13.048H54.7531L54.9131 13.192L55.0651 14.496L54.7611 14.152C54.8197 14.0187 54.8864 13.8853 54.9611 13.752C55.0411 13.6133 55.1344 13.4853 55.2411 13.368C55.3531 13.2507 55.4864 13.1573 55.6411 13.088C55.8011 13.0133 55.9877 12.976 56.2011 12.976C56.2971 12.976 56.3931 12.984 56.4891 13C56.5904 13.0107 56.6891 13.0293 56.7851 13.056L56.6891 14.472L56.1771 14.448V14.024C56.1771 14.0027 56.1691 13.9547 56.1531 13.88C56.1371 13.8 56.1157 13.7173 56.0891 13.632C56.0677 13.5467 56.0491 13.48 56.0331 13.432L56.3531 13.624C56.3051 13.624 56.2544 13.624 56.2011 13.624C56.1477 13.6187 56.0971 13.616 56.0491 13.616C55.7397 13.616 55.4997 13.7227 55.3291 13.936C55.1637 14.144 55.0811 14.4347 55.0811 14.808V15.592C55.0811 15.8267 55.0917 16.0533 55.1131 16.272C55.1344 16.4907 55.1531 16.656 55.1691 16.768L54.7691 16.432L55.8811 16.52L55.8331 17H54.5531C54.5104 17 54.4357 17.0027 54.3291 17.008C54.2224 17.0133 54.1051 17.0187 53.9771 17.024C53.8544 17.0293 53.7424 17.0347 53.6411 17.04ZM59.3107 17.096C58.8947 17.096 58.5454 17.0133 58.2627 16.848C57.98 16.6773 57.7667 16.4373 57.6227 16.128C57.484 15.8133 57.4147 15.4453 57.4147 15.024C57.4147 14.608 57.4867 14.2453 57.6307 13.936C57.78 13.6267 57.9934 13.3867 58.2707 13.216C58.5534 13.0453 58.8974 12.96 59.3027 12.96C59.5374 12.96 59.7534 12.984 59.9507 13.032C60.1534 13.08 60.3747 13.1387 60.6147 13.208L60.5187 14.352L59.9827 14.328V13.992C59.9827 13.9227 59.9694 13.8373 59.9427 13.736C59.9214 13.6293 59.892 13.5307 59.8547 13.44L60.1987 13.808C60.0654 13.7227 59.924 13.6453 59.7747 13.576C59.6254 13.5067 59.476 13.472 59.3267 13.472C59.0974 13.472 58.9107 13.5413 58.7667 13.68C58.6227 13.8187 58.516 14.0053 58.4467 14.24C58.3827 14.4693 58.3507 14.7307 58.3507 15.024C58.3507 15.3013 58.3854 15.5493 58.4547 15.768C58.5294 15.9867 58.644 16.1627 58.7987 16.296C58.9534 16.424 59.1534 16.488 59.3987 16.488C59.5854 16.488 59.764 16.464 59.9347 16.416C60.1054 16.3627 60.2787 16.2933 60.4547 16.208L60.6947 16.616C60.4814 16.776 60.2574 16.896 60.0227 16.976C59.788 17.056 59.5507 17.096 59.3107 17.096ZM63.2556 17.096C62.8556 17.096 62.5143 17.0107 62.2316 16.84C61.9543 16.6693 61.741 16.4293 61.5916 16.12C61.4476 15.8107 61.3756 15.4507 61.3756 15.04C61.3756 14.6187 61.445 14.2533 61.5836 13.944C61.7276 13.6347 61.933 13.3947 62.1996 13.224C62.4663 13.048 62.7943 12.96 63.1836 12.96C63.557 12.96 63.861 13.04 64.0956 13.2C64.3303 13.3547 64.501 13.5733 64.6076 13.856C64.7196 14.1387 64.7703 14.4747 64.7596 14.864L64.6156 15.144H62.1676V14.688L64.2156 14.552L63.8236 14.936C63.829 14.8507 63.8343 14.768 63.8396 14.688C63.8503 14.6027 63.8556 14.5173 63.8556 14.432C63.8556 14.1387 63.797 13.9013 63.6796 13.72C63.5623 13.5387 63.381 13.448 63.1356 13.448C62.9703 13.448 62.8316 13.4907 62.7196 13.576C62.6076 13.6613 62.5223 13.7787 62.4636 13.928C62.405 14.0773 62.3623 14.2427 62.3356 14.424C62.3143 14.6053 62.3036 14.792 62.3036 14.984C62.3036 15.1973 62.3223 15.3947 62.3596 15.576C62.4023 15.7573 62.4663 15.9173 62.5516 16.056C62.6423 16.1947 62.7516 16.304 62.8796 16.384C63.013 16.4587 63.173 16.496 63.3596 16.496C63.5943 16.496 63.813 16.4613 64.0156 16.392C64.2236 16.3173 64.381 16.248 64.4876 16.184L64.7196 16.584C64.6876 16.616 64.6316 16.6587 64.5516 16.712C64.4716 16.7653 64.3676 16.824 64.2396 16.888C64.117 16.9467 63.973 16.9947 63.8076 17.032C63.6476 17.0747 63.4636 17.096 63.2556 17.096Z" fill="#2D2727"/>
</svg>
