<svg width="146" height="47" viewBox="0 0 146 47" fill="none" xmlns="http://www.w3.org/2000/svg">
<path d="M0 0H143C144.657 0 146 1.34315 146 3V44C146 45.6569 144.657 47 143 47H0V0Z" fill="#D9D9D9" fill-opacity="0.9"/>
<path d="M21.289 37.165C20.7463 37.165 20.2477 37.1063 19.793 36.989C19.3383 36.8643 18.9973 36.7433 18.77 36.626L18.935 34.635L19.782 34.701L19.793 35.383C19.793 35.4197 19.8077 35.493 19.837 35.603C19.8737 35.7057 19.914 35.8193 19.958 35.944C20.002 36.0613 20.0387 36.1677 20.068 36.263C20.1047 36.3583 20.1267 36.4207 20.134 36.45L19.441 35.713C19.6683 35.823 19.9287 35.9403 20.222 36.065C20.5227 36.1823 20.849 36.241 21.201 36.241C21.5603 36.241 21.8573 36.1493 22.092 35.966C22.334 35.7827 22.455 35.515 22.455 35.163C22.455 34.877 22.367 34.6423 22.191 34.459C22.015 34.2683 21.7913 34.0997 21.52 33.953C21.256 33.8063 20.97 33.6597 20.662 33.513C20.354 33.3663 20.0643 33.194 19.793 32.996C19.529 32.798 19.309 32.556 19.133 32.27C18.957 31.984 18.869 31.632 18.869 31.214C18.869 30.7667 18.979 30.3853 19.199 30.07C19.419 29.7473 19.716 29.5017 20.09 29.333C20.4713 29.1643 20.904 29.08 21.388 29.08C21.7547 29.08 22.1433 29.1167 22.554 29.19C22.972 29.2633 23.368 29.355 23.742 29.465L23.588 31.423L22.807 31.368L22.785 30.763C22.785 30.7263 22.7667 30.6493 22.73 30.532C22.7007 30.4147 22.6603 30.2827 22.609 30.136C22.565 29.9893 22.5173 29.8573 22.466 29.74L23.236 30.466C23.0087 30.3487 22.752 30.235 22.466 30.125C22.18 30.0077 21.8903 29.949 21.597 29.949C21.2597 29.949 20.981 30.0407 20.761 30.224C20.5483 30.4 20.442 30.6457 20.442 30.961C20.442 31.225 20.5263 31.4487 20.695 31.632C20.871 31.808 21.0947 31.9657 21.366 32.105C21.6447 32.2443 21.9343 32.391 22.235 32.545C22.543 32.6917 22.8327 32.864 23.104 33.062C23.3827 33.2527 23.6063 33.491 23.775 33.777C23.951 34.063 24.039 34.415 24.039 34.833C24.039 35.3317 23.9143 35.757 23.665 36.109C23.423 36.4537 23.093 36.7177 22.675 36.901C22.2643 37.077 21.8023 37.165 21.289 37.165ZM31.9511 37.055L31.8961 36.318L33.1721 36.043L32.5011 36.494C32.5231 36.3693 32.5378 36.219 32.5451 36.043C32.5598 35.8597 32.5708 35.691 32.5781 35.537C32.5854 35.383 32.5891 35.284 32.5891 35.24V33.568C32.5891 33.3627 32.5634 33.1757 32.5121 33.007C32.4681 32.8383 32.3911 32.7063 32.2811 32.611C32.1711 32.5083 32.0208 32.457 31.8301 32.457C31.5588 32.457 31.3168 32.5927 31.1041 32.864C30.8914 33.128 30.7851 33.513 30.7851 34.019L30.3011 32.952C30.5284 32.49 30.7998 32.1197 31.1151 31.841C31.4304 31.555 31.8264 31.412 32.3031 31.412C32.6991 31.412 33.0254 31.4927 33.2821 31.654C33.5388 31.808 33.7294 32.0353 33.8541 32.336C33.9861 32.6293 34.0521 32.996 34.0521 33.436V34.91C34.0521 35.0933 34.0594 35.2987 34.0741 35.526C34.0961 35.7533 34.1181 35.9587 34.1401 36.142C34.1621 36.3253 34.1768 36.4427 34.1841 36.494L33.4911 36.109L34.8771 36.241L34.8221 37H33.2491C33.2124 37 33.1171 37.0037 32.9631 37.011C32.8091 37.0183 32.6368 37.0257 32.4461 37.033C32.2628 37.0403 32.0978 37.0477 31.9511 37.055ZM25.2741 37.055L25.2191 36.318L26.6051 36.065L25.8791 36.681C25.9011 36.5783 25.9231 36.4353 25.9451 36.252C25.9744 36.0613 26.0001 35.8743 26.0221 35.691C26.0441 35.5003 26.0551 35.35 26.0551 35.24V33.381C26.0551 33.2783 26.0441 33.128 26.0221 32.93C26.0001 32.7247 25.9708 32.523 25.9341 32.325C25.9048 32.127 25.8828 31.984 25.8681 31.896L26.5831 32.589L25.1201 32.358L25.2191 31.566H26.9791L27.2101 31.775L27.5181 34.008V34.91C27.5181 35.2767 27.5364 35.614 27.5731 35.922C27.6171 36.2227 27.6501 36.4573 27.6721 36.626L26.9571 36.109L28.3431 36.241L28.2881 37H26.5831C26.5391 37 26.4401 37.0037 26.2861 37.011C26.1321 37.0183 25.9598 37.0257 25.7691 37.033C25.5858 37.0403 25.4208 37.0477 25.2741 37.055ZM28.6841 37.055L28.6291 36.318L29.9051 36.043L29.2451 36.494C29.2598 36.3693 29.2708 36.219 29.2781 36.043C29.2928 35.8597 29.3038 35.691 29.3111 35.537C29.3184 35.383 29.3221 35.284 29.3221 35.24V33.568C29.3221 33.3627 29.2964 33.1757 29.2451 33.007C29.2011 32.8383 29.1241 32.7063 29.0141 32.611C28.9041 32.5083 28.7538 32.457 28.5631 32.457C28.2991 32.457 28.0571 32.6 27.8371 32.886C27.6244 33.172 27.5181 33.568 27.5181 34.074L27.0341 33.007C27.1808 32.7063 27.3458 32.435 27.5291 32.193C27.7198 31.951 27.9398 31.7603 28.1891 31.621C28.4384 31.4817 28.7244 31.412 29.0471 31.412C29.4358 31.412 29.7584 31.4927 30.0151 31.654C30.2718 31.808 30.4624 32.0353 30.5871 32.336C30.7191 32.6293 30.7851 32.996 30.7851 33.436V34.91C30.7851 35.0933 30.7924 35.2987 30.8071 35.526C30.8291 35.7533 30.8511 35.9587 30.8731 36.142C30.8951 36.3253 30.9098 36.4427 30.9171 36.494L30.2241 36.109L31.6101 36.241L31.5551 37H29.9821C29.9454 37 29.8501 37.0037 29.6961 37.011C29.5494 37.0183 29.3808 37.0257 29.1901 37.033C28.9994 37.0403 28.8308 37.0477 28.6841 37.055ZM37.2353 37.11C36.7366 37.11 36.3406 36.9743 36.0473 36.703C35.7613 36.4243 35.6183 36.0467 35.6183 35.57C35.6183 35.1667 35.732 34.833 35.9593 34.569C36.194 34.305 36.5643 34.1327 37.0703 34.052L38.8303 33.766V34.459L37.7523 34.646C37.5396 34.6753 37.3856 34.7523 37.2903 34.877C37.2023 34.9943 37.1583 35.1483 37.1583 35.339C37.1583 35.5663 37.2096 35.7387 37.3123 35.856C37.415 35.9733 37.5726 36.032 37.7853 36.032C37.998 36.032 38.1813 35.9623 38.3353 35.823C38.4966 35.6837 38.603 35.4967 38.6543 35.262V33.414C38.6543 33.04 38.5883 32.7723 38.4563 32.611C38.3316 32.4423 38.1153 32.358 37.8073 32.358C37.6753 32.358 37.525 32.3763 37.3563 32.413C37.195 32.4497 37.041 32.4937 36.8943 32.545C36.7476 32.589 36.634 32.6257 36.5533 32.655L37.0043 31.929L36.8173 33.007L36.8283 33.48L36.0253 33.513L35.8713 31.698C36.0913 31.6393 36.3223 31.5917 36.5643 31.555C36.8136 31.511 37.052 31.478 37.2793 31.456C37.5066 31.4267 37.7046 31.412 37.8733 31.412C38.592 31.412 39.1456 31.5843 39.5343 31.929C39.923 32.2737 40.1173 32.776 40.1173 33.436V34.91C40.1173 35.284 40.1356 35.6177 40.1723 35.911C40.2163 36.197 40.253 36.4243 40.2823 36.593L39.5673 36.109L40.8873 36.241L40.8213 37H38.8743L38.6983 35.548L38.9953 35.691C38.9 36.0063 38.768 36.2703 38.5993 36.483C38.438 36.6957 38.2436 36.8533 38.0163 36.956C37.789 37.0587 37.5286 37.11 37.2353 37.11ZM41.6667 37.055L41.6117 36.318L42.9977 36.065L42.2717 36.681C42.2937 36.5783 42.3157 36.4353 42.3377 36.252C42.367 36.0613 42.3927 35.8743 42.4147 35.691C42.4367 35.5003 42.4477 35.35 42.4477 35.24V33.381C42.4477 33.2783 42.4367 33.128 42.4147 32.93C42.3927 32.7247 42.3633 32.523 42.3267 32.325C42.2973 32.127 42.2753 31.984 42.2607 31.896L42.9757 32.589L41.5127 32.358L41.6117 31.566H43.3717L43.6027 31.775L43.8777 33.722L43.3497 33.106C43.4377 32.9447 43.5367 32.7723 43.6467 32.589C43.7567 32.3983 43.885 32.2187 44.0317 32.05C44.1857 31.874 44.3617 31.7347 44.5597 31.632C44.765 31.522 45.0033 31.467 45.2747 31.467C45.4213 31.467 45.568 31.478 45.7147 31.5C45.8687 31.522 46.0153 31.5477 46.1547 31.577L46.0007 33.733L45.2087 33.7V33.106C45.2087 33.084 45.1977 33.018 45.1757 32.908C45.161 32.798 45.1427 32.6843 45.1207 32.567C45.106 32.4497 45.0877 32.3653 45.0657 32.314L45.4287 32.567C45.3773 32.5523 45.315 32.5413 45.2417 32.534C45.1757 32.5267 45.1097 32.523 45.0437 32.523C44.7503 32.523 44.4863 32.655 44.2517 32.919C44.0243 33.183 43.9107 33.5643 43.9107 34.063V34.91C43.9107 35.2767 43.929 35.614 43.9657 35.922C44.0097 36.2227 44.0427 36.4573 44.0647 36.626L43.3497 36.109L44.9447 36.241L44.8897 37H42.9757C42.9317 37 42.8327 37.0037 42.6787 37.011C42.5247 37.0183 42.3523 37.0257 42.1617 37.033C41.9783 37.0403 41.8133 37.0477 41.6667 37.055ZM49.0943 37.165C48.5443 37.165 48.1556 37.011 47.9283 36.703C47.7009 36.395 47.5873 35.9697 47.5873 35.427V31.709L48.2143 32.358H46.7953L46.7623 31.698C46.8943 31.6467 47.0446 31.588 47.2133 31.522C47.3893 31.456 47.5653 31.3863 47.7413 31.313C47.9173 31.2323 48.0639 31.159 48.1813 31.093L47.6533 31.577C47.7119 31.5037 47.7779 31.4083 47.8513 31.291C47.9246 31.1737 47.9979 31.0527 48.0713 30.928C48.1446 30.796 48.2143 30.675 48.2803 30.565C48.3463 30.4477 48.3976 30.356 48.4343 30.29L49.0393 30.334V35.46C49.0393 35.658 49.0833 35.823 49.1713 35.955C49.2666 36.087 49.4133 36.153 49.6113 36.153C49.7433 36.153 49.8679 36.131 49.9853 36.087C50.1099 36.0357 50.2346 35.9733 50.3593 35.9L50.7223 36.527C50.4729 36.703 50.2053 36.8533 49.9193 36.978C49.6406 37.1027 49.3656 37.165 49.0943 37.165ZM48.8303 32.358V31.566H50.4473L50.3483 32.358H48.8303ZM53.7437 37.055L53.6887 36.362L55.0527 36.109L54.3927 36.67C54.4147 36.5307 54.4367 36.373 54.4587 36.197C54.4881 36.021 54.5101 35.8523 54.5247 35.691C54.5467 35.5223 54.5577 35.394 54.5577 35.306V30.939C54.5577 30.8363 54.5467 30.697 54.5247 30.521C54.5101 30.3377 54.4881 30.158 54.4587 29.982C54.4367 29.806 54.4184 29.6667 54.4037 29.564L55.0527 30.169L53.6997 29.938L53.7547 29.19C53.8867 29.1973 54.0334 29.2047 54.1947 29.212C54.3634 29.2193 54.5247 29.2267 54.6787 29.234C54.8401 29.2413 54.9684 29.245 55.0637 29.245C55.2617 29.245 55.4781 29.2413 55.7127 29.234C55.9474 29.2193 56.1784 29.2083 56.4057 29.201C56.6404 29.1937 56.8604 29.19 57.0657 29.19C57.9091 29.19 58.6131 29.3587 59.1777 29.696C59.7497 30.026 60.1824 30.488 60.4757 31.082C60.7691 31.6687 60.9157 32.3507 60.9157 33.128C60.9157 33.898 60.7691 34.58 60.4757 35.174C60.1824 35.7607 59.7461 36.2227 59.1667 36.56C58.5947 36.89 57.8944 37.055 57.0657 37.055C56.7944 37.055 56.5084 37.044 56.2077 37.022C55.9071 37.0073 55.6174 37 55.3387 37C55.2361 37 55.0931 37.0037 54.9097 37.011C54.7264 37.0183 54.5284 37.0257 54.3157 37.033C54.1104 37.0403 53.9197 37.0477 53.7437 37.055ZM56.1197 36.615L55.7677 36.197C55.9071 36.197 56.0831 36.2043 56.2957 36.219C56.5157 36.2263 56.7394 36.23 56.9667 36.23C57.5314 36.23 57.9861 36.0907 58.3307 35.812C58.6827 35.5333 58.9394 35.1593 59.1007 34.69C59.2621 34.2133 59.3427 33.6853 59.3427 33.106C59.3427 32.5487 59.2621 32.0353 59.1007 31.566C58.9394 31.0967 58.6827 30.7227 58.3307 30.444C57.9861 30.158 57.5351 30.015 56.9777 30.015C56.7724 30.015 56.5524 30.0187 56.3177 30.026C56.0831 30.0333 55.9107 30.037 55.8007 30.037L56.1197 29.608C56.1197 29.6373 56.1124 29.7143 56.0977 29.839C56.0904 29.9563 56.0794 30.0993 56.0647 30.268C56.0501 30.4367 56.0391 30.6127 56.0317 30.796C56.0244 30.9793 56.0207 31.137 56.0207 31.269V34.976C56.0207 35.152 56.0281 35.3573 56.0427 35.592C56.0574 35.8193 56.0721 36.032 56.0867 36.23C56.1087 36.4207 56.1197 36.549 56.1197 36.615ZM64.792 37.154C64.2127 37.154 63.7214 37.0403 63.318 36.813C62.922 36.5857 62.6177 36.2593 62.405 35.834C62.1997 35.4013 62.097 34.8843 62.097 34.283C62.097 33.6817 62.1997 33.1683 62.405 32.743C62.6177 32.3103 62.922 31.984 63.318 31.764C63.7214 31.5367 64.2127 31.423 64.792 31.423C65.6574 31.423 66.3174 31.6723 66.772 32.171C67.234 32.6697 67.465 33.3737 67.465 34.283C67.465 34.8843 67.3624 35.4013 67.157 35.834C66.9517 36.2593 66.651 36.5857 66.255 36.813C65.859 37.0403 65.3714 37.154 64.792 37.154ZM64.792 36.274C65.0414 36.274 65.243 36.2007 65.397 36.054C65.5584 35.9 65.672 35.6763 65.738 35.383C65.8114 35.0897 65.848 34.723 65.848 34.283C65.848 33.843 65.8114 33.48 65.738 33.194C65.672 32.9007 65.5584 32.6807 65.397 32.534C65.243 32.38 65.0414 32.303 64.792 32.303C64.5354 32.303 64.33 32.38 64.176 32.534C64.022 32.6807 63.9084 32.9007 63.835 33.194C63.7617 33.48 63.725 33.843 63.725 34.283C63.725 34.723 63.7617 35.0897 63.835 35.383C63.9084 35.6763 64.022 35.9 64.176 36.054C64.33 36.2007 64.5354 36.274 64.792 36.274ZM68.4792 37.055L68.4242 36.318L69.8102 36.065L69.0842 36.681C69.1062 36.5783 69.1282 36.4353 69.1502 36.252C69.1795 36.0613 69.2052 35.8743 69.2272 35.691C69.2492 35.5003 69.2602 35.35 69.2602 35.24V33.381C69.2602 33.2783 69.2492 33.128 69.2272 32.93C69.2052 32.7247 69.1758 32.523 69.1392 32.325C69.1098 32.127 69.0878 31.984 69.0732 31.896L69.7882 32.589L68.3252 32.358L68.4242 31.566H70.1842L70.4152 31.775L70.6902 33.722L70.2502 32.985C70.4042 32.6917 70.5765 32.4277 70.7672 32.193C70.9652 31.951 71.1925 31.7603 71.4492 31.621C71.7058 31.4817 71.9992 31.412 72.3292 31.412C72.7472 31.412 73.0882 31.4927 73.3522 31.654C73.6235 31.808 73.8252 32.0353 73.9572 32.336C74.0965 32.6293 74.1662 32.996 74.1662 33.436V34.91C74.1662 35.2767 74.1845 35.614 74.2212 35.922C74.2652 36.23 74.2982 36.4573 74.3202 36.604L73.6052 36.109L74.9912 36.241L74.9362 37H73.3632C73.2972 37 73.1872 37.0037 73.0332 37.011C72.8792 37.0183 72.7142 37.0257 72.5382 37.033C72.3695 37.0403 72.2118 37.0477 72.0652 37.055L72.0102 36.318L73.2862 36.043L72.6042 36.648C72.6188 36.516 72.6335 36.3547 72.6482 36.164C72.6628 35.966 72.6738 35.779 72.6812 35.603C72.6958 35.4197 72.7032 35.2987 72.7032 35.24V33.568C72.7032 33.3627 72.6738 33.1757 72.6152 33.007C72.5638 32.8383 72.4758 32.7063 72.3512 32.611C72.2265 32.5083 72.0615 32.457 71.8562 32.457C71.5628 32.457 71.2988 32.6 71.0642 32.886C70.8368 33.172 70.7232 33.568 70.7232 34.074V34.91C70.7232 35.2767 70.7415 35.614 70.7782 35.922C70.8222 36.2227 70.8552 36.4573 70.8772 36.626L70.1622 36.109L71.5482 36.241L71.4932 37H69.7882C69.7442 37 69.6452 37.0037 69.4912 37.011C69.3372 37.0183 69.1648 37.0257 68.9742 37.033C68.7908 37.0403 68.6258 37.0477 68.4792 37.055ZM77.3574 37.11C76.8587 37.11 76.4627 36.9743 76.1694 36.703C75.8834 36.4243 75.7404 36.0467 75.7404 35.57C75.7404 35.1667 75.854 34.833 76.0814 34.569C76.316 34.305 76.6864 34.1327 77.1924 34.052L78.9524 33.766V34.459L77.8744 34.646C77.6617 34.6753 77.5077 34.7523 77.4124 34.877C77.3244 34.9943 77.2804 35.1483 77.2804 35.339C77.2804 35.5663 77.3317 35.7387 77.4344 35.856C77.537 35.9733 77.6947 36.032 77.9074 36.032C78.12 36.032 78.3034 35.9623 78.4574 35.823C78.6187 35.6837 78.725 35.4967 78.7764 35.262V33.414C78.7764 33.04 78.7104 32.7723 78.5784 32.611C78.4537 32.4423 78.2374 32.358 77.9294 32.358C77.7974 32.358 77.647 32.3763 77.4784 32.413C77.317 32.4497 77.163 32.4937 77.0164 32.545C76.8697 32.589 76.756 32.6257 76.6754 32.655L77.1264 31.929L76.9394 33.007L76.9504 33.48L76.1474 33.513L75.9934 31.698C76.2134 31.6393 76.4444 31.5917 76.6864 31.555C76.9357 31.511 77.174 31.478 77.4014 31.456C77.6287 31.4267 77.8267 31.412 77.9954 31.412C78.714 31.412 79.2677 31.5843 79.6564 31.929C80.045 32.2737 80.2394 32.776 80.2394 33.436V34.91C80.2394 35.284 80.2577 35.6177 80.2944 35.911C80.3384 36.197 80.375 36.4243 80.4044 36.593L79.6894 36.109L81.0094 36.241L80.9434 37H78.9964L78.8204 35.548L79.1174 35.691C79.022 36.0063 78.89 36.2703 78.7214 36.483C78.56 36.6957 78.3657 36.8533 78.1384 36.956C77.911 37.0587 77.6507 37.11 77.3574 37.11ZM83.8237 37.165C83.2737 37.165 82.8851 37.011 82.6577 36.703C82.4304 36.395 82.3167 35.9697 82.3167 35.427V31.709L82.9437 32.358H81.5247L81.4917 31.698C81.6237 31.6467 81.7741 31.588 81.9427 31.522C82.1187 31.456 82.2947 31.3863 82.4707 31.313C82.6467 31.2323 82.7934 31.159 82.9107 31.093L82.3827 31.577C82.4414 31.5037 82.5074 31.4083 82.5807 31.291C82.6541 31.1737 82.7274 31.0527 82.8007 30.928C82.8741 30.796 82.9437 30.675 83.0097 30.565C83.0757 30.4477 83.1271 30.356 83.1637 30.29L83.7687 30.334V35.46C83.7687 35.658 83.8127 35.823 83.9007 35.955C83.9961 36.087 84.1427 36.153 84.3407 36.153C84.4727 36.153 84.5974 36.131 84.7147 36.087C84.8394 36.0357 84.9641 35.9733 85.0887 35.9L85.4517 36.527C85.2024 36.703 84.9347 36.8533 84.6487 36.978C84.3701 37.1027 84.0951 37.165 83.8237 37.165ZM83.5597 32.358V31.566H85.1767L85.0777 32.358H83.5597ZM86.2682 37.055L86.2132 36.318L87.5992 36.065L86.8732 36.681C86.8952 36.5783 86.9172 36.4353 86.9392 36.252C86.9686 36.0613 86.9942 35.8743 87.0162 35.691C87.0382 35.5003 87.0492 35.35 87.0492 35.24V33.381C87.0492 33.2783 87.0382 33.128 87.0162 32.93C86.9942 32.732 86.9649 32.5303 86.9282 32.325C86.8989 32.1197 86.8732 31.9437 86.8512 31.797L87.5772 32.589L86.1142 32.358L86.2132 31.566H88.3912L88.6222 31.775C88.6076 31.9217 88.5892 32.116 88.5672 32.358C88.5526 32.5927 88.5379 32.8347 88.5232 33.084C88.5159 33.326 88.5122 33.535 88.5122 33.711V34.91C88.5122 35.2767 88.5306 35.614 88.5672 35.922C88.6112 36.2227 88.6442 36.4573 88.6662 36.626L87.9512 36.109L89.3372 36.241L89.2822 37H87.5772C87.5332 37 87.4342 37.0037 87.2802 37.011C87.1262 37.0183 86.9539 37.0257 86.7632 37.033C86.5799 37.0403 86.4149 37.0477 86.2682 37.055ZM87.5002 30.653C87.2729 30.653 87.0969 30.576 86.9722 30.422C86.8476 30.2607 86.7852 30.07 86.7852 29.85C86.7852 29.6153 86.8476 29.421 86.9722 29.267C87.0969 29.113 87.2729 29.036 87.5002 29.036C87.7349 29.036 87.9146 29.1093 88.0392 29.256C88.1712 29.3953 88.2372 29.5933 88.2372 29.85C88.2372 30.0773 88.1712 30.268 88.0392 30.422C87.9146 30.576 87.7349 30.653 87.5002 30.653ZM92.7432 37.154C92.1639 37.154 91.6725 37.0403 91.2692 36.813C90.8732 36.5857 90.5689 36.2593 90.3562 35.834C90.1509 35.4013 90.0482 34.8843 90.0482 34.283C90.0482 33.6817 90.1509 33.1683 90.3562 32.743C90.5689 32.3103 90.8732 31.984 91.2692 31.764C91.6725 31.5367 92.1639 31.423 92.7432 31.423C93.6085 31.423 94.2685 31.6723 94.7232 32.171C95.1852 32.6697 95.4162 33.3737 95.4162 34.283C95.4162 34.8843 95.3135 35.4013 95.1082 35.834C94.9029 36.2593 94.6022 36.5857 94.2062 36.813C93.8102 37.0403 93.3225 37.154 92.7432 37.154ZM92.7432 36.274C92.9925 36.274 93.1942 36.2007 93.3482 36.054C93.5095 35.9 93.6232 35.6763 93.6892 35.383C93.7625 35.0897 93.7992 34.723 93.7992 34.283C93.7992 33.843 93.7625 33.48 93.6892 33.194C93.6232 32.9007 93.5095 32.6807 93.3482 32.534C93.1942 32.38 92.9925 32.303 92.7432 32.303C92.4865 32.303 92.2812 32.38 92.1272 32.534C91.9732 32.6807 91.8595 32.9007 91.7862 33.194C91.7129 33.48 91.6762 33.843 91.6762 34.283C91.6762 34.723 91.7129 35.0897 91.7862 35.383C91.8595 35.6763 91.9732 35.9 92.1272 36.054C92.2812 36.2007 92.4865 36.274 92.7432 36.274ZM96.4303 37.055L96.3753 36.318L97.7613 36.065L97.0353 36.681C97.0573 36.5783 97.0793 36.4353 97.1013 36.252C97.1307 36.0613 97.1563 35.8743 97.1783 35.691C97.2003 35.5003 97.2113 35.35 97.2113 35.24V33.381C97.2113 33.2783 97.2003 33.128 97.1783 32.93C97.1563 32.7247 97.127 32.523 97.0903 32.325C97.061 32.127 97.039 31.984 97.0243 31.896L97.7393 32.589L96.2763 32.358L96.3753 31.566H98.1353L98.3663 31.775L98.6413 33.722L98.2013 32.985C98.3553 32.6917 98.5277 32.4277 98.7183 32.193C98.9163 31.951 99.1437 31.7603 99.4003 31.621C99.657 31.4817 99.9503 31.412 100.28 31.412C100.698 31.412 101.039 31.4927 101.303 31.654C101.575 31.808 101.776 32.0353 101.908 32.336C102.048 32.6293 102.117 32.996 102.117 33.436V34.91C102.117 35.2767 102.136 35.614 102.172 35.922C102.216 36.23 102.249 36.4573 102.271 36.604L101.556 36.109L102.942 36.241L102.887 37H101.314C101.248 37 101.138 37.0037 100.984 37.011C100.83 37.0183 100.665 37.0257 100.489 37.033C100.321 37.0403 100.163 37.0477 100.016 37.055L99.9613 36.318L101.237 36.043L100.555 36.648C100.57 36.516 100.585 36.3547 100.599 36.164C100.614 35.966 100.625 35.779 100.632 35.603C100.647 35.4197 100.654 35.2987 100.654 35.24V33.568C100.654 33.3627 100.625 33.1757 100.566 33.007C100.515 32.8383 100.427 32.7063 100.302 32.611C100.178 32.5083 100.013 32.457 99.8073 32.457C99.514 32.457 99.25 32.6 99.0153 32.886C98.788 33.172 98.6743 33.568 98.6743 34.074V34.91C98.6743 35.2767 98.6927 35.614 98.7293 35.922C98.7733 36.2227 98.8063 36.4573 98.8283 36.626L98.1133 36.109L99.4993 36.241L99.4443 37H97.7393C97.6953 37 97.5963 37.0037 97.4423 37.011C97.2883 37.0183 97.116 37.0257 96.9253 37.033C96.742 37.0403 96.577 37.0477 96.4303 37.055ZM109.725 37.165C108.903 37.165 108.214 36.9963 107.657 36.659C107.107 36.3143 106.692 35.8413 106.414 35.24C106.135 34.6313 105.996 33.9273 105.996 33.128C105.996 32.3287 106.135 31.6247 106.414 31.016C106.692 30.4073 107.107 29.9343 107.657 29.597C108.214 29.2523 108.903 29.08 109.725 29.08C110.187 29.08 110.601 29.1167 110.968 29.19C111.334 29.2633 111.701 29.3513 112.068 29.454L111.936 31.302L111.166 31.258L111.144 30.642C111.144 30.5687 111.111 30.4403 111.045 30.257C110.979 30.0737 110.92 29.9087 110.869 29.762L111.441 30.268C111.133 30.18 110.836 30.1103 110.55 30.059C110.271 30.0003 109.996 29.971 109.725 29.971C109.248 29.971 108.859 30.1103 108.559 30.389C108.258 30.6677 108.038 31.0453 107.899 31.522C107.759 31.9987 107.69 32.5303 107.69 33.117C107.69 33.7037 107.759 34.2353 107.899 34.712C108.038 35.1887 108.254 35.57 108.548 35.856C108.848 36.1347 109.237 36.274 109.714 36.274C109.992 36.274 110.278 36.2483 110.572 36.197C110.872 36.1457 111.199 36.0687 111.551 35.966L110.946 36.494C110.99 36.3913 111.037 36.274 111.089 36.142C111.14 36.01 111.184 35.8853 111.221 35.768C111.265 35.6507 111.287 35.5663 111.287 35.515L111.32 34.998L112.079 34.976L112.167 36.791C111.807 36.879 111.422 36.9633 111.012 37.044C110.608 37.1247 110.179 37.165 109.725 37.165ZM116.097 37.154C115.517 37.154 115.026 37.0403 114.623 36.813C114.227 36.5857 113.922 36.2593 113.71 35.834C113.504 35.4013 113.402 34.8843 113.402 34.283C113.402 33.6817 113.504 33.1683 113.71 32.743C113.922 32.3103 114.227 31.984 114.623 31.764C115.026 31.5367 115.517 31.423 116.097 31.423C116.962 31.423 117.622 31.6723 118.077 32.171C118.539 32.6697 118.77 33.3737 118.77 34.283C118.77 34.8843 118.667 35.4013 118.462 35.834C118.256 36.2593 117.956 36.5857 117.56 36.813C117.164 37.0403 116.676 37.154 116.097 37.154ZM116.097 36.274C116.346 36.274 116.548 36.2007 116.702 36.054C116.863 35.9 116.977 35.6763 117.043 35.383C117.116 35.0897 117.153 34.723 117.153 34.283C117.153 33.843 117.116 33.48 117.043 33.194C116.977 32.9007 116.863 32.6807 116.702 32.534C116.548 32.38 116.346 32.303 116.097 32.303C115.84 32.303 115.635 32.38 115.481 32.534C115.327 32.6807 115.213 32.9007 115.14 33.194C115.066 33.48 115.03 33.843 115.03 34.283C115.03 34.723 115.066 35.0897 115.14 35.383C115.213 35.6763 115.327 35.9 115.481 36.054C115.635 36.2007 115.84 36.274 116.097 36.274ZM119.784 37.055L119.729 36.318L121.115 36.065L120.389 36.681C120.411 36.5783 120.433 36.4353 120.455 36.252C120.484 36.0613 120.51 35.8743 120.532 35.691C120.554 35.5003 120.565 35.35 120.565 35.24V33.381C120.565 33.2783 120.554 33.128 120.532 32.93C120.51 32.732 120.481 32.5303 120.444 32.325C120.415 32.1197 120.389 31.9437 120.367 31.797L121.093 32.589L119.63 32.358L119.729 31.566H121.907L122.138 31.775C122.123 31.9217 122.105 32.116 122.083 32.358C122.068 32.5927 122.054 32.8347 122.039 33.084C122.032 33.326 122.028 33.535 122.028 33.711V34.91C122.028 35.2767 122.046 35.614 122.083 35.922C122.127 36.2227 122.16 36.4573 122.182 36.626L121.467 36.109L122.853 36.241L122.798 37H121.093C121.049 37 120.95 37.0037 120.796 37.011C120.642 37.0183 120.47 37.0257 120.279 37.033C120.096 37.0403 119.931 37.0477 119.784 37.055ZM121.016 30.653C120.789 30.653 120.613 30.576 120.488 30.422C120.363 30.2607 120.301 30.07 120.301 29.85C120.301 29.6153 120.363 29.421 120.488 29.267C120.613 29.113 120.789 29.036 121.016 29.036C121.251 29.036 121.43 29.1093 121.555 29.256C121.687 29.3953 121.753 29.5933 121.753 29.85C121.753 30.0773 121.687 30.268 121.555 30.422C121.43 30.576 121.251 30.653 121.016 30.653ZM123.619 37.055L123.564 36.318L124.95 36.065L124.224 36.681C124.246 36.5783 124.268 36.4353 124.29 36.252C124.319 36.0613 124.345 35.8743 124.367 35.691C124.389 35.5003 124.4 35.35 124.4 35.24V33.381C124.4 33.2783 124.389 33.128 124.367 32.93C124.345 32.7247 124.315 32.523 124.279 32.325C124.249 32.127 124.227 31.984 124.213 31.896L124.928 32.589L123.465 32.358L123.564 31.566H125.324L125.555 31.775L125.83 33.722L125.39 32.985C125.544 32.6917 125.716 32.4277 125.907 32.193C126.105 31.951 126.332 31.7603 126.589 31.621C126.845 31.4817 127.139 31.412 127.469 31.412C127.887 31.412 128.228 31.4927 128.492 31.654C128.763 31.808 128.965 32.0353 129.097 32.336C129.236 32.6293 129.306 32.996 129.306 33.436V34.91C129.306 35.2767 129.324 35.614 129.361 35.922C129.405 36.23 129.438 36.4573 129.46 36.604L128.745 36.109L130.131 36.241L130.076 37H128.503C128.437 37 128.327 37.0037 128.173 37.011C128.019 37.0183 127.854 37.0257 127.678 37.033C127.509 37.0403 127.351 37.0477 127.205 37.055L127.15 36.318L128.426 36.043L127.744 36.648C127.758 36.516 127.773 36.3547 127.788 36.164C127.802 35.966 127.813 35.779 127.821 35.603C127.835 35.4197 127.843 35.2987 127.843 35.24V33.568C127.843 33.3627 127.813 33.1757 127.755 33.007C127.703 32.8383 127.615 32.7063 127.491 32.611C127.366 32.5083 127.201 32.457 126.996 32.457C126.702 32.457 126.438 32.6 126.204 32.886C125.976 33.172 125.863 33.568 125.863 34.074V34.91C125.863 35.2767 125.881 35.614 125.918 35.922C125.962 36.2227 125.995 36.4573 126.017 36.626L125.302 36.109L126.688 36.241L126.633 37H124.928C124.884 37 124.785 37.0037 124.631 37.011C124.477 37.0183 124.304 37.0257 124.114 37.033C123.93 37.0403 123.765 37.0477 123.619 37.055Z" fill="black"/>
<path d="M18 20H121" stroke="#068486"/>
<path d="M18.48 17.04L18.44 16.592L19.392 16.408L19.008 16.768C19.0187 16.6987 19.032 16.6053 19.048 16.488C19.0693 16.3653 19.0853 16.2453 19.096 16.128C19.112 16.0053 19.12 15.912 19.12 15.848V12.512C19.12 12.4587 19.1147 12.3893 19.104 12.304C19.0933 12.2187 19.08 12.1307 19.064 12.04C19.0533 11.9493 19.0427 11.8667 19.032 11.792C19.0213 11.7173 19.0133 11.6693 19.008 11.648L19.312 11.936L18.456 11.792L18.496 11.32C18.592 11.3253 18.7013 11.3307 18.824 11.336C18.9467 11.3413 19.064 11.3467 19.176 11.352C19.288 11.3573 19.3707 11.36 19.424 11.36C19.5573 11.36 19.704 11.3573 19.864 11.352C20.0293 11.3413 20.192 11.3333 20.352 11.328C20.5173 11.3227 20.6667 11.32 20.8 11.32C21.088 11.32 21.352 11.3733 21.592 11.48C21.832 11.5867 22.024 11.7387 22.168 11.936C22.3173 12.1333 22.392 12.3733 22.392 12.656C22.392 12.9173 22.3333 13.152 22.216 13.36C22.0987 13.5627 21.936 13.728 21.728 13.856C21.5253 13.9787 21.296 14.0533 21.04 14.08L21.28 13.696V14.44L21.016 14.064C21.3307 14.08 21.608 14.1467 21.848 14.264C22.0933 14.3813 22.2853 14.544 22.424 14.752C22.568 14.96 22.64 15.216 22.64 15.52C22.64 15.8347 22.5627 16.1067 22.408 16.336C22.2587 16.5653 22.0533 16.7387 21.792 16.856C21.536 16.9733 21.2507 17.032 20.936 17.032C20.7387 17.032 20.5147 17.0267 20.264 17.016C20.0187 17.0053 19.7947 17 19.592 17C19.5227 17 19.4213 17.0027 19.288 17.008C19.16 17.0133 19.0213 17.0187 18.872 17.024C18.728 17.0293 18.5973 17.0347 18.48 17.04ZM20.064 16.752L19.84 16.464C19.9467 16.4747 20.072 16.488 20.216 16.504C20.3653 16.5147 20.52 16.52 20.68 16.52C20.9893 16.52 21.24 16.4267 21.432 16.24C21.624 16.0533 21.72 15.7893 21.72 15.448C21.72 15.1867 21.6613 14.976 21.544 14.816C21.432 14.6507 21.28 14.5307 21.088 14.456C20.896 14.3813 20.6853 14.344 20.456 14.344H20.368L20.424 13.816H20.48C20.7893 13.816 21.0427 13.7253 21.24 13.544C21.4373 13.3627 21.536 13.104 21.536 12.768C21.536 12.48 21.4533 12.248 21.288 12.072C21.128 11.896 20.9067 11.808 20.624 11.808C20.4853 11.808 20.3467 11.808 20.208 11.808C20.0693 11.808 19.9413 11.8133 19.824 11.824L20.056 11.624C20.056 11.6613 20.048 11.744 20.032 11.872C20.0213 12 20.008 12.144 19.992 12.304C19.9813 12.4587 19.976 12.608 19.976 12.752V15.608C19.976 15.7413 19.9813 15.888 19.992 16.048C20.0027 16.2027 20.016 16.3467 20.032 16.48C20.048 16.608 20.0587 16.6987 20.064 16.752ZM23.3486 17.04L23.3086 16.584L24.2526 16.4L23.8366 16.768C23.8526 16.7093 23.8686 16.6213 23.8846 16.504C23.906 16.3813 23.9246 16.256 23.9406 16.128C23.9566 16 23.9646 15.9013 23.9646 15.832V12.16C23.9646 12.0853 23.9566 11.9867 23.9406 11.864C23.9246 11.736 23.906 11.6053 23.8846 11.472C23.8686 11.3387 23.8526 11.2267 23.8366 11.136L24.2446 11.6L23.2846 11.384L23.3326 10.92L24.1406 10.952H24.6846L24.8446 11.096C24.8393 11.192 24.8313 11.3173 24.8206 11.472C24.81 11.6267 24.7993 11.7867 24.7886 11.952C24.7833 12.1173 24.7806 12.2667 24.7806 12.4V15.592C24.7806 15.832 24.7913 16.0613 24.8126 16.28C24.8393 16.4933 24.8606 16.656 24.8766 16.768L24.4766 16.432L25.4286 16.52L25.3806 17H24.2606C24.218 17 24.1433 17.0027 24.0366 17.008C23.93 17.0133 23.8126 17.0187 23.6846 17.024C23.562 17.0293 23.45 17.0347 23.3486 17.04ZM27.8496 17.096C27.4389 17.096 27.0922 17.0107 26.8096 16.84C26.5322 16.6693 26.3216 16.4293 26.1776 16.12C26.0336 15.8107 25.9616 15.448 25.9616 15.032C25.9616 14.6107 26.0336 14.2453 26.1776 13.936C26.3216 13.6267 26.5322 13.3867 26.8096 13.216C27.0922 13.0453 27.4389 12.96 27.8496 12.96C28.4682 12.96 28.9349 13.1467 29.2496 13.52C29.5696 13.888 29.7296 14.392 29.7296 15.032C29.7296 15.448 29.6576 15.8107 29.5136 16.12C29.3749 16.4293 29.1642 16.6693 28.8816 16.84C28.6042 17.0107 28.2602 17.096 27.8496 17.096ZM27.8496 16.568C28.0896 16.568 28.2789 16.5013 28.4176 16.368C28.5616 16.2293 28.6629 16.0453 28.7216 15.816C28.7856 15.5813 28.8176 15.32 28.8176 15.032C28.8176 14.7387 28.7856 14.4773 28.7216 14.248C28.6629 14.0133 28.5616 13.8293 28.4176 13.696C28.2789 13.5573 28.0896 13.488 27.8496 13.488C27.6096 13.488 27.4176 13.5573 27.2736 13.696C27.1349 13.8293 27.0336 14.0107 26.9696 14.24C26.9109 14.4693 26.8816 14.7333 26.8816 15.032C26.8816 15.32 26.9109 15.5813 26.9696 15.816C27.0336 16.0453 27.1349 16.2293 27.2736 16.368C27.4176 16.5013 27.6096 16.568 27.8496 16.568ZM31.9418 18.88C30.8484 18.88 30.3018 18.496 30.3018 17.728C30.3018 17.6427 30.3818 17.52 30.5418 17.36C30.7018 17.2 30.9044 17.04 31.1497 16.88L31.4938 16.968C31.3978 17.08 31.3204 17.1733 31.2618 17.248C31.2084 17.328 31.1711 17.3973 31.1497 17.456C31.1284 17.5147 31.1178 17.5707 31.1178 17.624C31.1178 17.8693 31.2058 18.0533 31.3818 18.176C31.5631 18.2987 31.8404 18.36 32.2138 18.36C32.5124 18.36 32.7551 18.2933 32.9418 18.16C33.1338 18.032 33.2298 17.8613 33.2298 17.648C33.2298 17.5413 33.2058 17.4613 33.1578 17.408C33.1151 17.36 33.0404 17.3307 32.9338 17.32L31.8938 17.176C31.7604 17.1547 31.6404 17.1333 31.5338 17.112C31.4324 17.0907 31.3018 17.0533 31.1418 17C30.9658 16.936 30.8378 16.848 30.7578 16.736C30.6831 16.624 30.6458 16.4827 30.6458 16.312C30.6458 16.2053 30.8644 15.9573 31.3018 15.568L31.6298 15.68C31.5231 15.7867 31.4458 15.8747 31.3978 15.944C31.3551 16.0133 31.3338 16.064 31.3338 16.096C31.3338 16.176 31.3844 16.2373 31.4858 16.28C31.5871 16.3173 31.7764 16.352 32.0538 16.384C32.3044 16.4107 32.5311 16.4373 32.7338 16.464C32.9364 16.4907 33.1151 16.5173 33.2698 16.544C33.4244 16.5653 33.5471 16.592 33.6378 16.624C33.8884 16.7147 34.0138 16.9547 34.0138 17.344C34.0138 17.6267 33.9204 17.8827 33.7338 18.112C33.5471 18.3467 33.2964 18.5333 32.9818 18.672C32.6724 18.8107 32.3258 18.88 31.9418 18.88ZM32.0618 15.856C31.7471 15.856 31.4698 15.7973 31.2298 15.68C30.9898 15.5627 30.8004 15.3973 30.6618 15.184C30.5284 14.9653 30.4618 14.7067 30.4618 14.408C30.4618 14.1147 30.5284 13.8613 30.6618 13.648C30.8004 13.4347 30.9898 13.2667 31.2298 13.144C31.4698 13.0213 31.7498 12.96 32.0698 12.96C32.3844 12.96 32.6618 13.0213 32.9018 13.144C33.1418 13.2613 33.3284 13.4267 33.4618 13.64C33.5951 13.8533 33.6618 14.1067 33.6618 14.4C33.6618 14.6933 33.5951 14.9493 33.4618 15.168C33.3284 15.3867 33.1418 15.5573 32.9018 15.68C32.6618 15.7973 32.3818 15.856 32.0618 15.856ZM32.0618 15.408C32.5418 15.408 32.7818 15.0693 32.7818 14.392C32.7818 13.736 32.5444 13.408 32.0698 13.408C31.5844 13.408 31.3418 13.744 31.3418 14.416C31.3418 15.0773 31.5818 15.408 32.0618 15.408ZM34.0538 13.544L33.2778 13.536L32.7338 13.192L33.9978 12.96L34.0538 13.544ZM41.1684 17.04L41.1284 16.584L41.9924 16.392L41.6084 16.68C41.6244 16.6053 41.6377 16.512 41.6484 16.4C41.659 16.288 41.6697 16.1787 41.6804 16.072C41.691 15.9653 41.6964 15.8853 41.6964 15.832V14.68C41.6964 14.4827 41.6777 14.2987 41.6404 14.128C41.6084 13.9573 41.5444 13.8213 41.4484 13.72C41.3524 13.6133 41.2164 13.56 41.0404 13.56C40.7844 13.56 40.571 13.6747 40.4004 13.904C40.235 14.1333 40.147 14.4373 40.1364 14.816L39.8724 14.048C40.0004 13.7067 40.1844 13.44 40.4244 13.248C40.6644 13.056 40.9444 12.96 41.2644 12.96C41.579 12.96 41.827 13.0293 42.0084 13.168C42.1897 13.3013 42.3177 13.4933 42.3924 13.744C42.4724 13.9893 42.5124 14.2853 42.5124 14.632V15.592C42.5124 15.7253 42.5177 15.8667 42.5284 16.016C42.539 16.1653 42.5524 16.2987 42.5684 16.416C42.5844 16.5333 42.595 16.6133 42.6004 16.656L42.2084 16.432L43.1604 16.52L43.1124 17H42.0324C42.0057 17 41.9417 17.0027 41.8404 17.008C41.739 17.0133 41.6244 17.0187 41.4964 17.024C41.3737 17.0293 41.2644 17.0347 41.1684 17.04ZM36.3364 17.04L36.2964 16.584L37.2404 16.4L36.8244 16.768C36.8404 16.7093 36.8564 16.6213 36.8724 16.504C36.8937 16.3813 36.9124 16.256 36.9284 16.128C36.9444 16 36.9524 15.9013 36.9524 15.832V14.256C36.9524 14.1813 36.9444 14.0773 36.9284 13.944C36.9124 13.8107 36.8937 13.68 36.8724 13.552C36.851 13.4187 36.835 13.3227 36.8244 13.264L37.2324 13.696L36.2724 13.536L36.3204 13.048H37.4484L37.6084 13.192L37.7764 14.576V15.592C37.7764 15.8267 37.787 16.0533 37.8084 16.272C37.8297 16.4907 37.8484 16.656 37.8644 16.768L37.4644 16.432L38.4164 16.52L38.3684 17H37.2484C37.2057 17 37.131 17.0027 37.0244 17.008C36.9177 17.0133 36.8004 17.0187 36.6724 17.024C36.5497 17.0293 36.4377 17.0347 36.3364 17.04ZM38.8004 17.04L38.7604 16.584L39.6164 16.392L39.2404 16.68C39.251 16.6053 39.2617 16.512 39.2724 16.4C39.2884 16.288 39.3017 16.1787 39.3124 16.072C39.323 15.9653 39.3284 15.8853 39.3284 15.832V14.68C39.3284 14.4827 39.3097 14.2987 39.2724 14.128C39.235 13.9573 39.1684 13.8213 39.0724 13.72C38.9817 13.6133 38.8484 13.56 38.6724 13.56C38.4164 13.56 38.203 13.6773 38.0324 13.912C37.8617 14.1467 37.7764 14.4533 37.7764 14.832L37.4964 14.064C37.5817 13.84 37.691 13.6453 37.8244 13.48C37.963 13.3147 38.1204 13.1867 38.2964 13.096C38.4777 13.0053 38.675 12.96 38.8884 12.96C39.2084 12.96 39.459 13.0293 39.6404 13.168C39.8217 13.3013 39.9497 13.4933 40.0244 13.744C40.099 13.9893 40.1364 14.2853 40.1364 14.632V15.592C40.1364 15.7253 40.1417 15.8667 40.1524 16.016C40.1684 16.1653 40.1817 16.2987 40.1924 16.416C40.2084 16.5333 40.219 16.6133 40.2244 16.656L39.8404 16.432L40.7924 16.52L40.7444 17H39.6644C39.6377 17 39.5737 17.0027 39.4724 17.008C39.371 17.0133 39.2564 17.0187 39.1284 17.024C39.0057 17.0293 38.8964 17.0347 38.8004 17.04ZM45.5839 17.096C45.1733 17.096 44.8266 17.0107 44.5439 16.84C44.2666 16.6693 44.0559 16.4293 43.9119 16.12C43.7679 15.8107 43.6959 15.448 43.6959 15.032C43.6959 14.6107 43.7679 14.2453 43.9119 13.936C44.0559 13.6267 44.2666 13.3867 44.5439 13.216C44.8266 13.0453 45.1733 12.96 45.5839 12.96C46.2026 12.96 46.6693 13.1467 46.9839 13.52C47.3039 13.888 47.4639 14.392 47.4639 15.032C47.4639 15.448 47.3919 15.8107 47.2479 16.12C47.1093 16.4293 46.8986 16.6693 46.6159 16.84C46.3386 17.0107 45.9946 17.096 45.5839 17.096ZM45.5839 16.568C45.8239 16.568 46.0133 16.5013 46.1519 16.368C46.2959 16.2293 46.3973 16.0453 46.4559 15.816C46.5199 15.5813 46.5519 15.32 46.5519 15.032C46.5519 14.7387 46.5199 14.4773 46.4559 14.248C46.3973 14.0133 46.2959 13.8293 46.1519 13.696C46.0133 13.5573 45.8239 13.488 45.5839 13.488C45.3439 13.488 45.1519 13.5573 45.0079 13.696C44.8693 13.8293 44.7679 14.0107 44.7039 14.24C44.6453 14.4693 44.6159 14.7333 44.6159 15.032C44.6159 15.32 44.6453 15.5813 44.7039 15.816C44.7679 16.0453 44.8693 16.2293 45.0079 16.368C45.1519 16.5013 45.3439 16.568 45.5839 16.568ZM48.1801 17.04L48.1401 16.584L49.0841 16.4L48.6681 16.768C48.6841 16.7093 48.7001 16.6213 48.7161 16.504C48.7375 16.3813 48.7561 16.256 48.7721 16.128C48.7881 16 48.7961 15.9013 48.7961 15.832V14.256C48.7961 14.1813 48.7881 14.0773 48.7721 13.944C48.7561 13.8107 48.7375 13.68 48.7161 13.552C48.6948 13.4187 48.6788 13.3227 48.6681 13.264L49.0761 13.696L48.1161 13.536L48.1641 13.048H49.2921L49.4521 13.192L49.6041 14.496L49.3641 14C49.4601 13.792 49.5721 13.6107 49.7001 13.456C49.8335 13.3013 49.9881 13.1813 50.1641 13.096C50.3455 13.0053 50.5455 12.96 50.7641 12.96C51.1108 12.96 51.3801 13.0293 51.5721 13.168C51.7641 13.3013 51.9001 13.4933 51.9801 13.744C52.0655 13.9893 52.1081 14.2853 52.1081 14.632V15.592C52.1081 15.8213 52.1188 16.04 52.1401 16.248C52.1668 16.456 52.1881 16.6133 52.2041 16.72L51.8121 16.432L52.7641 16.52L52.7161 17H51.6361C51.5988 17 51.5295 17.0027 51.4281 17.008C51.3268 17.0133 51.2148 17.0187 51.0921 17.024C50.9748 17.0293 50.8681 17.0347 50.7721 17.04L50.7321 16.584L51.5881 16.392L51.1961 16.688C51.2121 16.6187 51.2281 16.5307 51.2441 16.424C51.2601 16.3173 51.2735 16.2107 51.2841 16.104C51.2948 15.992 51.3001 15.9013 51.3001 15.832V14.68C51.3001 14.4827 51.2788 14.2987 51.2361 14.128C51.1935 13.9573 51.1188 13.8213 51.0121 13.72C50.9055 13.6133 50.7535 13.56 50.5561 13.56C50.2841 13.56 50.0601 13.6773 49.8841 13.912C49.7081 14.1467 49.6201 14.4533 49.6201 14.832V15.592C49.6201 15.8267 49.6308 16.0533 49.6521 16.272C49.6735 16.4907 49.6921 16.656 49.7081 16.768L49.3081 16.432L50.2601 16.52L50.2121 17H49.0921C49.0495 17 48.9748 17.0027 48.8681 17.008C48.7615 17.0133 48.6441 17.0187 48.5161 17.024C48.3935 17.0293 48.2815 17.0347 48.1801 17.04ZM55.1775 17.096C54.7775 17.096 54.4362 17.0107 54.1535 16.84C53.8762 16.6693 53.6628 16.4293 53.5135 16.12C53.3695 15.8107 53.2975 15.4507 53.2975 15.04C53.2975 14.6187 53.3668 14.2533 53.5055 13.944C53.6495 13.6347 53.8548 13.3947 54.1215 13.224C54.3882 13.048 54.7162 12.96 55.1055 12.96C55.4788 12.96 55.7828 13.04 56.0175 13.2C56.2522 13.3547 56.4228 13.5733 56.5295 13.856C56.6415 14.1387 56.6922 14.4747 56.6815 14.864L56.5375 15.144H54.0895V14.688L56.1375 14.552L55.7455 14.936C55.7508 14.8507 55.7562 14.768 55.7615 14.688C55.7722 14.6027 55.7775 14.5173 55.7775 14.432C55.7775 14.1387 55.7188 13.9013 55.6015 13.72C55.4842 13.5387 55.3028 13.448 55.0575 13.448C54.8922 13.448 54.7535 13.4907 54.6415 13.576C54.5295 13.6613 54.4442 13.7787 54.3855 13.928C54.3268 14.0773 54.2842 14.2427 54.2575 14.424C54.2362 14.6053 54.2255 14.792 54.2255 14.984C54.2255 15.1973 54.2442 15.3947 54.2815 15.576C54.3242 15.7573 54.3882 15.9173 54.4735 16.056C54.5642 16.1947 54.6735 16.304 54.8015 16.384C54.9348 16.4587 55.0948 16.496 55.2815 16.496C55.5162 16.496 55.7348 16.4613 55.9375 16.392C56.1455 16.3173 56.3028 16.248 56.4095 16.184L56.6415 16.584C56.6095 16.616 56.5535 16.6587 56.4735 16.712C56.3935 16.7653 56.2895 16.824 56.1615 16.888C56.0388 16.9467 55.8948 16.9947 55.7295 17.032C55.5695 17.0747 55.3855 17.096 55.1775 17.096ZM58.8471 17.12C58.4737 17.12 58.2151 17.016 58.0711 16.808C57.9324 16.6 57.8631 16.3093 57.8631 15.936V13.176L58.2151 13.536H57.2391L57.2151 13.144C57.2951 13.112 57.3911 13.0773 57.5031 13.04C57.6151 12.9973 57.7271 12.952 57.8391 12.904C57.9564 12.856 58.0524 12.816 58.1271 12.784L57.8071 13.088C57.8391 13.0453 57.8791 12.984 57.9271 12.904C57.9751 12.8187 58.0231 12.728 58.0711 12.632C58.1244 12.5307 58.1724 12.4373 58.2151 12.352C58.2631 12.2667 58.2977 12.2027 58.3191 12.16L58.6791 12.192V15.968C58.6791 16.128 58.7111 16.2587 58.7751 16.36C58.8391 16.456 58.9537 16.504 59.1191 16.504C59.2257 16.504 59.3324 16.4827 59.4391 16.44C59.5511 16.392 59.6551 16.3307 59.7511 16.256L59.9911 16.656C59.7991 16.8 59.6071 16.9147 59.4151 17C59.2231 17.08 59.0337 17.12 58.8471 17.12ZM58.5351 13.536V13.048H59.7911L59.7351 13.536H58.5351ZM60.5629 17.04L60.5229 16.584L61.4669 16.4L61.0509 16.768C61.0669 16.7093 61.0829 16.6213 61.0989 16.504C61.1203 16.3813 61.1389 16.256 61.1549 16.128C61.1709 16 61.1789 15.9013 61.1789 15.832V14.256C61.1789 14.1813 61.1709 14.0827 61.1549 13.96C61.1443 13.832 61.1283 13.7013 61.1069 13.568C61.0856 13.4347 61.0669 13.3227 61.0509 13.232L61.4589 13.696L60.4989 13.536L60.5469 13.048H61.8989L62.0589 13.192C62.0536 13.288 62.0456 13.4133 62.0349 13.568C62.0243 13.7227 62.0163 13.8827 62.0109 14.048C62.0056 14.2133 62.0029 14.3627 62.0029 14.496V15.592C62.0029 15.8267 62.0136 16.0533 62.0349 16.272C62.0563 16.4907 62.0749 16.656 62.0909 16.768L61.6909 16.432L62.6429 16.52L62.5949 17H61.4749C61.4323 17 61.3576 17.0027 61.2509 17.008C61.1443 17.0133 61.0269 17.0187 60.8989 17.024C60.7763 17.0293 60.6643 17.0347 60.5629 17.04ZM61.4349 12.32C61.2803 12.32 61.1603 12.2693 61.0749 12.168C60.9896 12.0667 60.9469 11.9387 60.9469 11.784C60.9469 11.624 60.9896 11.4933 61.0749 11.392C61.1603 11.2907 61.2803 11.24 61.4349 11.24C61.5949 11.24 61.7176 11.288 61.8029 11.384C61.8883 11.4747 61.9309 11.608 61.9309 11.784C61.9309 11.944 61.8883 12.0747 61.8029 12.176C61.7176 12.272 61.5949 12.32 61.4349 12.32ZM66.1883 17.024C66.167 17.024 66.119 17.0213 66.0443 17.016C65.975 17.016 65.895 17.0133 65.8043 17.008C65.7136 17.008 65.6256 17.0053 65.5403 17C65.4603 17 65.399 17 65.3563 17H63.2763L63.2043 16.504C63.2896 16.4027 63.383 16.296 63.4843 16.184C63.5856 16.0667 63.679 15.96 63.7643 15.864C63.8496 15.768 63.9056 15.6987 63.9323 15.656L64.9163 14.184C64.9536 14.1253 65.0016 14.0427 65.0603 13.936C65.1243 13.824 65.1883 13.704 65.2523 13.576C65.3216 13.4427 65.3856 13.3253 65.4443 13.224L65.6283 13.544H64.4123C64.375 13.544 64.3083 13.552 64.2123 13.568C64.1163 13.5787 64.0123 13.592 63.9003 13.608C63.7883 13.624 63.687 13.64 63.5963 13.656L64.0763 13.256C64.0443 13.3467 64.007 13.4453 63.9643 13.552C63.9216 13.6587 63.8816 13.7573 63.8443 13.848C63.8123 13.9387 63.7936 14.0053 63.7883 14.048L63.7563 14.408L63.2443 14.376L63.2843 13.176L63.4363 13.024C63.5643 13.0293 63.7003 13.0347 63.8443 13.04C63.9883 13.0453 64.103 13.048 64.1883 13.048H66.2523L66.3083 13.544L65.6443 14.384L64.6763 15.864C64.6336 15.9333 64.5803 16.024 64.5163 16.136C64.4523 16.248 64.3883 16.3653 64.3243 16.488C64.2656 16.6053 64.207 16.7173 64.1483 16.824L63.9643 16.504H65.2043C65.2363 16.504 65.303 16.4987 65.4043 16.488C65.5056 16.472 65.6176 16.456 65.7403 16.44C65.863 16.424 65.9723 16.408 66.0683 16.392L65.5803 16.784C65.6176 16.704 65.6576 16.6133 65.7003 16.512C65.743 16.4107 65.7803 16.3173 65.8123 16.232C65.8443 16.1467 65.8656 16.088 65.8763 16.056L65.9163 15.728L66.4123 15.776L66.3403 16.872L66.1883 17.024ZM68.3014 17.08C67.9388 17.08 67.6534 16.984 67.4454 16.792C67.2374 16.6 67.1334 16.3413 67.1334 16.016C67.1334 15.7333 67.2188 15.4987 67.3894 15.312C67.5654 15.12 67.8348 14.9947 68.1974 14.936L69.5414 14.72V15.16L68.4774 15.36C68.3174 15.3813 68.1974 15.44 68.1174 15.536C68.0428 15.6267 68.0054 15.7413 68.0054 15.88C68.0054 16.0667 68.0508 16.2107 68.1414 16.312C68.2321 16.408 68.3628 16.456 68.5334 16.456C68.7574 16.456 68.9521 16.384 69.1174 16.24C69.2881 16.096 69.3921 15.9147 69.4294 15.696V14.464C69.4294 14.1333 69.3734 13.8907 69.2614 13.736C69.1494 13.576 68.9708 13.496 68.7254 13.496C68.6241 13.496 68.5094 13.5093 68.3814 13.536C68.2588 13.5573 68.1414 13.5867 68.0294 13.624C67.9228 13.656 67.8401 13.6907 67.7814 13.728L68.0694 13.296L67.9574 13.984L67.9654 14.32L67.4454 14.344L67.3494 13.16C67.5094 13.1173 67.6721 13.0827 67.8374 13.056C68.0081 13.024 68.1734 13 68.3334 12.984C68.4988 12.968 68.6534 12.96 68.7974 12.96C69.2934 12.96 69.6561 13.088 69.8854 13.344C70.1201 13.6 70.2374 14.008 70.2374 14.568V15.592C70.2374 15.848 70.2508 16.072 70.2774 16.264C70.3094 16.456 70.3361 16.608 70.3574 16.72L69.9814 16.432L70.8454 16.52L70.7974 17H69.6054L69.4614 16.024L69.6374 16.064C69.6001 16.2453 69.5174 16.416 69.3894 16.576C69.2668 16.7307 69.1121 16.8533 68.9254 16.944C68.7388 17.0347 68.5308 17.08 68.3014 17.08ZM72.8314 17.12C72.4581 17.12 72.1994 17.016 72.0554 16.808C71.9168 16.6 71.8474 16.3093 71.8474 15.936V13.176L72.1994 13.536H71.2234L71.1994 13.144C71.2794 13.112 71.3754 13.0773 71.4874 13.04C71.5994 12.9973 71.7114 12.952 71.8234 12.904C71.9408 12.856 72.0368 12.816 72.1114 12.784L71.7914 13.088C71.8234 13.0453 71.8634 12.984 71.9114 12.904C71.9594 12.8187 72.0074 12.728 72.0554 12.632C72.1088 12.5307 72.1568 12.4373 72.1994 12.352C72.2474 12.2667 72.2821 12.2027 72.3034 12.16L72.6634 12.192V15.968C72.6634 16.128 72.6954 16.2587 72.7594 16.36C72.8234 16.456 72.9381 16.504 73.1034 16.504C73.2101 16.504 73.3168 16.4827 73.4234 16.44C73.5354 16.392 73.6394 16.3307 73.7354 16.256L73.9754 16.656C73.7834 16.8 73.5914 16.9147 73.3994 17C73.2074 17.08 73.0181 17.12 72.8314 17.12ZM72.5194 13.536V13.048H73.7754L73.7194 13.536H72.5194ZM74.5473 17.04L74.5073 16.584L75.4513 16.4L75.0353 16.768C75.0513 16.7093 75.0673 16.6213 75.0833 16.504C75.1046 16.3813 75.1233 16.256 75.1393 16.128C75.1553 16 75.1633 15.9013 75.1633 15.832V14.256C75.1633 14.1813 75.1553 14.0827 75.1393 13.96C75.1286 13.832 75.1126 13.7013 75.0913 13.568C75.07 13.4347 75.0513 13.3227 75.0353 13.232L75.4433 13.696L74.4833 13.536L74.5313 13.048H75.8833L76.0433 13.192C76.038 13.288 76.03 13.4133 76.0193 13.568C76.0086 13.7227 76.0006 13.8827 75.9953 14.048C75.99 14.2133 75.9873 14.3627 75.9873 14.496V15.592C75.9873 15.8267 75.998 16.0533 76.0193 16.272C76.0406 16.4907 76.0593 16.656 76.0753 16.768L75.6753 16.432L76.6273 16.52L76.5793 17H75.4593C75.4166 17 75.342 17.0027 75.2353 17.008C75.1286 17.0133 75.0113 17.0187 74.8833 17.024C74.7606 17.0293 74.6486 17.0347 74.5473 17.04ZM75.4193 12.32C75.2646 12.32 75.1446 12.2693 75.0593 12.168C74.974 12.0667 74.9313 11.9387 74.9313 11.784C74.9313 11.624 74.974 11.4933 75.0593 11.392C75.1446 11.2907 75.2646 11.24 75.4193 11.24C75.5793 11.24 75.702 11.288 75.7873 11.384C75.8726 11.4747 75.9153 11.608 75.9153 11.784C75.9153 11.944 75.8726 12.0747 75.7873 12.176C75.702 12.272 75.5793 12.32 75.4193 12.32ZM79.0527 17.096C78.642 17.096 78.2954 17.0107 78.0127 16.84C77.7354 16.6693 77.5247 16.4293 77.3807 16.12C77.2367 15.8107 77.1647 15.448 77.1647 15.032C77.1647 14.6107 77.2367 14.2453 77.3807 13.936C77.5247 13.6267 77.7354 13.3867 78.0127 13.216C78.2954 13.0453 78.642 12.96 79.0527 12.96C79.6714 12.96 80.138 13.1467 80.4527 13.52C80.7727 13.888 80.9327 14.392 80.9327 15.032C80.9327 15.448 80.8607 15.8107 80.7167 16.12C80.578 16.4293 80.3674 16.6693 80.0847 16.84C79.8074 17.0107 79.4634 17.096 79.0527 17.096ZM79.0527 16.568C79.2927 16.568 79.482 16.5013 79.6207 16.368C79.7647 16.2293 79.866 16.0453 79.9247 15.816C79.9887 15.5813 80.0207 15.32 80.0207 15.032C80.0207 14.7387 79.9887 14.4773 79.9247 14.248C79.866 14.0133 79.7647 13.8293 79.6207 13.696C79.482 13.5573 79.2927 13.488 79.0527 13.488C78.8127 13.488 78.6207 13.5573 78.4767 13.696C78.338 13.8293 78.2367 14.0107 78.1727 14.24C78.114 14.4693 78.0847 14.7333 78.0847 15.032C78.0847 15.32 78.114 15.5813 78.1727 15.816C78.2367 16.0453 78.338 16.2293 78.4767 16.368C78.6207 16.5013 78.8127 16.568 79.0527 16.568ZM81.6489 17.04L81.6089 16.584L82.5529 16.4L82.1369 16.768C82.1529 16.7093 82.1689 16.6213 82.1849 16.504C82.2062 16.3813 82.2249 16.256 82.2409 16.128C82.2569 16 82.2649 15.9013 82.2649 15.832V14.256C82.2649 14.1813 82.2569 14.0773 82.2409 13.944C82.2249 13.8107 82.2062 13.68 82.1849 13.552C82.1635 13.4187 82.1475 13.3227 82.1369 13.264L82.5449 13.696L81.5849 13.536L81.6329 13.048H82.7609L82.9209 13.192L83.0729 14.496L82.8329 14C82.9289 13.792 83.0409 13.6107 83.1689 13.456C83.3022 13.3013 83.4569 13.1813 83.6329 13.096C83.8142 13.0053 84.0142 12.96 84.2329 12.96C84.5795 12.96 84.8489 13.0293 85.0409 13.168C85.2329 13.3013 85.3689 13.4933 85.4489 13.744C85.5342 13.9893 85.5769 14.2853 85.5769 14.632V15.592C85.5769 15.8213 85.5875 16.04 85.6089 16.248C85.6355 16.456 85.6569 16.6133 85.6729 16.72L85.2809 16.432L86.2329 16.52L86.1849 17H85.1049C85.0675 17 84.9982 17.0027 84.8969 17.008C84.7955 17.0133 84.6835 17.0187 84.5609 17.024C84.4435 17.0293 84.3369 17.0347 84.2409 17.04L84.2009 16.584L85.0569 16.392L84.6649 16.688C84.6809 16.6187 84.6969 16.5307 84.7129 16.424C84.7289 16.3173 84.7422 16.2107 84.7529 16.104C84.7635 15.992 84.7689 15.9013 84.7689 15.832V14.68C84.7689 14.4827 84.7475 14.2987 84.7049 14.128C84.6622 13.9573 84.5875 13.8213 84.4809 13.72C84.3742 13.6133 84.2222 13.56 84.0249 13.56C83.7529 13.56 83.5289 13.6773 83.3529 13.912C83.1769 14.1467 83.0889 14.4533 83.0889 14.832V15.592C83.0889 15.8267 83.0995 16.0533 83.1209 16.272C83.1422 16.4907 83.1609 16.656 83.1769 16.768L82.7769 16.432L83.7289 16.52L83.6809 17H82.5609C82.5182 17 82.4435 17.0027 82.3369 17.008C82.2302 17.0133 82.1129 17.0187 81.9849 17.024C81.8622 17.0293 81.7502 17.0347 81.6489 17.04ZM88.4063 18.864L88.3663 18.432L89.2143 18.248L88.7983 18.592C88.809 18.5333 88.8223 18.4427 88.8383 18.32C88.8596 18.2027 88.8783 18.08 88.8943 17.952C88.9156 17.824 88.9263 17.7253 88.9263 17.656V14.256C88.9263 14.1813 88.9156 14.0773 88.8943 13.944C88.8783 13.8107 88.857 13.68 88.8303 13.552C88.809 13.4187 88.793 13.3227 88.7823 13.264L89.2063 13.696L88.2383 13.536L88.2943 13.048H89.4223L89.5743 13.192L89.6783 14.088L89.5343 13.968C89.5983 13.7653 89.6943 13.5893 89.8223 13.44C89.9556 13.2907 90.1076 13.1733 90.2783 13.088C90.4543 13.0027 90.6356 12.96 90.8223 12.96C91.329 12.96 91.721 13.1333 91.9983 13.48C92.281 13.8267 92.4223 14.312 92.4223 14.936C92.4223 15.3627 92.3423 15.7387 92.1823 16.064C92.0223 16.384 91.801 16.6347 91.5183 16.816C91.2356 16.992 90.905 17.08 90.5263 17.08C90.3823 17.08 90.233 17.0613 90.0783 17.024C89.9236 16.992 89.769 16.9467 89.6143 16.888L89.6063 16.2C89.761 16.3013 89.9103 16.376 90.0543 16.424C90.1983 16.472 90.3343 16.496 90.4623 16.496C90.809 16.496 91.0703 16.3707 91.2463 16.12C91.4223 15.864 91.5103 15.4853 91.5103 14.984C91.5103 14.52 91.4356 14.1733 91.2863 13.944C91.1423 13.7093 90.9236 13.592 90.6303 13.592C90.3583 13.592 90.1396 13.7013 89.9743 13.92C89.8143 14.1387 89.7343 14.424 89.7343 14.776V17.416C89.7343 17.6507 89.745 17.8773 89.7663 18.096C89.793 18.3147 89.8143 18.48 89.8303 18.592L89.4303 18.288L90.5343 18.376L90.4863 18.824H89.2143C89.1716 18.824 89.105 18.8267 89.0143 18.832C88.9236 18.8373 88.825 18.8427 88.7183 18.848C88.6116 18.8533 88.5076 18.8587 88.4063 18.864ZM92.9893 17.04L92.9493 16.584L93.8933 16.4L93.4773 16.768C93.4933 16.7093 93.5093 16.6213 93.5253 16.504C93.5466 16.3813 93.5653 16.256 93.5813 16.128C93.5973 16 93.6053 15.9013 93.6053 15.832V12.16C93.6053 12.0853 93.5973 11.9867 93.5813 11.864C93.5653 11.736 93.5466 11.6053 93.5253 11.472C93.5093 11.3387 93.4933 11.2267 93.4773 11.136L93.8853 11.6L92.9253 11.384L92.9733 10.92L93.7812 10.952H94.3253L94.4853 11.096C94.4799 11.192 94.4719 11.3173 94.4613 11.472C94.4506 11.6267 94.4399 11.7867 94.4293 11.952C94.4239 12.1173 94.4213 12.2667 94.4213 12.4V15.592C94.4213 15.832 94.4319 16.0613 94.4533 16.28C94.4799 16.4933 94.5013 16.656 94.5173 16.768L94.1173 16.432L95.0693 16.52L95.0213 17H93.9013C93.8586 17 93.7839 17.0027 93.6773 17.008C93.5706 17.0133 93.4533 17.0187 93.3253 17.024C93.2026 17.0293 93.0906 17.0347 92.9893 17.04ZM96.7702 17.08C96.4075 17.08 96.1222 16.984 95.9142 16.792C95.7062 16.6 95.6022 16.3413 95.6022 16.016C95.6022 15.7333 95.6875 15.4987 95.8582 15.312C96.0342 15.12 96.3035 14.9947 96.6662 14.936L98.0102 14.72V15.16L96.9462 15.36C96.7862 15.3813 96.6662 15.44 96.5862 15.536C96.5115 15.6267 96.4742 15.7413 96.4742 15.88C96.4742 16.0667 96.5195 16.2107 96.6102 16.312C96.7009 16.408 96.8315 16.456 97.0022 16.456C97.2262 16.456 97.4209 16.384 97.5862 16.24C97.7569 16.096 97.8609 15.9147 97.8982 15.696V14.464C97.8982 14.1333 97.8422 13.8907 97.7302 13.736C97.6182 13.576 97.4395 13.496 97.1942 13.496C97.0929 13.496 96.9782 13.5093 96.8502 13.536C96.7275 13.5573 96.6102 13.5867 96.4982 13.624C96.3915 13.656 96.3089 13.6907 96.2502 13.728L96.5382 13.296L96.4262 13.984L96.4342 14.32L95.9142 14.344L95.8182 13.16C95.9782 13.1173 96.1409 13.0827 96.3062 13.056C96.4769 13.024 96.6422 13 96.8022 12.984C96.9675 12.968 97.1222 12.96 97.2662 12.96C97.7622 12.96 98.1249 13.088 98.3542 13.344C98.5889 13.6 98.7062 14.008 98.7062 14.568V15.592C98.7062 15.848 98.7195 16.072 98.7462 16.264C98.7782 16.456 98.8049 16.608 98.8262 16.72L98.4502 16.432L99.3142 16.52L99.2662 17H98.0742L97.9302 16.024L98.1062 16.064C98.0689 16.2453 97.9862 16.416 97.8582 16.576C97.7355 16.7307 97.5809 16.8533 97.3942 16.944C97.2075 17.0347 96.9995 17.08 96.7702 17.08ZM101.3 17.12C100.927 17.12 100.668 17.016 100.524 16.808C100.386 16.6 100.316 16.3093 100.316 15.936V13.176L100.668 13.536H99.6922L99.6682 13.144C99.7482 13.112 99.8442 13.0773 99.9562 13.04C100.068 12.9973 100.18 12.952 100.292 12.904C100.41 12.856 100.506 12.816 100.58 12.784L100.26 13.088C100.292 13.0453 100.332 12.984 100.38 12.904C100.428 12.8187 100.476 12.728 100.524 12.632C100.578 12.5307 100.626 12.4373 100.668 12.352C100.716 12.2667 100.751 12.2027 100.772 12.16L101.132 12.192V15.968C101.132 16.128 101.164 16.2587 101.228 16.36C101.292 16.456 101.407 16.504 101.572 16.504C101.679 16.504 101.786 16.4827 101.892 16.44C102.004 16.392 102.108 16.3307 102.204 16.256L102.444 16.656C102.252 16.8 102.06 16.9147 101.868 17C101.676 17.08 101.487 17.12 101.3 17.12ZM100.988 13.536V13.048H102.244L102.188 13.536H100.988ZM102.984 17.04L102.944 16.584L103.856 16.4L103.448 16.768C103.459 16.7093 103.472 16.6213 103.488 16.504C103.509 16.3813 103.528 16.256 103.544 16.128C103.565 16 103.576 15.9013 103.576 15.832V13.384L103.688 13.536H103.016L102.992 13.136L103.688 13.032L103.576 13.216V12.272C103.576 11.9893 103.632 11.7413 103.744 11.528C103.856 11.3093 104.016 11.1413 104.224 11.024C104.437 10.9013 104.693 10.84 104.992 10.84C105.104 10.84 105.208 10.848 105.304 10.864C105.405 10.8747 105.507 10.8907 105.608 10.912L105.488 12.096L105.064 12.072L105.072 11.76C105.072 11.7173 105.061 11.6347 105.04 11.512C105.019 11.3893 104.995 11.2747 104.968 11.168L105.32 11.384C105.293 11.384 105.253 11.3813 105.2 11.376C105.147 11.3707 105.091 11.3653 105.032 11.36C104.979 11.3493 104.936 11.344 104.904 11.344C104.739 11.344 104.613 11.3893 104.528 11.48C104.448 11.5707 104.395 11.6987 104.368 11.864C104.347 12.024 104.341 12.216 104.352 12.44C104.363 12.6587 104.376 12.8987 104.392 13.16L104.272 13.048H105.432L105.376 13.536H104.272L104.392 13.32V15.592C104.392 15.8267 104.403 16.0533 104.424 16.272C104.445 16.4907 104.464 16.656 104.48 16.768L104.08 16.432L105.2 16.52L105.152 17H103.864C103.827 17 103.755 17.0027 103.648 17.008C103.547 17.0133 103.435 17.0187 103.312 17.024C103.195 17.0293 103.085 17.0347 102.984 17.04ZM107.904 17.096C107.494 17.096 107.147 17.0107 106.864 16.84C106.587 16.6693 106.376 16.4293 106.232 16.12C106.088 15.8107 106.016 15.448 106.016 15.032C106.016 14.6107 106.088 14.2453 106.232 13.936C106.376 13.6267 106.587 13.3867 106.864 13.216C107.147 13.0453 107.494 12.96 107.904 12.96C108.523 12.96 108.99 13.1467 109.304 13.52C109.624 13.888 109.784 14.392 109.784 15.032C109.784 15.448 109.712 15.8107 109.568 16.12C109.43 16.4293 109.219 16.6693 108.936 16.84C108.659 17.0107 108.315 17.096 107.904 17.096ZM107.904 16.568C108.144 16.568 108.334 16.5013 108.472 16.368C108.616 16.2293 108.718 16.0453 108.776 15.816C108.84 15.5813 108.872 15.32 108.872 15.032C108.872 14.7387 108.84 14.4773 108.776 14.248C108.718 14.0133 108.616 13.8293 108.472 13.696C108.334 13.5573 108.144 13.488 107.904 13.488C107.664 13.488 107.472 13.5573 107.328 13.696C107.19 13.8293 107.088 14.0107 107.024 14.24C106.966 14.4693 106.936 14.7333 106.936 15.032C106.936 15.32 106.966 15.5813 107.024 15.816C107.088 16.0453 107.19 16.2293 107.328 16.368C107.472 16.5013 107.664 16.568 107.904 16.568ZM110.5 17.04L110.46 16.584L111.404 16.4L110.988 16.768C111.004 16.7093 111.02 16.6213 111.036 16.504C111.058 16.3813 111.076 16.256 111.092 16.128C111.108 16 111.116 15.9013 111.116 15.832V14.256C111.116 14.1813 111.108 14.0773 111.092 13.944C111.076 13.8107 111.058 13.68 111.036 13.552C111.015 13.4187 110.999 13.3227 110.988 13.264L111.396 13.696L110.436 13.536L110.484 13.048H111.612L111.772 13.192L111.924 14.496L111.62 14.152C111.679 14.0187 111.746 13.8853 111.82 13.752C111.9 13.6133 111.994 13.4853 112.1 13.368C112.212 13.2507 112.346 13.1573 112.5 13.088C112.66 13.0133 112.847 12.976 113.06 12.976C113.156 12.976 113.252 12.984 113.348 13C113.45 13.0107 113.548 13.0293 113.644 13.056L113.548 14.472L113.036 14.448V14.024C113.036 14.0027 113.028 13.9547 113.012 13.88C112.996 13.8 112.975 13.7173 112.948 13.632C112.927 13.5467 112.908 13.48 112.892 13.432L113.212 13.624C113.164 13.624 113.114 13.624 113.06 13.624C113.007 13.6187 112.956 13.616 112.908 13.616C112.599 13.616 112.359 13.7227 112.188 13.936C112.023 14.144 111.94 14.4347 111.94 14.808V15.592C111.94 15.8267 111.951 16.0533 111.972 16.272C111.994 16.4907 112.012 16.656 112.028 16.768L111.628 16.432L112.74 16.52L112.692 17H111.412C111.37 17 111.295 17.0027 111.188 17.008C111.082 17.0133 110.964 17.0187 110.836 17.024C110.714 17.0293 110.602 17.0347 110.5 17.04ZM119.098 17.04L119.058 16.584L119.922 16.392L119.538 16.68C119.554 16.6053 119.567 16.512 119.578 16.4C119.589 16.288 119.599 16.1787 119.61 16.072C119.621 15.9653 119.626 15.8853 119.626 15.832V14.68C119.626 14.4827 119.607 14.2987 119.57 14.128C119.538 13.9573 119.474 13.8213 119.378 13.72C119.282 13.6133 119.146 13.56 118.97 13.56C118.714 13.56 118.501 13.6747 118.33 13.904C118.165 14.1333 118.077 14.4373 118.066 14.816L117.802 14.048C117.93 13.7067 118.114 13.44 118.354 13.248C118.594 13.056 118.874 12.96 119.194 12.96C119.509 12.96 119.757 13.0293 119.938 13.168C120.119 13.3013 120.247 13.4933 120.322 13.744C120.402 13.9893 120.442 14.2853 120.442 14.632V15.592C120.442 15.7253 120.447 15.8667 120.458 16.016C120.469 16.1653 120.482 16.2987 120.498 16.416C120.514 16.5333 120.525 16.6133 120.53 16.656L120.138 16.432L121.09 16.52L121.042 17H119.962C119.935 17 119.871 17.0027 119.77 17.008C119.669 17.0133 119.554 17.0187 119.426 17.024C119.303 17.0293 119.194 17.0347 119.098 17.04ZM114.266 17.04L114.226 16.584L115.17 16.4L114.754 16.768C114.77 16.7093 114.786 16.6213 114.802 16.504C114.823 16.3813 114.842 16.256 114.858 16.128C114.874 16 114.882 15.9013 114.882 15.832V14.256C114.882 14.1813 114.874 14.0773 114.858 13.944C114.842 13.8107 114.823 13.68 114.802 13.552C114.781 13.4187 114.765 13.3227 114.754 13.264L115.162 13.696L114.202 13.536L114.25 13.048H115.378L115.538 13.192L115.706 14.576V15.592C115.706 15.8267 115.717 16.0533 115.738 16.272C115.759 16.4907 115.778 16.656 115.794 16.768L115.394 16.432L116.346 16.52L116.298 17H115.178C115.135 17 115.061 17.0027 114.954 17.008C114.847 17.0133 114.73 17.0187 114.602 17.024C114.479 17.0293 114.367 17.0347 114.266 17.04ZM116.73 17.04L116.69 16.584L117.546 16.392L117.17 16.68C117.181 16.6053 117.191 16.512 117.202 16.4C117.218 16.288 117.231 16.1787 117.242 16.072C117.253 15.9653 117.258 15.8853 117.258 15.832V14.68C117.258 14.4827 117.239 14.2987 117.202 14.128C117.165 13.9573 117.098 13.8213 117.002 13.72C116.911 13.6133 116.778 13.56 116.602 13.56C116.346 13.56 116.133 13.6773 115.962 13.912C115.791 14.1467 115.706 14.4533 115.706 14.832L115.426 14.064C115.511 13.84 115.621 13.6453 115.754 13.48C115.893 13.3147 116.05 13.1867 116.226 13.096C116.407 13.0053 116.605 12.96 116.818 12.96C117.138 12.96 117.389 13.0293 117.57 13.168C117.751 13.3013 117.879 13.4933 117.954 13.744C118.029 13.9893 118.066 14.2853 118.066 14.632V15.592C118.066 15.7253 118.071 15.8667 118.082 16.016C118.098 16.1653 118.111 16.2987 118.122 16.416C118.138 16.5333 118.149 16.6133 118.154 16.656L117.77 16.432L118.722 16.52L118.674 17H117.594C117.567 17 117.503 17.0027 117.402 17.008C117.301 17.0133 117.186 17.0187 117.058 17.024C116.935 17.0293 116.826 17.0347 116.73 17.04Z" fill="#2D2727"/>
</svg>
