<svg width="146" height="47" viewBox="0 0 146 47" fill="none" xmlns="http://www.w3.org/2000/svg">
<path d="M0 0H143C144.657 0 146 1.34315 146 3V44C146 45.6569 144.657 47 143 47H0V0Z" fill="#D9D9D9" fill-opacity="0.9"/>
<path d="M22.455 37.165C21.6337 37.165 20.9443 36.9963 20.387 36.659C19.837 36.3143 19.4227 35.8413 19.144 35.24C18.8653 34.6313 18.726 33.9273 18.726 33.128C18.726 32.3287 18.8653 31.6247 19.144 31.016C19.4227 30.4073 19.837 29.9343 20.387 29.597C20.9443 29.2523 21.6337 29.08 22.455 29.08C22.917 29.08 23.3313 29.1167 23.698 29.19C24.0647 29.2633 24.4313 29.3513 24.798 29.454L24.666 31.302L23.896 31.258L23.874 30.642C23.874 30.5687 23.841 30.4403 23.775 30.257C23.709 30.0737 23.6503 29.9087 23.599 29.762L24.171 30.268C23.863 30.18 23.566 30.1103 23.28 30.059C23.0013 30.0003 22.7263 29.971 22.455 29.971C21.9783 29.971 21.5897 30.1103 21.289 30.389C20.9883 30.6677 20.7683 31.0453 20.629 31.522C20.4897 31.9987 20.42 32.5303 20.42 33.117C20.42 33.7037 20.4897 34.2353 20.629 34.712C20.7683 35.1887 20.9847 35.57 21.278 35.856C21.5787 36.1347 21.9673 36.274 22.444 36.274C22.7227 36.274 23.0087 36.2483 23.302 36.197C23.6027 36.1457 23.929 36.0687 24.281 35.966L23.676 36.494C23.72 36.3913 23.7677 36.274 23.819 36.142C23.8703 36.01 23.9143 35.8853 23.951 35.768C23.995 35.6507 24.017 35.5663 24.017 35.515L24.05 34.998L24.809 34.976L24.897 36.791C24.5377 36.879 24.1527 36.9633 23.742 37.044C23.3387 37.1247 22.9097 37.165 22.455 37.165ZM26.1872 37.055L26.1322 36.318L27.5182 36.065L26.7922 36.681C26.8142 36.5783 26.8362 36.4353 26.8582 36.252C26.8875 36.0613 26.9132 35.8743 26.9352 35.691C26.9572 35.5003 26.9682 35.35 26.9682 35.24V33.381C26.9682 33.2783 26.9572 33.128 26.9352 32.93C26.9132 32.7247 26.8838 32.523 26.8472 32.325C26.8178 32.127 26.7958 31.984 26.7812 31.896L27.4962 32.589L26.0332 32.358L26.1322 31.566H27.8922L28.1232 31.775L28.3982 33.722L27.8702 33.106C27.9582 32.9447 28.0572 32.7723 28.1672 32.589C28.2772 32.3983 28.4055 32.2187 28.5522 32.05C28.7062 31.874 28.8822 31.7347 29.0802 31.632C29.2855 31.522 29.5238 31.467 29.7952 31.467C29.9418 31.467 30.0885 31.478 30.2352 31.5C30.3892 31.522 30.5358 31.5477 30.6752 31.577L30.5212 33.733L29.7292 33.7V33.106C29.7292 33.084 29.7182 33.018 29.6962 32.908C29.6815 32.798 29.6632 32.6843 29.6412 32.567C29.6265 32.4497 29.6082 32.3653 29.5862 32.314L29.9492 32.567C29.8978 32.5523 29.8355 32.5413 29.7622 32.534C29.6962 32.5267 29.6302 32.523 29.5642 32.523C29.2708 32.523 29.0068 32.655 28.7722 32.919C28.5448 33.183 28.4312 33.5643 28.4312 34.063V34.91C28.4312 35.2767 28.4495 35.614 28.4862 35.922C28.5302 36.2227 28.5632 36.4573 28.5852 36.626L27.8702 36.109L29.4652 36.241L29.4102 37H27.4962C27.4522 37 27.3532 37.0037 27.1992 37.011C27.0452 37.0183 26.8728 37.0257 26.6822 37.033C26.4988 37.0403 26.3338 37.0477 26.1872 37.055ZM33.9888 39.695L32.9108 39.486L32.8448 39.266C32.9621 39.024 33.0611 38.8113 33.1418 38.628C33.2298 38.452 33.3141 38.265 33.3948 38.067C33.4828 37.8763 33.5744 37.649 33.6698 37.385C33.7724 37.121 33.8971 36.7873 34.0438 36.384V37.616L32.4268 33.414C32.3168 33.1353 32.1958 32.8567 32.0638 32.578C31.9391 32.292 31.8144 32.0097 31.6898 31.731L32.5918 32.457L31.2718 32.314L31.3378 31.566H34.0658L34.1098 32.27L32.9438 32.402L33.4608 31.687C33.5121 31.9217 33.5561 32.1563 33.5928 32.391C33.6368 32.6257 33.6991 32.8603 33.7798 33.095L34.7148 35.966H34.3298L35.2208 33.095C35.2941 32.8677 35.3491 32.633 35.3858 32.391C35.4298 32.149 35.4664 31.9143 35.4958 31.687L36.0348 32.413L34.8578 32.27L34.9128 31.566H37.3878L37.4318 32.27L36.2328 32.402L37.1458 31.731C37.0211 32.0097 36.8928 32.2883 36.7608 32.567C36.6361 32.8457 36.5188 33.1243 36.4088 33.403L33.9888 39.695ZM38.1755 39.563L38.1205 38.914L39.3525 38.661L38.6265 39.189C38.6485 39.0863 38.6705 38.9397 38.6925 38.749C38.7218 38.5657 38.7475 38.3787 38.7695 38.188C38.7915 38.0047 38.8025 37.858 38.8025 37.748V33.381C38.8025 33.2783 38.7878 33.128 38.7585 32.93C38.7365 32.7247 38.7071 32.523 38.6705 32.325C38.6411 32.127 38.6191 31.984 38.6045 31.896L39.3305 32.589L37.8675 32.358L37.9665 31.566H39.7265L39.9575 31.775L40.1555 33.194L39.8035 33.04C39.9648 32.6733 40.1408 32.369 40.3315 32.127C40.5295 31.885 40.7495 31.7053 40.9915 31.588C41.2335 31.4707 41.5085 31.412 41.8165 31.412C42.4911 31.412 43.0118 31.6503 43.3785 32.127C43.7451 32.6037 43.9285 33.2747 43.9285 34.14C43.9285 34.7633 43.8185 35.2987 43.5985 35.746C43.3858 36.186 43.0741 36.5233 42.6635 36.758C42.2601 36.9927 41.7688 37.11 41.1895 37.11C41.0208 37.11 40.8411 37.099 40.6505 37.077C40.4671 37.055 40.2765 37.0293 40.0785 37L40.0675 35.845C40.2581 35.933 40.4378 35.999 40.6065 36.043C40.7825 36.087 40.9365 36.109 41.0685 36.109C41.4865 36.109 41.7908 35.9623 41.9815 35.669C42.1721 35.3757 42.2675 34.91 42.2675 34.272C42.2675 33.6927 42.1868 33.2673 42.0255 32.996C41.8715 32.7173 41.6221 32.578 41.2775 32.578C40.9695 32.578 40.7238 32.7137 40.5405 32.985C40.3571 33.249 40.2655 33.6047 40.2655 34.052V37.418C40.2655 37.7847 40.2838 38.1183 40.3205 38.419C40.3571 38.727 40.3901 38.9653 40.4195 39.134L39.7045 38.716L41.2665 38.848L41.2115 39.508H39.3305C39.2865 39.508 39.1985 39.5117 39.0665 39.519C38.9418 39.5263 38.7988 39.5337 38.6375 39.541C38.4761 39.5483 38.3221 39.5557 38.1755 39.563ZM46.978 37.165C46.428 37.165 46.0394 37.011 45.812 36.703C45.5847 36.395 45.471 35.9697 45.471 35.427V31.709L46.098 32.358H44.679L44.646 31.698C44.778 31.6467 44.9284 31.588 45.097 31.522C45.273 31.456 45.449 31.3863 45.625 31.313C45.801 31.2323 45.9477 31.159 46.065 31.093L45.537 31.577C45.5957 31.5037 45.6617 31.4083 45.735 31.291C45.8084 31.1737 45.8817 31.0527 45.955 30.928C46.0284 30.796 46.098 30.675 46.164 30.565C46.23 30.4477 46.2814 30.356 46.318 30.29L46.923 30.334V35.46C46.923 35.658 46.967 35.823 47.055 35.955C47.1504 36.087 47.297 36.153 47.495 36.153C47.627 36.153 47.7517 36.131 47.869 36.087C47.9937 36.0357 48.1184 35.9733 48.243 35.9L48.606 36.527C48.3567 36.703 48.089 36.8533 47.803 36.978C47.5244 37.1027 47.2494 37.165 46.978 37.165ZM46.714 32.358V31.566H48.331L48.232 32.358H46.714ZM52.0625 37.154C51.4832 37.154 50.9919 37.0403 50.5885 36.813C50.1925 36.5857 49.8882 36.2593 49.6755 35.834C49.4702 35.4013 49.3675 34.8843 49.3675 34.283C49.3675 33.6817 49.4702 33.1683 49.6755 32.743C49.8882 32.3103 50.1925 31.984 50.5885 31.764C50.9919 31.5367 51.4832 31.423 52.0625 31.423C52.9279 31.423 53.5879 31.6723 54.0425 32.171C54.5045 32.6697 54.7355 33.3737 54.7355 34.283C54.7355 34.8843 54.6329 35.4013 54.4275 35.834C54.2222 36.2593 53.9215 36.5857 53.5255 36.813C53.1295 37.0403 52.6419 37.154 52.0625 37.154ZM52.0625 36.274C52.3119 36.274 52.5135 36.2007 52.6675 36.054C52.8289 35.9 52.9425 35.6763 53.0085 35.383C53.0819 35.0897 53.1185 34.723 53.1185 34.283C53.1185 33.843 53.0819 33.48 53.0085 33.194C52.9425 32.9007 52.8289 32.6807 52.6675 32.534C52.5135 32.38 52.3119 32.303 52.0625 32.303C51.8059 32.303 51.6005 32.38 51.4465 32.534C51.2925 32.6807 51.1789 32.9007 51.1055 33.194C51.0322 33.48 50.9955 33.843 50.9955 34.283C50.9955 34.723 51.0322 35.0897 51.1055 35.383C51.1789 35.6763 51.2925 35.9 51.4465 36.054C51.6005 36.2007 51.8059 36.274 52.0625 36.274ZM59.6767 37.165C58.8553 37.165 58.166 36.9963 57.6087 36.659C57.0587 36.3143 56.6443 35.8413 56.3657 35.24C56.087 34.6313 55.9477 33.9273 55.9477 33.128C55.9477 32.3287 56.087 31.6247 56.3657 31.016C56.6443 30.4073 57.0587 29.9343 57.6087 29.597C58.166 29.2523 58.8553 29.08 59.6767 29.08C60.1387 29.08 60.553 29.1167 60.9197 29.19C61.2863 29.2633 61.653 29.3513 62.0197 29.454L61.8877 31.302L61.1177 31.258L61.0957 30.642C61.0957 30.5687 61.0627 30.4403 60.9967 30.257C60.9307 30.0737 60.872 29.9087 60.8207 29.762L61.3927 30.268C61.0847 30.18 60.7877 30.1103 60.5017 30.059C60.223 30.0003 59.948 29.971 59.6767 29.971C59.2 29.971 58.8113 30.1103 58.5107 30.389C58.21 30.6677 57.99 31.0453 57.8507 31.522C57.7113 31.9987 57.6417 32.5303 57.6417 33.117C57.6417 33.7037 57.7113 34.2353 57.8507 34.712C57.99 35.1887 58.2063 35.57 58.4997 35.856C58.8003 36.1347 59.189 36.274 59.6657 36.274C59.9443 36.274 60.2303 36.2483 60.5237 36.197C60.8243 36.1457 61.1507 36.0687 61.5027 35.966L60.8977 36.494C60.9417 36.3913 60.9893 36.274 61.0407 36.142C61.092 36.01 61.136 35.8853 61.1727 35.768C61.2167 35.6507 61.2387 35.5663 61.2387 35.515L61.2717 34.998L62.0307 34.976L62.1187 36.791C61.7593 36.879 61.3743 36.9633 60.9637 37.044C60.5603 37.1247 60.1313 37.165 59.6767 37.165ZM66.0489 37.154C65.4695 37.154 64.9782 37.0403 64.5749 36.813C64.1789 36.5857 63.8745 36.2593 63.6619 35.834C63.4565 35.4013 63.3539 34.8843 63.3539 34.283C63.3539 33.6817 63.4565 33.1683 63.6619 32.743C63.8745 32.3103 64.1789 31.984 64.5749 31.764C64.9782 31.5367 65.4695 31.423 66.0489 31.423C66.9142 31.423 67.5742 31.6723 68.0289 32.171C68.4909 32.6697 68.7219 33.3737 68.7219 34.283C68.7219 34.8843 68.6192 35.4013 68.4139 35.834C68.2085 36.2593 67.9079 36.5857 67.5119 36.813C67.1159 37.0403 66.6282 37.154 66.0489 37.154ZM66.0489 36.274C66.2982 36.274 66.4999 36.2007 66.6539 36.054C66.8152 35.9 66.9289 35.6763 66.9949 35.383C67.0682 35.0897 67.1049 34.723 67.1049 34.283C67.1049 33.843 67.0682 33.48 66.9949 33.194C66.9289 32.9007 66.8152 32.6807 66.6539 32.534C66.4999 32.38 66.2982 32.303 66.0489 32.303C65.7922 32.303 65.5869 32.38 65.4329 32.534C65.2789 32.6807 65.1652 32.9007 65.0919 33.194C65.0185 33.48 64.9819 33.843 64.9819 34.283C64.9819 34.723 65.0185 35.0897 65.0919 35.383C65.1652 35.6763 65.2789 35.9 65.4329 36.054C65.5869 36.2007 65.7922 36.274 66.0489 36.274ZM69.736 37.055L69.681 36.318L71.067 36.065L70.341 36.681C70.363 36.5783 70.385 36.4353 70.407 36.252C70.4363 36.0613 70.462 35.8743 70.484 35.691C70.506 35.5003 70.517 35.35 70.517 35.24V33.381C70.517 33.2783 70.506 33.128 70.484 32.93C70.462 32.732 70.4327 32.5303 70.396 32.325C70.3667 32.1197 70.341 31.9437 70.319 31.797L71.045 32.589L69.582 32.358L69.681 31.566H71.859L72.09 31.775C72.0753 31.9217 72.057 32.116 72.035 32.358C72.0203 32.5927 72.0057 32.8347 71.991 33.084C71.9837 33.326 71.98 33.535 71.98 33.711V34.91C71.98 35.2767 71.9983 35.614 72.035 35.922C72.079 36.2227 72.112 36.4573 72.134 36.626L71.419 36.109L72.805 36.241L72.75 37H71.045C71.001 37 70.902 37.0037 70.748 37.011C70.594 37.0183 70.4217 37.0257 70.231 37.033C70.0477 37.0403 69.8827 37.0477 69.736 37.055ZM70.968 30.653C70.7407 30.653 70.5647 30.576 70.44 30.422C70.3153 30.2607 70.253 30.07 70.253 29.85C70.253 29.6153 70.3153 29.421 70.44 29.267C70.5647 29.113 70.7407 29.036 70.968 29.036C71.2027 29.036 71.3823 29.1093 71.507 29.256C71.639 29.3953 71.705 29.5933 71.705 29.85C71.705 30.0773 71.639 30.268 71.507 30.422C71.3823 30.576 71.2027 30.653 70.968 30.653ZM73.571 37.055L73.516 36.318L74.902 36.065L74.176 36.681C74.198 36.5783 74.22 36.4353 74.242 36.252C74.2713 36.0613 74.297 35.8743 74.319 35.691C74.341 35.5003 74.352 35.35 74.352 35.24V33.381C74.352 33.2783 74.341 33.128 74.319 32.93C74.297 32.7247 74.2676 32.523 74.231 32.325C74.2016 32.127 74.1796 31.984 74.165 31.896L74.88 32.589L73.417 32.358L73.516 31.566H75.276L75.507 31.775L75.782 33.722L75.342 32.985C75.496 32.6917 75.6683 32.4277 75.859 32.193C76.057 31.951 76.2843 31.7603 76.541 31.621C76.7976 31.4817 77.091 31.412 77.421 31.412C77.839 31.412 78.18 31.4927 78.444 31.654C78.7153 31.808 78.917 32.0353 79.049 32.336C79.1883 32.6293 79.258 32.996 79.258 33.436V34.91C79.258 35.2767 79.2763 35.614 79.313 35.922C79.357 36.23 79.39 36.4573 79.412 36.604L78.697 36.109L80.083 36.241L80.028 37H78.455C78.389 37 78.279 37.0037 78.125 37.011C77.971 37.0183 77.806 37.0257 77.63 37.033C77.4613 37.0403 77.3036 37.0477 77.157 37.055L77.102 36.318L78.378 36.043L77.696 36.648C77.7106 36.516 77.7253 36.3547 77.74 36.164C77.7546 35.966 77.7656 35.779 77.773 35.603C77.7876 35.4197 77.795 35.2987 77.795 35.24V33.568C77.795 33.3627 77.7656 33.1757 77.707 33.007C77.6556 32.8383 77.5676 32.7063 77.443 32.611C77.3183 32.5083 77.1533 32.457 76.948 32.457C76.6546 32.457 76.3906 32.6 76.156 32.886C75.9286 33.172 75.815 33.568 75.815 34.074V34.91C75.815 35.2767 75.8333 35.614 75.87 35.922C75.914 36.2227 75.947 36.4573 75.969 36.626L75.254 36.109L76.64 36.241L76.585 37H74.88C74.836 37 74.737 37.0037 74.583 37.011C74.429 37.0183 74.2566 37.0257 74.066 37.033C73.8826 37.0403 73.7176 37.0477 73.571 37.055ZM82.8892 37.165C82.3392 37.165 81.9505 37.011 81.7232 36.703C81.4958 36.395 81.3822 35.9697 81.3822 35.427V31.709L82.0092 32.358H80.5902L80.5572 31.698C80.6892 31.6467 80.8395 31.588 81.0082 31.522C81.1842 31.456 81.3602 31.3863 81.5362 31.313C81.7122 31.2323 81.8588 31.159 81.9762 31.093L81.4482 31.577C81.5068 31.5037 81.5728 31.4083 81.6462 31.291C81.7195 31.1737 81.7928 31.0527 81.8662 30.928C81.9395 30.796 82.0092 30.675 82.0752 30.565C82.1412 30.4477 82.1925 30.356 82.2292 30.29L82.8342 30.334V35.46C82.8342 35.658 82.8782 35.823 82.9662 35.955C83.0615 36.087 83.2082 36.153 83.4062 36.153C83.5382 36.153 83.6628 36.131 83.7802 36.087C83.9048 36.0357 84.0295 35.9733 84.1542 35.9L84.5172 36.527C84.2678 36.703 84.0002 36.8533 83.7142 36.978C83.4355 37.1027 83.1605 37.165 82.8892 37.165ZM82.6252 32.358V31.566H84.2422L84.1432 32.358H82.6252ZM87.3467 37.11C87.024 37.11 86.694 37.077 86.3567 37.011C86.0267 36.9523 85.715 36.89 85.4217 36.824L85.5427 35.053L86.3017 35.097V35.592C86.3017 35.6287 86.3127 35.6947 86.3347 35.79C86.364 35.8853 86.397 35.988 86.4337 36.098C86.4703 36.2007 86.5033 36.296 86.5327 36.384L86.0927 35.878C86.2393 35.9587 86.4337 36.0467 86.6757 36.142C86.9177 36.2373 87.1523 36.285 87.3797 36.285C87.5777 36.285 87.7463 36.241 87.8857 36.153C88.0323 36.065 88.1057 35.933 88.1057 35.757C88.1057 35.5663 88.014 35.4233 87.8307 35.328C87.6547 35.2253 87.4383 35.1153 87.1817 34.998C87.0057 34.91 86.815 34.8183 86.6097 34.723C86.4043 34.6203 86.2137 34.4993 86.0377 34.36C85.869 34.2207 85.7297 34.0557 85.6197 33.865C85.5097 33.667 85.4547 33.425 85.4547 33.139C85.4547 32.5597 85.638 32.1307 86.0047 31.852C86.3787 31.566 86.8663 31.423 87.4677 31.423C87.8417 31.423 88.168 31.4487 88.4467 31.5C88.7253 31.544 88.9783 31.6027 89.2057 31.676L89.0847 33.403L88.3587 33.348V32.886C88.3587 32.8493 88.3367 32.7687 88.2927 32.644C88.2487 32.5193 88.1973 32.391 88.1387 32.259C88.08 32.127 88.036 32.0317 88.0067 31.973L88.5237 32.567C88.377 32.4863 88.2193 32.4167 88.0507 32.358C87.882 32.292 87.6767 32.259 87.4347 32.259C87.1853 32.259 87.002 32.3067 86.8847 32.402C86.7673 32.49 86.7087 32.5963 86.7087 32.721C86.7087 32.8897 86.8003 33.029 86.9837 33.139C87.1743 33.2417 87.3943 33.3443 87.6437 33.447C87.8417 33.5277 88.0433 33.6193 88.2487 33.722C88.4613 33.8173 88.6593 33.9347 88.8427 34.074C89.026 34.2133 89.1727 34.393 89.2827 34.613C89.4 34.8257 89.4587 35.086 89.4587 35.394C89.4587 35.966 89.2643 36.395 88.8757 36.681C88.487 36.967 87.9773 37.11 87.3467 37.11ZM92.7056 37.055L92.6506 36.362L94.0146 36.109L93.3546 36.659C93.384 36.4977 93.4096 36.3327 93.4316 36.164C93.4536 35.988 93.472 35.823 93.4866 35.669C93.5086 35.5077 93.5196 35.3867 93.5196 35.306V30.939C93.5196 30.8363 93.5086 30.7117 93.4866 30.565C93.472 30.411 93.4536 30.257 93.4316 30.103C93.4096 29.9417 93.3913 29.8023 93.3766 29.685L94.0146 30.169L92.6616 29.938L92.7166 29.19C92.8486 29.1973 92.999 29.2047 93.1676 29.212C93.3363 29.2193 93.4976 29.2267 93.6516 29.234C93.8056 29.2413 93.9303 29.245 94.0256 29.245H96.6656C96.739 29.245 96.8526 29.2413 97.0066 29.234C97.1606 29.2267 97.322 29.2193 97.4906 29.212C97.6593 29.2047 97.8023 29.1973 97.9196 29.19L98.1286 29.388L98.2056 30.972L97.4686 31.027C97.4613 30.939 97.4466 30.8363 97.4246 30.719C97.41 30.5943 97.388 30.488 97.3586 30.4C97.344 30.3413 97.3073 30.2607 97.2486 30.158C97.1973 30.048 97.135 29.9307 97.0616 29.806L97.5126 30.125C97.4393 30.1177 97.2816 30.103 97.0396 30.081C96.805 30.059 96.5703 30.048 96.3356 30.048H94.4656L95.0816 29.751C95.0816 29.8023 95.0743 29.9197 95.0596 30.103C95.045 30.279 95.0266 30.4733 95.0046 30.686C94.99 30.8987 94.9826 31.093 94.9826 31.269V34.976C94.9826 35.1667 94.99 35.3683 95.0046 35.581C95.0266 35.7937 95.0486 35.9953 95.0706 36.186C95.1 36.3693 95.1256 36.5233 95.1476 36.648L94.4986 36.175L96.1486 36.285L96.0826 37H94.3006C94.2273 37 94.099 37.0037 93.9156 37.011C93.7323 37.0183 93.5306 37.0257 93.3106 37.033C93.098 37.0403 92.8963 37.0477 92.7056 37.055ZM96.6656 34.294L96.5226 33.293L96.9736 33.634C96.8783 33.6267 96.7573 33.6193 96.6106 33.612C96.4713 33.5973 96.3283 33.5863 96.1816 33.579C96.035 33.5643 95.9103 33.557 95.8076 33.557H94.4216V32.743H96.0276C96.1376 32.743 96.2733 32.7283 96.4346 32.699C96.6033 32.6697 96.7426 32.6403 96.8526 32.611L96.5226 33.029L96.6656 31.94L97.2816 31.995V32.908C97.2816 33.106 97.2853 33.337 97.2926 33.601C97.3 33.8577 97.3073 34.0667 97.3146 34.228L96.6656 34.294ZM101.939 37.154C101.359 37.154 100.868 37.0403 100.465 36.813C100.069 36.5857 99.7642 36.2593 99.5515 35.834C99.3462 35.4013 99.2435 34.8843 99.2435 34.283C99.2435 33.6817 99.3462 33.1683 99.5515 32.743C99.7642 32.3103 100.069 31.984 100.465 31.764C100.868 31.5367 101.359 31.423 101.939 31.423C102.804 31.423 103.464 31.6723 103.919 32.171C104.381 32.6697 104.612 33.3737 104.612 34.283C104.612 34.8843 104.509 35.4013 104.304 35.834C104.098 36.2593 103.798 36.5857 103.402 36.813C103.006 37.0403 102.518 37.154 101.939 37.154ZM101.939 36.274C102.188 36.274 102.39 36.2007 102.544 36.054C102.705 35.9 102.819 35.6763 102.885 35.383C102.958 35.0897 102.995 34.723 102.995 34.283C102.995 33.843 102.958 33.48 102.885 33.194C102.819 32.9007 102.705 32.6807 102.544 32.534C102.39 32.38 102.188 32.303 101.939 32.303C101.682 32.303 101.477 32.38 101.323 32.534C101.169 32.6807 101.055 32.9007 100.982 33.194C100.908 33.48 100.872 33.843 100.872 34.283C100.872 34.723 100.908 35.0897 100.982 35.383C101.055 35.6763 101.169 35.9 101.323 36.054C101.477 36.2007 101.682 36.274 101.939 36.274ZM105.626 37.055L105.571 36.318L106.957 36.065L106.231 36.681C106.253 36.5783 106.275 36.4353 106.297 36.252C106.326 36.0613 106.352 35.8743 106.374 35.691C106.396 35.5003 106.407 35.35 106.407 35.24V33.381C106.407 33.2783 106.396 33.128 106.374 32.93C106.352 32.7247 106.322 32.523 106.286 32.325C106.256 32.127 106.234 31.984 106.22 31.896L106.935 32.589L105.472 32.358L105.571 31.566H107.331L107.562 31.775L107.837 33.722L107.309 33.106C107.397 32.9447 107.496 32.7723 107.606 32.589C107.716 32.3983 107.844 32.2187 107.991 32.05C108.145 31.874 108.321 31.7347 108.519 31.632C108.724 31.522 108.962 31.467 109.234 31.467C109.38 31.467 109.527 31.478 109.674 31.5C109.828 31.522 109.974 31.5477 110.114 31.577L109.96 33.733L109.168 33.7V33.106C109.168 33.084 109.157 33.018 109.135 32.908C109.12 32.798 109.102 32.6843 109.08 32.567C109.065 32.4497 109.047 32.3653 109.025 32.314L109.388 32.567C109.336 32.5523 109.274 32.5413 109.201 32.534C109.135 32.5267 109.069 32.523 109.003 32.523C108.709 32.523 108.445 32.655 108.211 32.919C107.983 33.183 107.87 33.5643 107.87 34.063V34.91C107.87 35.2767 107.888 35.614 107.925 35.922C107.969 36.2227 108.002 36.4573 108.024 36.626L107.309 36.109L108.904 36.241L108.849 37H106.935C106.891 37 106.792 37.0037 106.638 37.011C106.484 37.0183 106.311 37.0257 106.121 37.033C105.937 37.0403 105.772 37.0477 105.626 37.055ZM113.647 37.154C113.09 37.154 112.61 37.044 112.206 36.824C111.81 36.5967 111.502 36.2703 111.282 35.845C111.07 35.4123 110.963 34.899 110.963 34.305C110.963 33.6817 111.073 33.1573 111.293 32.732C111.513 32.2993 111.818 31.973 112.206 31.753C112.595 31.5257 113.053 31.412 113.581 31.412C114.102 31.412 114.535 31.522 114.879 31.742C115.231 31.9547 115.492 32.2627 115.66 32.666C115.829 33.0693 115.895 33.557 115.858 34.129L115.638 34.547H112.492L112.503 33.777L114.879 33.645L114.131 34.327C114.153 34.1877 114.175 34.052 114.197 33.92C114.219 33.788 114.23 33.6523 114.23 33.513C114.23 33.095 114.168 32.7797 114.043 32.567C113.919 32.347 113.728 32.237 113.471 32.237C113.303 32.237 113.16 32.2883 113.042 32.391C112.925 32.4937 112.837 32.633 112.778 32.809C112.727 32.985 112.687 33.1903 112.657 33.425C112.635 33.6597 112.624 33.9163 112.624 34.195C112.624 34.5397 112.65 34.8367 112.701 35.086C112.76 35.328 112.844 35.5297 112.954 35.691C113.072 35.845 113.218 35.9587 113.394 36.032C113.57 36.1053 113.779 36.142 114.021 36.142C114.322 36.142 114.593 36.1017 114.835 36.021C115.085 35.933 115.272 35.8487 115.396 35.768L115.77 36.395C115.653 36.505 115.514 36.6077 115.352 36.703C115.198 36.791 115.033 36.8717 114.857 36.945C114.681 37.011 114.491 37.0623 114.285 37.099C114.08 37.1357 113.867 37.154 113.647 37.154ZM119.535 37.154C118.941 37.154 118.442 37.044 118.039 36.824C117.636 36.604 117.328 36.2777 117.115 35.845C116.91 35.4123 116.807 34.888 116.807 34.272C116.807 33.6853 116.913 33.1793 117.126 32.754C117.346 32.3213 117.654 31.9913 118.05 31.764C118.453 31.5293 118.934 31.412 119.491 31.412C119.821 31.412 120.14 31.4413 120.448 31.5C120.763 31.5513 121.082 31.6137 121.405 31.687L121.251 33.568L120.349 33.535L120.36 32.963C120.353 32.8237 120.338 32.6807 120.316 32.534C120.294 32.3873 120.254 32.2407 120.195 32.094L120.811 32.776C120.642 32.6513 120.452 32.534 120.239 32.424C120.026 32.3067 119.803 32.248 119.568 32.248C119.319 32.248 119.11 32.325 118.941 32.479C118.78 32.6257 118.659 32.8493 118.578 33.15C118.505 33.4507 118.468 33.8247 118.468 34.272C118.468 34.6753 118.516 35.0163 118.611 35.295C118.714 35.5663 118.864 35.7753 119.062 35.922C119.26 36.0613 119.509 36.131 119.81 36.131C120.045 36.131 120.268 36.1017 120.481 36.043C120.694 35.9843 120.91 35.8963 121.13 35.779L121.504 36.395C121.225 36.6443 120.914 36.835 120.569 36.967C120.224 37.0917 119.88 37.154 119.535 37.154ZM124.075 37.11C123.576 37.11 123.18 36.9743 122.887 36.703C122.601 36.4243 122.458 36.0467 122.458 35.57C122.458 35.1667 122.572 34.833 122.799 34.569C123.034 34.305 123.404 34.1327 123.91 34.052L125.67 33.766V34.459L124.592 34.646C124.379 34.6753 124.225 34.7523 124.13 34.877C124.042 34.9943 123.998 35.1483 123.998 35.339C123.998 35.5663 124.049 35.7387 124.152 35.856C124.255 35.9733 124.412 36.032 124.625 36.032C124.838 36.032 125.021 35.9623 125.175 35.823C125.336 35.6837 125.443 35.4967 125.494 35.262V33.414C125.494 33.04 125.428 32.7723 125.296 32.611C125.171 32.4423 124.955 32.358 124.647 32.358C124.515 32.358 124.365 32.3763 124.196 32.413C124.035 32.4497 123.881 32.4937 123.734 32.545C123.587 32.589 123.474 32.6257 123.393 32.655L123.844 31.929L123.657 33.007L123.668 33.48L122.865 33.513L122.711 31.698C122.931 31.6393 123.162 31.5917 123.404 31.555C123.653 31.511 123.892 31.478 124.119 31.456C124.346 31.4267 124.544 31.412 124.713 31.412C125.432 31.412 125.985 31.5843 126.374 31.929C126.763 32.2737 126.957 32.776 126.957 33.436V34.91C126.957 35.284 126.975 35.6177 127.012 35.911C127.056 36.197 127.093 36.4243 127.122 36.593L126.407 36.109L127.727 36.241L127.661 37H125.714L125.538 35.548L125.835 35.691C125.74 36.0063 125.608 36.2703 125.439 36.483C125.278 36.6957 125.083 36.8533 124.856 36.956C124.629 37.0587 124.368 37.11 124.075 37.11ZM130.52 37.11C130.197 37.11 129.867 37.077 129.53 37.011C129.2 36.9523 128.888 36.89 128.595 36.824L128.716 35.053L129.475 35.097V35.592C129.475 35.6287 129.486 35.6947 129.508 35.79C129.537 35.8853 129.57 35.988 129.607 36.098C129.643 36.2007 129.676 36.296 129.706 36.384L129.266 35.878C129.412 35.9587 129.607 36.0467 129.849 36.142C130.091 36.2373 130.325 36.285 130.553 36.285C130.751 36.285 130.919 36.241 131.059 36.153C131.205 36.065 131.279 35.933 131.279 35.757C131.279 35.5663 131.187 35.4233 131.004 35.328C130.828 35.2253 130.611 35.1153 130.355 34.998C130.179 34.91 129.988 34.8183 129.783 34.723C129.577 34.6203 129.387 34.4993 129.211 34.36C129.042 34.2207 128.903 34.0557 128.793 33.865C128.683 33.667 128.628 33.425 128.628 33.139C128.628 32.5597 128.811 32.1307 129.178 31.852C129.552 31.566 130.039 31.423 130.641 31.423C131.015 31.423 131.341 31.4487 131.62 31.5C131.898 31.544 132.151 31.6027 132.379 31.676L132.258 33.403L131.532 33.348V32.886C131.532 32.8493 131.51 32.7687 131.466 32.644C131.422 32.5193 131.37 32.391 131.312 32.259C131.253 32.127 131.209 32.0317 131.18 31.973L131.697 32.567C131.55 32.4863 131.392 32.4167 131.224 32.358C131.055 32.292 130.85 32.259 130.608 32.259C130.358 32.259 130.175 32.3067 130.058 32.402C129.94 32.49 129.882 32.5963 129.882 32.721C129.882 32.8897 129.973 33.029 130.157 33.139C130.347 33.2417 130.567 33.3443 130.817 33.447C131.015 33.5277 131.216 33.6193 131.422 33.722C131.634 33.8173 131.832 33.9347 132.016 34.074C132.199 34.2133 132.346 34.393 132.456 34.613C132.573 34.8257 132.632 35.086 132.632 35.394C132.632 35.966 132.437 36.395 132.049 36.681C131.66 36.967 131.15 37.11 130.52 37.11ZM135.709 37.165C135.159 37.165 134.77 37.011 134.543 36.703C134.315 36.395 134.202 35.9697 134.202 35.427V31.709L134.829 32.358H133.41L133.377 31.698C133.509 31.6467 133.659 31.588 133.828 31.522C134.004 31.456 134.18 31.3863 134.356 31.313C134.532 31.2323 134.678 31.159 134.796 31.093L134.268 31.577C134.326 31.5037 134.392 31.4083 134.466 31.291C134.539 31.1737 134.612 31.0527 134.686 30.928C134.759 30.796 134.829 30.675 134.895 30.565C134.961 30.4477 135.012 30.356 135.049 30.29L135.654 30.334V35.46C135.654 35.658 135.698 35.823 135.786 35.955C135.881 36.087 136.028 36.153 136.226 36.153C136.358 36.153 136.482 36.131 136.6 36.087C136.724 36.0357 136.849 35.9733 136.974 35.9L137.337 36.527C137.087 36.703 136.82 36.8533 136.534 36.978C136.255 37.1027 135.98 37.165 135.709 37.165ZM135.445 32.358V31.566H137.062L136.963 32.358H135.445Z" fill="black"/>
<path d="M18 20H60" stroke="#068486"/>
<path d="M18.432 17.04L18.392 16.592L19.344 16.408L18.912 16.792C18.9227 16.7493 18.9387 16.688 18.96 16.608C18.9867 16.5227 19.0107 16.432 19.032 16.336C19.0587 16.2347 19.08 16.1413 19.096 16.056C19.1173 15.9707 19.128 15.9013 19.128 15.848L19.328 12.504C19.3333 12.4347 19.3333 12.344 19.328 12.232C19.3227 12.1147 19.3147 12 19.304 11.888C19.2933 11.7707 19.2827 11.68 19.272 11.616L19.64 11.944L18.68 11.792L18.72 11.32C18.816 11.3253 18.9253 11.3307 19.048 11.336C19.1707 11.3413 19.2853 11.3467 19.392 11.352C19.504 11.3573 19.5893 11.36 19.648 11.36H20.376L20.536 11.528C20.584 11.6667 20.6347 11.824 20.688 12C20.7413 12.1707 20.7893 12.3253 20.832 12.464C20.88 12.6027 20.912 12.6987 20.928 12.752L22.056 15.824H21.816L22.968 12.68C22.9893 12.632 23.0213 12.544 23.064 12.416C23.112 12.288 23.1627 12.1413 23.216 11.976C23.2747 11.8107 23.3253 11.6587 23.368 11.52L23.528 11.36H23.88C24.072 11.36 24.2747 11.3547 24.488 11.344C24.7067 11.3333 24.904 11.3253 25.08 11.32L25.112 11.832L24.16 11.92L24.512 11.68C24.5067 11.8507 24.5013 12.04 24.496 12.248C24.4907 12.456 24.4907 12.624 24.496 12.752L24.72 15.608C24.7253 15.6667 24.736 15.752 24.752 15.864C24.7733 15.9707 24.7947 16.0853 24.816 16.208C24.8373 16.3253 24.8587 16.44 24.88 16.552C24.9013 16.6587 24.92 16.7387 24.936 16.792L24.52 16.448L25.488 16.528L25.44 17H24.384C24.3147 17 24.216 17.0027 24.088 17.008C23.9653 17.0133 23.832 17.0187 23.688 17.024C23.5493 17.0293 23.4187 17.0347 23.296 17.04L23.256 16.592L24.192 16.408L23.8 16.792C23.8107 16.7387 23.824 16.6507 23.84 16.528C23.856 16.4053 23.8693 16.28 23.88 16.152C23.8907 16.0187 23.8933 15.9173 23.888 15.848L23.672 12.12L23.808 12.144L22.008 17H21.6L19.816 12.144L19.952 12.12L19.76 15.608C19.7547 15.6827 19.752 15.7787 19.752 15.896C19.7573 16.008 19.7627 16.1253 19.768 16.248C19.7787 16.3707 19.7893 16.4827 19.8 16.584C19.8107 16.68 19.8187 16.7493 19.824 16.792L19.448 16.448L20.416 16.528L20.36 17H19.392C19.344 17 19.264 17.0027 19.152 17.008C19.04 17.0133 18.9173 17.0187 18.784 17.024C18.656 17.0293 18.5387 17.0347 18.432 17.04ZM28.1386 17.096C27.728 17.096 27.3813 17.0107 27.0986 16.84C26.8213 16.6693 26.6106 16.4293 26.4666 16.12C26.3226 15.8107 26.2506 15.448 26.2506 15.032C26.2506 14.6107 26.3226 14.2453 26.4666 13.936C26.6106 13.6267 26.8213 13.3867 27.0986 13.216C27.3813 13.0453 27.728 12.96 28.1386 12.96C28.7573 12.96 29.224 13.1467 29.5386 13.52C29.8586 13.888 30.0186 14.392 30.0186 15.032C30.0186 15.448 29.9466 15.8107 29.8026 16.12C29.664 16.4293 29.4533 16.6693 29.1706 16.84C28.8933 17.0107 28.5493 17.096 28.1386 17.096ZM28.1386 16.568C28.3786 16.568 28.568 16.5013 28.7066 16.368C28.8506 16.2293 28.952 16.0453 29.0106 15.816C29.0746 15.5813 29.1066 15.32 29.1066 15.032C29.1066 14.7387 29.0746 14.4773 29.0106 14.248C28.952 14.0133 28.8506 13.8293 28.7066 13.696C28.568 13.5573 28.3786 13.488 28.1386 13.488C27.8986 13.488 27.7066 13.5573 27.5626 13.696C27.424 13.8293 27.3226 14.0107 27.2586 14.24C27.2 14.4693 27.1706 14.7333 27.1706 15.032C27.1706 15.32 27.2 15.5813 27.2586 15.816C27.3226 16.0453 27.424 16.2293 27.5626 16.368C27.7066 16.5013 27.8986 16.568 28.1386 16.568ZM32.6068 17.08C32.3028 17.08 32.0121 17.0533 31.7348 17C31.4575 16.9467 31.1935 16.8773 30.9428 16.792C30.9535 16.68 30.9641 16.5573 30.9748 16.424C30.9855 16.2853 30.9935 16.1627 30.9988 16.056C31.0041 15.944 31.0068 15.8693 31.0068 15.832V12.16C31.0068 12.1013 30.9988 12.0213 30.9828 11.92C30.9721 11.8133 30.9588 11.704 30.9428 11.592C30.9268 11.48 30.9108 11.3867 30.8948 11.312L31.2868 11.6L30.3268 11.384L30.3748 10.92L31.1828 10.952H31.7268L31.8868 11.096C31.8815 11.224 31.8708 11.3707 31.8548 11.536C31.8441 11.7013 31.8361 11.8613 31.8308 12.016C31.8255 12.1707 31.8228 12.2987 31.8228 12.4V13.928L31.7028 13.736C31.7775 13.6027 31.8681 13.4773 31.9748 13.36C32.0868 13.2427 32.2228 13.1467 32.3828 13.072C32.5428 12.9973 32.7295 12.96 32.9428 12.96C33.3055 12.96 33.6015 13.048 33.8308 13.224C34.0601 13.4 34.2281 13.64 34.3348 13.944C34.4468 14.2427 34.5028 14.5787 34.5028 14.952C34.5028 15.352 34.4281 15.7147 34.2788 16.04C34.1348 16.36 33.9188 16.6133 33.6308 16.8C33.3481 16.9867 33.0068 17.08 32.6068 17.08ZM31.8948 16.632L31.6548 16.36C31.7828 16.3973 31.9215 16.4347 32.0708 16.472C32.2255 16.504 32.3828 16.52 32.5428 16.52C32.8148 16.52 33.0255 16.4507 33.1748 16.312C33.3241 16.1733 33.4281 15.9893 33.4868 15.76C33.5508 15.5253 33.5828 15.272 33.5828 15C33.5828 14.7547 33.5588 14.5253 33.5108 14.312C33.4628 14.0987 33.3775 13.9253 33.2548 13.792C33.1321 13.6587 32.9508 13.592 32.7108 13.592C32.5081 13.592 32.3401 13.6507 32.2068 13.768C32.0788 13.8853 31.9828 14.04 31.9188 14.232C31.8601 14.4187 31.8308 14.6187 31.8308 14.832V15.592C31.8308 15.7253 31.8335 15.864 31.8388 16.008C31.8441 16.152 31.8521 16.28 31.8628 16.392C31.8735 16.4987 31.8841 16.5787 31.8948 16.632ZM35.2192 17.04L35.1792 16.584L36.1232 16.4L35.7072 16.768C35.7232 16.7093 35.7392 16.6213 35.7552 16.504C35.7765 16.3813 35.7952 16.256 35.8112 16.128C35.8272 16 35.8352 15.9013 35.8352 15.832V14.256C35.8352 14.1813 35.8272 14.0827 35.8112 13.96C35.8005 13.832 35.7845 13.7013 35.7632 13.568C35.7419 13.4347 35.7232 13.3227 35.7072 13.232L36.1152 13.696L35.1552 13.536L35.2032 13.048H36.5552L36.7152 13.192C36.7099 13.288 36.7019 13.4133 36.6912 13.568C36.6805 13.7227 36.6725 13.8827 36.6672 14.048C36.6619 14.2133 36.6592 14.3627 36.6592 14.496V15.592C36.6592 15.8267 36.6699 16.0533 36.6912 16.272C36.7125 16.4907 36.7312 16.656 36.7472 16.768L36.3472 16.432L37.2992 16.52L37.2512 17H36.1312C36.0885 17 36.0139 17.0027 35.9072 17.008C35.8005 17.0133 35.6832 17.0187 35.5552 17.024C35.4325 17.0293 35.3205 17.0347 35.2192 17.04ZM36.0912 12.32C35.9365 12.32 35.8165 12.2693 35.7312 12.168C35.6459 12.0667 35.6032 11.9387 35.6032 11.784C35.6032 11.624 35.6459 11.4933 35.7312 11.392C35.8165 11.2907 35.9365 11.24 36.0912 11.24C36.2512 11.24 36.3739 11.288 36.4592 11.384C36.5445 11.4747 36.5872 11.608 36.5872 11.784C36.5872 11.944 36.5445 12.0747 36.4592 12.176C36.3739 12.272 36.2512 12.32 36.0912 12.32ZM37.6846 17.04L37.6446 16.584L38.5886 16.4L38.1726 16.768C38.1886 16.7093 38.2046 16.6213 38.2206 16.504C38.2419 16.3813 38.2606 16.256 38.2766 16.128C38.2926 16 38.3006 15.9013 38.3006 15.832V12.16C38.3006 12.0853 38.2926 11.9867 38.2766 11.864C38.2606 11.736 38.2419 11.6053 38.2206 11.472C38.2046 11.3387 38.1886 11.2267 38.1726 11.136L38.5806 11.6L37.6206 11.384L37.6686 10.92L38.4766 10.952H39.0206L39.1806 11.096C39.1752 11.192 39.1672 11.3173 39.1566 11.472C39.1459 11.6267 39.1352 11.7867 39.1246 11.952C39.1192 12.1173 39.1166 12.2667 39.1166 12.4V15.592C39.1166 15.832 39.1272 16.0613 39.1486 16.28C39.1752 16.4933 39.1966 16.656 39.2126 16.768L38.8126 16.432L39.7646 16.52L39.7166 17H38.5966C38.5539 17 38.4792 17.0027 38.3726 17.008C38.2659 17.0133 38.1486 17.0187 38.0206 17.024C37.8979 17.0293 37.7859 17.0347 37.6846 17.04ZM42.1775 17.096C41.7775 17.096 41.4362 17.0107 41.1535 16.84C40.8762 16.6693 40.6628 16.4293 40.5135 16.12C40.3695 15.8107 40.2975 15.4507 40.2975 15.04C40.2975 14.6187 40.3668 14.2533 40.5055 13.944C40.6495 13.6347 40.8548 13.3947 41.1215 13.224C41.3882 13.048 41.7162 12.96 42.1055 12.96C42.4788 12.96 42.7828 13.04 43.0175 13.2C43.2522 13.3547 43.4228 13.5733 43.5295 13.856C43.6415 14.1387 43.6922 14.4747 43.6815 14.864L43.5375 15.144H41.0895V14.688L43.1375 14.552L42.7455 14.936C42.7508 14.8507 42.7562 14.768 42.7615 14.688C42.7722 14.6027 42.7775 14.5173 42.7775 14.432C42.7775 14.1387 42.7188 13.9013 42.6015 13.72C42.4842 13.5387 42.3028 13.448 42.0575 13.448C41.8922 13.448 41.7535 13.4907 41.6415 13.576C41.5295 13.6613 41.4442 13.7787 41.3855 13.928C41.3268 14.0773 41.2842 14.2427 41.2575 14.424C41.2362 14.6053 41.2255 14.792 41.2255 14.984C41.2255 15.1973 41.2442 15.3947 41.2815 15.576C41.3242 15.7573 41.3882 15.9173 41.4735 16.056C41.5642 16.1947 41.6735 16.304 41.8015 16.384C41.9348 16.4587 42.0948 16.496 42.2815 16.496C42.5162 16.496 42.7348 16.4613 42.9375 16.392C43.1455 16.3173 43.3028 16.248 43.4095 16.184L43.6415 16.584C43.6095 16.616 43.5535 16.6587 43.4735 16.712C43.3935 16.7653 43.2895 16.824 43.1615 16.888C43.0388 16.9467 42.8948 16.9947 42.7295 17.032C42.5695 17.0747 42.3855 17.096 42.1775 17.096ZM47.2311 17.08C46.8685 17.08 46.5831 16.984 46.3751 16.792C46.1671 16.6 46.0631 16.3413 46.0631 16.016C46.0631 15.7333 46.1485 15.4987 46.3191 15.312C46.4951 15.12 46.7645 14.9947 47.1271 14.936L48.4711 14.72V15.16L47.4071 15.36C47.2471 15.3813 47.1271 15.44 47.0471 15.536C46.9725 15.6267 46.9351 15.7413 46.9351 15.88C46.9351 16.0667 46.9805 16.2107 47.0711 16.312C47.1618 16.408 47.2925 16.456 47.4631 16.456C47.6871 16.456 47.8818 16.384 48.0471 16.24C48.2178 16.096 48.3218 15.9147 48.3591 15.696V14.464C48.3591 14.1333 48.3031 13.8907 48.1911 13.736C48.0791 13.576 47.9005 13.496 47.6551 13.496C47.5538 13.496 47.4391 13.5093 47.3111 13.536C47.1885 13.5573 47.0711 13.5867 46.9591 13.624C46.8525 13.656 46.7698 13.6907 46.7111 13.728L46.9991 13.296L46.8871 13.984L46.8951 14.32L46.3751 14.344L46.2791 13.16C46.4391 13.1173 46.6018 13.0827 46.7671 13.056C46.9378 13.024 47.1031 13 47.2631 12.984C47.4285 12.968 47.5831 12.96 47.7271 12.96C48.2231 12.96 48.5858 13.088 48.8151 13.344C49.0498 13.6 49.1671 14.008 49.1671 14.568V15.592C49.1671 15.848 49.1805 16.072 49.2071 16.264C49.2391 16.456 49.2658 16.608 49.2871 16.72L48.9111 16.432L49.7751 16.52L49.7271 17H48.5351L48.3911 16.024L48.5671 16.064C48.5298 16.2453 48.4471 16.416 48.3191 16.576C48.1965 16.7307 48.0418 16.8533 47.8551 16.944C47.6685 17.0347 47.4605 17.08 47.2311 17.08ZM50.2891 18.864L50.2491 18.432L51.0971 18.248L50.6811 18.592C50.6918 18.5333 50.7051 18.4427 50.7211 18.32C50.7425 18.2027 50.7611 18.08 50.7771 17.952C50.7985 17.824 50.8091 17.7253 50.8091 17.656V14.256C50.8091 14.1813 50.7985 14.0773 50.7771 13.944C50.7611 13.8107 50.7398 13.68 50.7131 13.552C50.6918 13.4187 50.6758 13.3227 50.6651 13.264L51.0891 13.696L50.1211 13.536L50.1771 13.048H51.3051L51.4571 13.192L51.5611 14.088L51.4171 13.968C51.4811 13.7653 51.5771 13.5893 51.7051 13.44C51.8385 13.2907 51.9905 13.1733 52.1611 13.088C52.3371 13.0027 52.5185 12.96 52.7051 12.96C53.2118 12.96 53.6038 13.1333 53.8811 13.48C54.1638 13.8267 54.3051 14.312 54.3051 14.936C54.3051 15.3627 54.2251 15.7387 54.0651 16.064C53.9051 16.384 53.6838 16.6347 53.4011 16.816C53.1185 16.992 52.7878 17.08 52.4091 17.08C52.2651 17.08 52.1158 17.0613 51.9611 17.024C51.8065 16.992 51.6518 16.9467 51.4971 16.888L51.4891 16.2C51.6438 16.3013 51.7931 16.376 51.9371 16.424C52.0811 16.472 52.2171 16.496 52.3451 16.496C52.6918 16.496 52.9531 16.3707 53.1291 16.12C53.3051 15.864 53.3931 15.4853 53.3931 14.984C53.3931 14.52 53.3185 14.1733 53.1691 13.944C53.0251 13.7093 52.8065 13.592 52.5131 13.592C52.2411 13.592 52.0225 13.7013 51.8571 13.92C51.6971 14.1387 51.6171 14.424 51.6171 14.776V17.416C51.6171 17.6507 51.6278 17.8773 51.6491 18.096C51.6758 18.3147 51.6971 18.48 51.7131 18.592L51.3131 18.288L52.4171 18.376L52.3691 18.824H51.0971C51.0545 18.824 50.9878 18.8267 50.8971 18.832C50.8065 18.8373 50.7078 18.8427 50.6011 18.848C50.4945 18.8533 50.3905 18.8587 50.2891 18.864ZM55.0001 18.864L54.9601 18.432L55.8081 18.248L55.3921 18.592C55.4027 18.5333 55.4161 18.4427 55.4321 18.32C55.4534 18.2027 55.4721 18.08 55.4881 17.952C55.5094 17.824 55.5201 17.7253 55.5201 17.656V14.256C55.5201 14.1813 55.5094 14.0773 55.4881 13.944C55.4721 13.8107 55.4507 13.68 55.4241 13.552C55.4027 13.4187 55.3867 13.3227 55.3761 13.264L55.8001 13.696L54.8321 13.536L54.8881 13.048H56.0161L56.1681 13.192L56.2721 14.088L56.1281 13.968C56.1921 13.7653 56.2881 13.5893 56.4161 13.44C56.5494 13.2907 56.7014 13.1733 56.8721 13.088C57.0481 13.0027 57.2294 12.96 57.4161 12.96C57.9227 12.96 58.3147 13.1333 58.5921 13.48C58.8747 13.8267 59.0161 14.312 59.0161 14.936C59.0161 15.3627 58.9361 15.7387 58.7761 16.064C58.6161 16.384 58.3947 16.6347 58.1121 16.816C57.8294 16.992 57.4987 17.08 57.1201 17.08C56.9761 17.08 56.8267 17.0613 56.6721 17.024C56.5174 16.992 56.3627 16.9467 56.2081 16.888L56.2001 16.2C56.3547 16.3013 56.5041 16.376 56.6481 16.424C56.7921 16.472 56.9281 16.496 57.0561 16.496C57.4027 16.496 57.6641 16.3707 57.8401 16.12C58.0161 15.864 58.1041 15.4853 58.1041 14.984C58.1041 14.52 58.0294 14.1733 57.8801 13.944C57.7361 13.7093 57.5174 13.592 57.2241 13.592C56.9521 13.592 56.7334 13.7013 56.5681 13.92C56.4081 14.1387 56.3281 14.424 56.3281 14.776V17.416C56.3281 17.6507 56.3387 17.8773 56.3601 18.096C56.3867 18.3147 56.4081 18.48 56.4241 18.592L56.0241 18.288L57.1281 18.376L57.0801 18.824H55.8081C55.7654 18.824 55.6987 18.8267 55.6081 18.832C55.5174 18.8373 55.4187 18.8427 55.3121 18.848C55.2054 18.8533 55.1014 18.8587 55.0001 18.864Z" fill="#2D2727"/>
</svg>
