<svg width="20" height="20" viewBox="0 0 20 20" fill="none" xmlns="http://www.w3.org/2000/svg">
<path d="M10.8567 1.66753C11.4648 1.6652 12.0729 1.67131 12.6808 1.68586L12.8425 1.6917C13.0292 1.69836 13.2133 1.7067 13.4358 1.7167C14.3225 1.75836 14.9275 1.89836 15.4583 2.1042C16.0083 2.31586 16.4717 2.60253 16.935 3.06586C17.3586 3.4822 17.6865 3.98582 17.8958 4.5417C18.1017 5.07253 18.2417 5.67836 18.2833 6.56503C18.2933 6.7867 18.3017 6.9717 18.3083 7.15836L18.3133 7.32003C18.3281 7.92769 18.3345 8.53553 18.3325 9.14336L18.3333 9.76503V10.8567C18.3354 11.4648 18.329 12.0729 18.3142 12.6809L18.3092 12.8425C18.3025 13.0292 18.2942 13.2134 18.2842 13.4359C18.2425 14.3225 18.1008 14.9275 17.8958 15.4584C17.6872 16.0148 17.3592 16.5189 16.935 16.935C16.5183 17.3586 16.0144 17.6865 15.4583 17.8959C14.9275 18.1017 14.3225 18.2417 13.4358 18.2834C13.2133 18.2934 13.0292 18.3017 12.8425 18.3084L12.6808 18.3134C12.0729 18.3282 11.4648 18.3346 10.8567 18.3325L10.235 18.3334H9.14416C8.53605 18.3354 7.92794 18.329 7.32 18.3142L7.15833 18.3092C6.96051 18.302 6.76272 18.2937 6.565 18.2842C5.67833 18.2425 5.07333 18.1009 4.54166 17.8959C3.98557 17.687 3.48186 17.359 3.06583 16.935C2.6417 16.5186 2.31352 16.0147 2.10416 15.4584C1.89833 14.9275 1.75833 14.3225 1.71666 13.4359C1.70738 13.2381 1.69905 13.0403 1.69166 12.8425L1.6875 12.6809C1.67213 12.0729 1.66519 11.4648 1.66666 10.8567V9.14336C1.66434 8.53553 1.67045 7.92769 1.685 7.32003L1.69083 7.15836C1.6975 6.9717 1.70583 6.7867 1.71583 6.56503C1.7575 5.67753 1.8975 5.07336 2.10333 4.5417C2.31281 3.98555 2.64163 3.48207 3.06666 3.0667C3.48241 2.64232 3.9858 2.31384 4.54166 2.1042C5.07333 1.89836 5.6775 1.75836 6.565 1.7167L7.15833 1.6917L7.32 1.68753C7.92765 1.67217 8.53549 1.66523 9.14333 1.6667L10.8567 1.66753ZM10 5.8342C9.44792 5.82639 8.8998 5.92838 8.38748 6.13425C7.87516 6.34012 7.40887 6.64576 7.0157 7.03341C6.62253 7.42106 6.31033 7.88298 6.09724 8.39233C5.88414 8.90169 5.77441 9.44831 5.77441 10.0004C5.77441 10.5526 5.88414 11.0992 6.09724 11.6086C6.31033 12.1179 6.62253 12.5798 7.0157 12.9675C7.40887 13.3551 7.87516 13.6608 8.38748 13.8666C8.8998 14.0725 9.44792 14.1745 10 14.1667C11.1051 14.1667 12.1649 13.7277 12.9463 12.9463C13.7277 12.1649 14.1667 11.1051 14.1667 10C14.1667 8.89496 13.7277 7.83515 12.9463 7.05375C12.1649 6.27235 11.1051 5.8342 10 5.8342ZM10 7.50086C10.3321 7.49474 10.6621 7.55486 10.9707 7.6777C11.2793 7.80054 11.5603 7.98365 11.7973 8.21632C12.0343 8.44899 12.2226 8.72656 12.3512 9.03281C12.4798 9.33907 12.546 9.66788 12.5461 10C12.5461 10.3322 12.48 10.661 12.3515 10.9673C12.2231 11.2736 12.0349 11.5512 11.7979 11.784C11.561 12.0167 11.28 12.1999 10.9714 12.3229C10.6629 12.4458 10.3329 12.506 10.0008 12.5C9.33779 12.5 8.70191 12.2366 8.23306 11.7678C7.76422 11.299 7.50083 10.6631 7.50083 10C7.50083 9.33699 7.76422 8.7011 8.23306 8.23226C8.70191 7.76342 9.33779 7.50003 10.0008 7.50003L10 7.50086ZM14.375 4.5842C14.1062 4.59496 13.8519 4.70932 13.6655 4.90334C13.4791 5.09736 13.375 5.35597 13.375 5.62503C13.375 5.89408 13.4791 6.1527 13.6655 6.34672C13.8519 6.54074 14.1062 6.6551 14.375 6.66586C14.6513 6.66586 14.9162 6.55612 15.1116 6.36077C15.3069 6.16542 15.4167 5.90046 15.4167 5.6242C15.4167 5.34793 15.3069 5.08298 15.1116 4.88763C14.9162 4.69228 14.6513 4.58253 14.375 4.58253V4.5842Z" fill="#292F2E"/>
</svg>
