<svg width="25" height="25" viewBox="0 0 25 25" fill="none" xmlns="http://www.w3.org/2000/svg">
<path d="M20.8333 4.1665H4.16668C3.02084 4.1665 2.09376 5.104 2.09376 6.24984L2.08334 18.7498C2.08334 19.8957 3.02084 20.8332 4.16668 20.8332H20.8333C21.9792 20.8332 22.9167 19.8957 22.9167 18.7498V6.24984C22.9167 5.104 21.9792 4.1665 20.8333 4.1665ZM20.4167 8.59359L13.0521 13.1978C12.7188 13.4061 12.2813 13.4061 11.9479 13.1978L4.58334 8.59359C4.47889 8.53495 4.38743 8.45573 4.31448 8.36073C4.24153 8.26572 4.18862 8.1569 4.15894 8.04085C4.12927 7.9248 4.12345 7.80394 4.14184 7.68557C4.16023 7.56721 4.20244 7.45381 4.26593 7.35223C4.32941 7.25066 4.41285 7.16302 4.51118 7.09462C4.60952 7.02623 4.72071 6.97849 4.83803 6.95431C4.95534 6.93014 5.07635 6.93001 5.19371 6.95395C5.31108 6.97789 5.42237 7.02539 5.52084 7.09359L12.5 11.4582L19.4792 7.09359C19.5777 7.02539 19.6889 6.97789 19.8063 6.95395C19.9237 6.93001 20.0447 6.93014 20.162 6.95431C20.2793 6.97849 20.3905 7.02623 20.4888 7.09462C20.5872 7.16302 20.6706 7.25066 20.7341 7.35223C20.7976 7.45381 20.8398 7.56721 20.8582 7.68557C20.8766 7.80394 20.8708 7.9248 20.8411 8.04085C20.8114 8.1569 20.7585 8.26572 20.6855 8.36073C20.6126 8.45573 20.5211 8.53495 20.4167 8.59359Z" fill="#068486"/>
</svg>
