<svg width="30" height="28" viewBox="0 0 30 28" fill="none" xmlns="http://www.w3.org/2000/svg">
    <g clip-path="url(#clip0_102_33)">
        <path d="M14.1604 0C11.3915 0 8.68471 0.821086 6.38242 2.35943C4.08013 3.89777 2.28572 6.08427 1.22609 8.64243C0.166466 11.2006 -0.11078 14.0155 0.429413 16.7313C0.969606 19.447 2.30298 21.9416 4.26091 23.8995C6.21885 25.8574 8.71341 27.1908 11.4291 27.731C14.1449 28.2712 16.9598 27.9939 19.518 26.9343C22.0761 25.8747 24.2626 24.0803 25.801 21.778C27.3393 19.4757 28.1604 16.7689 28.1604 14C28.1604 10.287 26.6854 6.72601 24.0599 4.1005C21.4344 1.475 17.8734 0 14.1604 0ZM14.1604 26C11.787 26 9.46695 25.2962 7.49356 23.9776C5.52017 22.6591 3.9821 20.7849 3.07385 18.5922C2.1656 16.3995 1.92796 13.9867 2.39098 11.6589C2.85401 9.33114 3.99689 7.19295 5.67513 5.51472C7.35336 3.83649 9.49155 2.6936 11.8193 2.23058C14.1471 1.76755 16.5599 2.00519 18.7526 2.91345C20.9453 3.8217 22.8195 5.35977 24.138 7.33316C25.4566 9.30655 26.1604 11.6266 26.1604 14C26.1604 17.1826 24.8961 20.2348 22.6457 22.4853C20.3953 24.7357 17.343 26 14.1604 26Z" fill="black"/>
        <path d="M12.9999 18.7373L8.41431 14.3614L9.71019 13.125L12.9999 16.2628L19.9562 9.625L21.2539 10.8631L12.9999 18.7373Z" fill="black"/>
    </g>
    <defs>
        <clipPath id="clip0_102_33">
            <rect width="29.3476" height="28" fill="black" transform="translate(0.1604)"/>
        </clipPath>
    </defs>
</svg>