<svg width="80" height="80" viewBox="0 0 80 80" fill="none" xmlns="http://www.w3.org/2000/svg">
<circle cx="40" cy="40" r="38.5" stroke="#068486" stroke-width="3"/>
<path d="M40 38.0557C42.5785 38.0557 45.0514 39.08 46.8746 40.9032C48.6979 42.7265 49.7222 45.1994 49.7222 47.7779V59.4446H45.8333V47.7779C45.8334 46.29 45.2649 44.8583 44.2442 43.7757C43.2234 42.6931 41.8276 42.0416 40.3422 41.9543L40 41.9446C38.5121 41.9445 37.0804 42.513 35.9978 43.5337C34.9153 44.5545 34.2637 45.9503 34.1764 47.4357L34.1667 47.7779V59.4446H30.2778V47.7779C30.2778 45.1994 31.3021 42.7265 33.1253 40.9032C34.9486 39.08 37.4215 38.0557 40 38.0557ZM27.3611 43.889C27.9036 43.889 28.4305 43.9532 28.9361 44.0718C28.6037 45.0615 28.4068 46.0917 28.3508 47.1343L28.3333 47.7779V47.9451C28.1098 47.8652 27.8773 47.8129 27.6411 47.7896L27.3611 47.7779C26.6364 47.7779 25.9376 48.0477 25.4009 48.5348C24.8642 49.0218 24.5281 49.6913 24.458 50.4126L24.4444 50.6946V59.4446H20.5555V50.6946C20.5555 48.8896 21.2726 47.1586 22.5488 45.8823C23.8251 44.606 25.5562 43.889 27.3611 43.889ZM52.6389 43.889C54.4438 43.889 56.1748 44.606 57.4511 45.8823C58.7274 47.1586 59.4444 48.8896 59.4444 50.6946V59.4446H55.5555V50.6946C55.5556 49.9698 55.2857 49.271 54.7987 48.7343C54.3116 48.1977 53.6422 47.8616 52.9208 47.7915L52.6389 47.7779C52.2986 47.7779 51.9719 47.8362 51.6667 47.9432V47.7779C51.6667 46.4829 51.4567 45.2384 51.0678 44.0757C51.5694 43.9532 52.0983 43.889 52.6389 43.889ZM27.3611 32.2223C28.6503 32.2223 29.8868 32.7345 30.7984 33.6461C31.7101 34.5578 32.2222 35.7942 32.2222 37.0834C32.2222 38.3727 31.7101 39.6091 30.7984 40.5208C29.8868 41.4324 28.6503 41.9446 27.3611 41.9446C26.0719 41.9446 24.8354 41.4324 23.9238 40.5208C23.0121 39.6091 22.5 38.3727 22.5 37.0834C22.5 35.7942 23.0121 34.5578 23.9238 33.6461C24.8354 32.7345 26.0719 32.2223 27.3611 32.2223ZM52.6389 32.2223C53.9281 32.2223 55.1646 32.7345 56.0762 33.6461C56.9878 34.5578 57.5 35.7942 57.5 37.0834C57.5 38.3727 56.9878 39.6091 56.0762 40.5208C55.1646 41.4324 53.9281 41.9446 52.6389 41.9446C51.3496 41.9446 50.1132 41.4324 49.2015 40.5208C48.2899 39.6091 47.7778 38.3727 47.7778 37.0834C47.7778 35.7942 48.2899 34.5578 49.2015 33.6461C50.1132 32.7345 51.3496 32.2223 52.6389 32.2223ZM27.3611 36.1112C27.1032 36.1112 26.856 36.2136 26.6736 36.396C26.4913 36.5783 26.3889 36.8256 26.3889 37.0834C26.3889 37.3413 26.4913 37.5886 26.6736 37.7709C26.856 37.9532 27.1032 38.0557 27.3611 38.0557C27.6189 38.0557 27.8662 37.9532 28.0486 37.7709C28.2309 37.5886 28.3333 37.3413 28.3333 37.0834C28.3333 36.8256 28.2309 36.5783 28.0486 36.396C27.8662 36.2136 27.6189 36.1112 27.3611 36.1112ZM52.6389 36.1112C52.381 36.1112 52.1337 36.2136 51.9514 36.396C51.7691 36.5783 51.6667 36.8256 51.6667 37.0834C51.6667 37.3413 51.7691 37.5886 51.9514 37.7709C52.1337 37.9532 52.381 38.0557 52.6389 38.0557C52.8967 38.0557 53.144 37.9532 53.3263 37.7709C53.5087 37.5886 53.6111 37.3413 53.6111 37.0834C53.6111 36.8256 53.5087 36.5783 53.3263 36.396C53.144 36.2136 52.8967 36.1112 52.6389 36.1112ZM40 20.5557C42.0628 20.5557 44.0411 21.3751 45.4997 22.8337C46.9583 24.2923 47.7778 26.2706 47.7778 28.3334C47.7778 30.3962 46.9583 32.3745 45.4997 33.8332C44.0411 35.2918 42.0628 36.1112 40 36.1112C37.9372 36.1112 35.9589 35.2918 34.5003 33.8332C33.0416 32.3745 32.2222 30.3962 32.2222 28.3334C32.2222 26.2706 33.0416 24.2923 34.5003 22.8337C35.9589 21.3751 37.9372 20.5557 40 20.5557ZM40 24.4446C38.9686 24.4446 37.9794 24.8543 37.2501 25.5836C36.5208 26.3129 36.1111 27.302 36.1111 28.3334C36.1111 29.3648 36.5208 30.354 37.2501 31.0833C37.9794 31.8126 38.9686 32.2223 40 32.2223C41.0314 32.2223 42.0205 31.8126 42.7498 31.0833C43.4792 30.354 43.8889 29.3648 43.8889 28.3334C43.8889 27.302 43.4792 26.3129 42.7498 25.5836C42.0205 24.8543 41.0314 24.4446 40 24.4446Z" fill="#068486"/>
</svg>
