<svg width="80" height="80" viewBox="0 0 80 80" fill="none" xmlns="http://www.w3.org/2000/svg">
<circle cx="40" cy="40" r="38.5" stroke="#068486" stroke-width="3"/>
<path d="M38.9872 57.0125C38.9078 57.3303 38.7244 57.6124 38.4663 57.8139C38.2082 58.0155 37.89 58.125 37.5625 58.1251C37.4388 58.1257 37.3154 58.1109 37.1953 58.081L31.3203 56.6123C31.1568 56.5712 31.0015 56.5023 30.8614 56.4085L26.4551 53.471C26.1311 53.2548 25.9062 52.9187 25.8299 52.5367C25.7536 52.1547 25.8323 51.7581 26.0484 51.434C26.2646 51.11 26.6007 50.8851 26.9827 50.8088C27.3647 50.7326 27.7614 50.8112 28.0854 51.0274L32.2787 53.8235L37.9077 55.2317C38.0958 55.2773 38.273 55.3596 38.4291 55.4739C38.5853 55.5882 38.7173 55.7322 38.8176 55.8977C38.9179 56.0632 38.9846 56.2469 39.0137 56.4382C39.0428 56.6295 39.0338 56.8247 38.9872 57.0125ZM63.3483 39.3031C63.2278 39.6691 63.0359 40.0077 62.7838 40.2991C62.5317 40.5906 62.2244 40.8293 61.8795 41.0013L57.532 43.1751L47.4197 53.2892C47.2402 53.4685 47.0173 53.5983 46.7728 53.6658C46.5283 53.7334 46.2704 53.7365 46.0244 53.6748L34.2744 50.7373C34.0957 50.6924 33.9269 50.6146 33.7768 50.5078L23.5837 43.2301L19.126 41.0013C18.4294 40.653 17.8995 40.0424 17.653 39.3035C17.4065 38.5647 17.4635 37.7582 17.8115 37.0614L22.3738 27.9386C22.7221 27.2419 23.3328 26.7121 24.0716 26.4656C24.8104 26.2191 25.6169 26.2761 26.3137 26.6241L30.3638 28.6436L40.0943 25.864C40.3583 25.7885 40.6381 25.7885 40.9021 25.864L50.6326 28.6436L54.6826 26.6241C55.3795 26.2761 56.1859 26.2191 56.9248 26.4656C57.6636 26.7121 58.2743 27.2419 58.6226 27.9386L63.1849 37.0614C63.3589 37.4057 63.4629 37.7811 63.491 38.1659C63.519 38.5506 63.4705 38.9372 63.3483 39.3031ZM54.8699 41.6788L49.8743 31.6876H44.0324L36.0938 39.3985C38.4181 40.8838 42.0624 41.2932 45.3322 37.9977C45.5876 37.7403 45.9291 37.5865 46.2911 37.5658C46.6531 37.5451 47.01 37.6591 47.293 37.8857L53.6105 42.9474L54.8699 41.6788ZM20.4387 38.3741L23.6865 39.9989L28.2488 30.8761L25.001 29.2513L20.4387 38.3741ZM51.5157 45.0275L46.4283 40.9536C42.8408 43.8911 38.2859 44.2785 34.5112 41.8715C34.1399 41.6354 33.8264 41.3188 33.5939 40.9451C33.3614 40.5715 33.2157 40.1504 33.1678 39.713C33.1199 39.2756 33.1708 38.8329 33.3169 38.4178C33.463 38.0027 33.7005 37.6257 34.0118 37.3147C34.0162 37.3094 34.0212 37.3045 34.0265 37.3001L42.2625 29.3119L40.5 28.8088L31.2432 31.4544L26.2183 41.5025L35.2511 47.9558L45.9252 50.6235L51.5157 45.0275ZM60.5558 38.3741L55.999 29.2513L52.7512 30.8761L57.3135 39.9989L60.5558 38.3741Z" fill="#068486"/>
</svg>
