<svg width="80" height="80" viewBox="0 0 80 80" fill="none" xmlns="http://www.w3.org/2000/svg">
<circle cx="40" cy="40" r="38.5" stroke="#068486" stroke-width="3"/>
<g clip-path="url(#clip0_19_26)">
<path d="M39.1253 21.2986C39.8981 21.0095 40.7424 20.9718 41.5379 21.1909L41.8748 21.2986L55.5831 26.4393C56.2782 26.6999 56.8848 27.1527 57.3325 27.7449C57.7801 28.3371 58.0502 29.0443 58.1113 29.7841L58.125 30.1072V40.6098C58.1249 43.7831 57.2681 46.8975 55.645 49.6244C54.0219 52.3512 51.6926 54.5892 48.9032 56.1021L48.3823 56.3744L41.814 59.6585C41.4524 59.8391 41.0574 59.943 40.6537 59.9639C40.25 59.9848 39.8463 59.9222 39.468 59.7799L39.186 59.6585L32.6177 56.3744C29.7793 54.9551 27.3768 52.7959 25.6637 50.1246C23.9506 47.4532 22.9905 44.3689 22.8848 41.1973L22.875 40.6098V30.1072C22.875 29.3653 23.0858 28.6386 23.4827 28.0118C23.8797 27.3849 24.4466 26.8838 25.1173 26.5666L25.4169 26.4393L39.1253 21.2986ZM40.5 24.9666L26.7917 30.1072V40.6098C26.7917 43.0675 27.4525 45.48 28.7049 47.5947C29.9572 49.7094 31.7551 51.4486 33.9102 52.63L34.3704 52.8709L40.5 55.9357L46.6296 52.8709C48.8283 51.7718 50.691 50.1017 52.0226 48.0355C53.3542 45.9693 54.1058 43.5831 54.1985 41.1268L54.2083 40.6098V30.1072L40.5 24.9666ZM47.223 33.8986C47.5754 33.5473 48.0483 33.3434 48.5456 33.3282C49.0429 33.3131 49.5274 33.4877 49.9005 33.8168C50.2737 34.1459 50.5077 34.6046 50.5549 35.1C50.602 35.5953 50.4589 36.09 50.1546 36.4836L49.992 36.6676L39.7421 46.9195C39.3688 47.2928 38.8713 47.516 38.3442 47.5467C37.8171 47.5774 37.2971 47.4134 36.883 47.086L36.695 46.9195L31.9871 42.2117C31.6322 41.8601 31.425 41.3861 31.4081 40.8868C31.3911 40.3875 31.5657 39.9005 31.896 39.5257C32.2263 39.1508 32.6874 38.9164 33.1849 38.8704C33.6824 38.8243 34.1787 38.9702 34.5721 39.2781L34.7562 39.4406L38.2185 42.903L47.223 33.8986Z" fill="#068486"/>
</g>
<defs>
<clipPath id="clip0_19_26">
<rect width="47" height="47" fill="white" transform="translate(17 17)"/>
</clipPath>
</defs>
</svg>
